<svg width="1252" height="701" fill="none" xmlns="http://www.w3.org/2000/svg"><rect x="505.5" y="593.5" width="272" height="96" rx="3.5" stroke="#004F89"/><rect x="496" y="601" width="274" height="100" rx="4" fill="#FF912C"/><path d="M533.821 628h1.82v-13.94h-1.82v6.12h-7.1v-6.12h-1.82V628h1.82v-6.32h7.1V628zm14.628-10.96h-1.82v6.02c0 2.36-1.26 3.52-3.14 3.52-1.84 0-3.06-1.14-3.06-3.36v-6.18h-1.8v6.42c0 3.14 1.98 4.7 4.5 4.7 1.46 0 2.8-.64 3.5-1.78V628h1.82v-10.96zm-6.46-1.48c.56 0 1.04-.46 1.04-1.04 0-.58-.48-1.06-1.04-1.06-.6 0-1.06.48-1.06 1.06 0 .58.46 1.04 1.06 1.04zm3.24 0c.58 0 1.06-.46 1.06-1.04 0-.58-.48-1.06-1.06-1.06-.6 0-1.04.48-1.04 1.06 0 .58.44 1.04 1.04 1.04zm5.613 6.92c0 3.4 2.26 5.7 5.16 5.7 2.04 0 3.5-1.08 4.12-2.2v7.22h1.84v-16.16h-1.84v2c-.62-1.14-2.06-2.18-4.06-2.18-2.96 0-5.22 2.2-5.22 5.62zm9.28.02c0 2.58-1.72 4.08-3.72 4.08s-3.7-1.52-3.7-4.1c0-2.58 1.7-4.04 3.7-4.04s3.72 1.52 3.72 4.06zm14.636-5.46h-1.82v6.02c0 2.36-1.26 3.52-3.14 3.52-1.84 0-3.06-1.14-3.06-3.36v-6.18h-1.8v6.42c0 3.14 1.98 4.7 4.5 4.7 1.46 0 2.8-.64 3.5-1.78V628h1.82v-10.96zm2.393 5.44c0 3.4 2.26 5.7 5.16 5.7 2.04 0 3.5-1.08 4.12-2.2v7.22h1.84v-16.16h-1.84v2c-.62-1.14-2.06-2.18-4.06-2.18-2.96 0-5.22 2.2-5.22 5.62zm9.28.02c0 2.58-1.72 4.08-3.72 4.08s-3.7-1.52-3.7-4.1c0-2.58 1.7-4.04 3.7-4.04s3.72 1.52 3.72 4.06zm4.916 5.5h1.82v-10.96h-1.82V628zm.94-12.74c.66 0 1.2-.54 1.2-1.24s-.54-1.24-1.2-1.24c-.7 0-1.24.54-1.24 1.24s.54 1.24 1.24 1.24zm9.714 9.74c0 2.2 1.1 3 3.04 3h1.64v-1.54h-1.34c-1.12 0-1.52-.38-1.52-1.46v-6.46h2.86v-1.5h-2.86v-2.76h-1.82v2.76h-1.42v1.5h1.42V625zm11.545 1.64c-1.88 0-3.48-1.18-3.46-3.32h6.92c-.2 2.14-1.68 3.32-3.46 3.32zm-.08 1.54c3.2 0 5.42-2.18 5.42-5.64 0-3.48-2.3-5.68-5.42-5.68-2.72 0-4.48 1.56-5.04 3.56h1.96c.4-1.18 1.44-2.02 3.08-2.02 1.86 0 3.42 1.22 3.56 3.44h-8.76c-.04.38-.06.7-.06 1.1 0 3 2.08 5.24 5.26 5.24zm23.642-.18h1.8v-6.46c0-3.14-1.94-4.7-4.44-4.7-1.68 0-3.24.86-3.88 2.44-.72-1.64-2.22-2.44-4.02-2.44-1.44 0-2.74.62-3.46 1.78v-1.58h-1.82V628h1.82v-6.04c0-2.36 1.26-3.54 3.1-3.54 1.8 0 3 1.14 3 3.38v6.2h1.8v-6.04c0-2.36 1.26-3.54 3.1-3.54 1.8 0 3 1.14 3 3.38v6.2zm4.786 0h1.82v-10.96h-1.82V628zm.94-12.74c.66 0 1.2-.54 1.2-1.24s-.54-1.24-1.2-1.24c-.7 0-1.24.54-1.24 1.24s.54 1.24 1.24 1.24zM654.835 628h1.8v-6.46c0-3.14-1.94-4.7-4.48-4.7-1.48 0-2.8.62-3.52 1.76v-1.56h-1.82V628h1.82v-6.06c0-2.36 1.28-3.52 3.14-3.52 1.84 0 3.06 1.14 3.06 3.38v6.2zm4.093-5.52c0 3.4 2.26 5.7 5.18 5.7 2.02 0 3.44-1.04 4.1-2.22V628h1.84v-10.96h-1.84v2c-.64-1.14-2.04-2.18-4.08-2.18-2.94 0-5.2 2.2-5.2 5.62zm9.28.02c0 2.58-1.72 4.08-3.72 4.08s-3.7-1.52-3.7-4.1c0-2.58 1.7-4.04 3.7-4.04s3.72 1.52 3.72 4.06zm5.316 2.5c0 2.2 1.1 3 3.04 3h1.64v-1.54h-1.34c-1.12 0-1.52-.38-1.52-1.46v-6.46h2.86v-1.5h-2.86v-2.76h-1.82v2.76h-1.42v1.5h1.42V625zm5.305 5.86h1.22l2.24-5.38h-2l-1.46 5.38zm10.877-2.86h1.82v-10.96h-1.82V628zm.94-12.74c.66 0 1.2-.54 1.2-1.24s-.54-1.24-1.2-1.24c-.7 0-1.24.54-1.24 1.24s.54 1.24 1.24 1.24zM702.648 628h1.8v-6.46c0-3.14-1.94-4.7-4.48-4.7-1.48 0-2.8.62-3.52 1.76v-1.56h-1.82V628h1.82v-6.06c0-2.36 1.28-3.52 3.14-3.52 1.84 0 3.06 1.14 3.06 3.38v6.2zm12.653-2.98c-.08-3.92-6.44-2.5-6.44-5.1 0-.88.8-1.52 2.14-1.52 1.46 0 2.3.8 2.38 1.9h1.82c-.12-2.14-1.72-3.44-4.14-3.44-2.44 0-4.02 1.38-4.02 3.06 0 4.08 6.48 2.66 6.48 5.1 0 .9-.8 1.62-2.24 1.62-1.54 0-2.48-.8-2.58-1.86h-1.88c.12 2 1.92 3.4 4.48 3.4 2.42 0 4-1.36 4-3.16zm1.889-2.54c0 3.4 2.26 5.7 5.18 5.7 2.02 0 3.44-1.04 4.1-2.22V628h1.84v-10.96h-1.84v2c-.64-1.14-2.04-2.18-4.08-2.18-2.94 0-5.2 2.2-5.2 5.62zm9.28.02c0 2.58-1.72 4.08-3.72 4.08s-3.7-1.52-3.7-4.1c0-2.58 1.7-4.04 3.7-4.04s3.72 1.52 3.72 4.06zm12.936 5.5h1.8v-6.46c0-3.14-1.94-4.7-4.48-4.7-1.48 0-2.8.62-3.52 1.76v-1.56h-1.82V628h1.82v-6.06c0-2.36 1.28-3.52 3.14-3.52 1.84 0 3.06 1.14 3.06 3.38v6.2zm-217.939 24.04c0-2.54 1.32-3.32 3.06-3.32h.48v-1.88c-1.74 0-2.92.76-3.54 1.98v-1.78h-1.82V658h1.82v-5.96zm10.301-3.64c1.88 0 3.48 1.18 3.46 3.32h-6.92c.2-2.14 1.68-3.32 3.46-3.32zm5.12 6.22h-1.96c-.4 1.18-1.44 2.02-3.08 2.02-1.86 0-3.42-1.22-3.56-3.44h8.76c.04-.38.06-.7.06-1.1 0-3-2.08-5.24-5.26-5.24-3.2 0-5.42 2.18-5.42 5.64 0 3.48 2.3 5.68 5.42 5.68 2.72 0 4.48-1.56 5.04-3.56zm10.503.4c-.08-3.92-6.44-2.5-6.44-5.1 0-.88.8-1.52 2.14-1.52 1.46 0 2.3.8 2.38 1.9h1.82c-.12-2.14-1.72-3.44-4.14-3.44-2.44 0-4.02 1.38-4.02 3.06 0 4.08 6.48 2.66 6.48 5.1 0 .9-.8 1.62-2.24 1.62-1.54 0-2.48-.8-2.58-1.86h-1.88c.12 2 1.92 3.4 4.48 3.4 2.42 0 4-1.36 4-3.16zm12.289-7.98h-1.82v6.02c0 2.36-1.26 3.52-3.14 3.52-1.84 0-3.06-1.14-3.06-3.36v-6.18h-1.8v6.42c0 3.14 1.98 4.7 4.5 4.7 1.46 0 2.8-.64 3.5-1.78V658h1.82v-10.96zm4.893 5c0-2.54 1.32-3.32 3.06-3.32h.48v-1.88c-1.74 0-2.92.76-3.54 1.98v-1.78h-1.82V658h1.82v-5.96zm13.521 2.98c-.08-3.92-6.44-2.5-6.44-5.1 0-.88.8-1.52 2.14-1.52 1.46 0 2.3.8 2.38 1.9h1.82c-.12-2.14-1.72-3.44-4.14-3.44-2.44 0-4.02 1.38-4.02 3.06 0 4.08 6.48 2.66 6.48 5.1 0 .9-.8 1.62-2.24 1.62-1.54 0-2.48-.8-2.58-1.86h-1.88c.12 2 1.92 3.4 4.48 3.4 2.42 0 4-1.36 4-3.16zm2.569 2.98h1.82v-14.8h-1.82V658zm4.242-5.52c0 3.4 2.26 5.7 5.18 5.7 2.02 0 3.44-1.04 4.1-2.22V658h1.84v-10.96h-1.84v2c-.64-1.14-2.04-2.18-4.08-2.18-2.94 0-5.2 2.2-5.2 5.62zm9.28.02c0 2.58-1.72 4.08-3.72 4.08s-3.7-1.52-3.7-4.1c0-2.58 1.7-4.04 3.7-4.04s3.72 1.52 3.72 4.06zm6.736-.46c0-2.54 1.32-3.32 3.06-3.32h.48v-1.88c-1.74 0-2.92.76-3.54 1.98v-1.78h-1.82V658h1.82v-5.96zm5.64 5.96h1.82v-10.96h-1.82V658zm8.954-10.96l4.3 10.96h2.12l4.3-10.96h-1.94l-3.4 9.28-3.42-9.28h-1.96zm17.171 9.6c-1.88 0-3.48-1.18-3.46-3.32h6.92c-.2 2.14-1.68 3.32-3.46 3.32zm-.08 1.54c3.2 0 5.42-2.18 5.42-5.64 0-3.48-2.3-5.68-5.42-5.68-2.72 0-4.48 1.56-5.04 3.56h1.96c.4-1.18 1.44-2.02 3.08-2.02 1.86 0 3.42 1.22 3.56 3.44h-8.76c-.04.38-.06.7-.06 1.1 0 3 2.08 5.24 5.26 5.24zm21.035-3.16c-.08-3.92-6.44-2.5-6.44-5.1 0-.88.8-1.52 2.14-1.52 1.46 0 2.3.8 2.38 1.9h1.82c-.12-2.14-1.72-3.44-4.14-3.44-2.44 0-4.02 1.38-4.02 3.06 0 4.08 6.48 2.66 6.48 5.1 0 .9-.8 1.62-2.24 1.62-1.54 0-2.48-.8-2.58-1.86h-1.88c.12 2 1.92 3.4 4.48 3.4 2.42 0 4-1.36 4-3.16zm7.229 1.62c-1.88 0-3.48-1.18-3.46-3.32h6.92c-.2 2.14-1.68 3.32-3.46 3.32zm-.08 1.54c3.2 0 5.42-2.18 5.42-5.64 0-3.48-2.3-5.68-5.42-5.68-2.72 0-4.48 1.56-5.04 3.56h1.96c.4-1.18 1.44-2.02 3.08-2.02 1.86 0 3.42 1.22 3.56 3.44h-8.76c-.04.38-.06.7-.06 1.1 0 3 2.08 5.24 5.26 5.24zm15.842-.18h1.8v-6.46c0-3.14-1.94-4.7-4.48-4.7-1.48 0-2.8.62-3.52 1.76v-1.56h-1.82V658h1.82v-6.06c0-2.36 1.28-3.52 3.14-3.52 1.84 0 3.06 1.14 3.06 3.38v6.2zm9.433-1.36c-1.88 0-3.48-1.18-3.46-3.32h6.92c-.2 2.14-1.68 3.32-3.46 3.32zm-.08 1.54c3.2 0 5.42-2.18 5.42-5.64 0-3.48-2.3-5.68-5.42-5.68-2.72 0-4.48 1.56-5.04 3.56h1.96c.4-1.18 1.44-2.02 3.08-2.02 1.86 0 3.42 1.22 3.56 3.44h-8.76c-.04.38-.06.7-.06 1.1 0 3 2.08 5.24 5.26 5.24zm7.143-5.7c0 3.4 2.26 5.7 5.2 5.7 2 0 3.42-1.02 4.08-2.24V658h1.84v-14.8h-1.84v5.8c-.76-1.26-2.34-2.14-4.06-2.14-2.96 0-5.22 2.2-5.22 5.62zm9.28.02c0 2.58-1.72 4.08-3.72 4.08s-3.7-1.52-3.7-4.1c0-2.58 1.7-4.04 3.7-4.04s3.72 1.52 3.72 4.06zm4.915 5.5h1.82v-14.8h-1.82V658zm9.582-1.36c-1.88 0-3.48-1.18-3.46-3.32h6.92c-.2 2.14-1.68 3.32-3.46 3.32zm-.08 1.54c3.2 0 5.42-2.18 5.42-5.64 0-3.48-2.3-5.68-5.42-5.68-2.72 0-4.48 1.56-5.04 3.56h1.96c.4-1.18 1.44-2.02 3.08-2.02 1.86 0 3.42 1.22 3.56 3.44h-8.76c-.04.38-.06.7-.06 1.1 0 3 2.08 5.24 5.26 5.24zm9.642-6.14c0-2.54 1.32-3.32 3.06-3.32h.48v-1.88c-1.74 0-2.92.76-3.54 1.98v-1.78h-1.82V658h1.82v-5.96zm5.641 5.96h1.82v-14.8h-1.82V658zm9.582-1.36c-1.88 0-3.48-1.18-3.46-3.32h6.92c-.2 2.14-1.68 3.32-3.46 3.32zm-.08 1.54c3.2 0 5.42-2.18 5.42-5.64 0-3.48-2.3-5.68-5.42-5.68-2.72 0-4.48 1.56-5.04 3.56h1.96c.4-1.18 1.44-2.02 3.08-2.02 1.86 0 3.42 1.22 3.56 3.44h-8.76c-.04.38-.06.7-.06 1.1 0 3 2.08 5.24 5.26 5.24zM591.923 688h1.82v-10.96h-1.82V688zm.94-12.74c.66 0 1.2-.54 1.2-1.24s-.54-1.24-1.2-1.24c-.7 0-1.24.54-1.24 1.24s.54 1.24 1.24 1.24zm11.862 9.76c-.08-3.92-6.44-2.5-6.44-5.1 0-.88.8-1.52 2.14-1.52 1.46 0 2.3.8 2.38 1.9h1.82c-.12-2.14-1.72-3.44-4.14-3.44-2.44 0-4.02 1.38-4.02 3.06 0 4.08 6.48 2.66 6.48 5.1 0 .9-.8 1.62-2.24 1.62-1.54 0-2.48-.8-2.58-1.86h-1.88c.1 1.8 1.58 3.12 3.74 3.36v2.14h1c.86 0 1.28.24 1.28.86 0 .64-.42.88-1.28.88h-1.94v1.18h2.3c1.42 0 2.44-.8 2.44-2.06 0-1.32-1.04-2-2.58-1.98v-1c2.14-.16 3.52-1.46 3.52-3.14zm15.781 0c-.08-3.92-6.44-2.5-6.44-5.1 0-.88.8-1.52 2.14-1.52 1.46 0 2.3.8 2.38 1.9h1.82c-.12-2.14-1.72-3.44-4.14-3.44-2.44 0-4.02 1.38-4.02 3.06 0 4.08 6.48 2.66 6.48 5.1 0 .9-.8 1.62-2.24 1.62-1.54 0-2.48-.8-2.58-1.86h-1.88c.1 1.8 1.58 3.12 3.74 3.36v2.14h1c.86 0 1.28.24 1.28.86 0 .64-.42.88-1.28.88h-1.94v1.18h2.3c1.42 0 2.44-.8 2.44-2.06 0-1.32-1.04-2-2.58-1.98v-1c2.14-.16 3.52-1.46 3.52-3.14zm12.969-2.52c0-3.46-2.42-5.64-5.54-5.64-3.1 0-5.54 2.18-5.54 5.64 0 3.48 2.36 5.68 5.46 5.68 3.12 0 5.62-2.2 5.62-5.68zm-9.22 0c0-2.76 1.74-4.06 3.66-4.06 1.88 0 3.7 1.3 3.7 4.06 0 2.78-1.86 4.08-3.76 4.08-1.9 0-3.6-1.3-3.6-4.08zm2.08-7.08c.56 0 1.04-.46 1.04-1.04 0-.58-.48-1.06-1.04-1.06-.6 0-1.06.48-1.06 1.06 0 .58.46 1.04 1.06 1.04zm3.24 0c.58 0 1.06-.46 1.06-1.04 0-.58-.48-1.06-1.06-1.06-.6 0-1.04.48-1.04 1.06 0 .58.44 1.04 1.04 1.04zm8.113 3.66v-5.88h-1.82V688h1.82v-2.02c.68 1.2 2.1 2.2 4.1 2.2 2.94 0 5.2-2.3 5.2-5.7 0-3.42-2.24-5.62-5.2-5.62-1.94 0-3.4 1-4.1 2.22zm7.44 3.4c0 2.58-1.7 4.1-3.72 4.1-1.98 0-3.72-1.5-3.72-4.08 0-2.54 1.74-4.06 3.72-4.06 2.02 0 3.72 1.46 3.72 4.04zm8.916 4.16c-1.88 0-3.48-1.18-3.46-3.32h6.92c-.2 2.14-1.68 3.32-3.46 3.32zm-.08 1.54c3.2 0 5.42-2.18 5.42-5.64 0-3.48-2.3-5.68-5.42-5.68-2.72 0-4.48 1.56-5.04 3.56h1.96c.4-1.18 1.44-2.02 3.08-2.02 1.86 0 3.42 1.22 3.56 3.44h-8.76c-.04.38-.06.7-.06 1.1 0 3 2.08 5.24 5.26 5.24zm15.702-3.16c-.08-3.92-6.44-2.5-6.44-5.1 0-.88.8-1.52 2.14-1.52 1.46 0 2.3.8 2.38 1.9h1.82c-.12-2.14-1.72-3.44-4.14-3.44-2.44 0-4.02 1.38-4.02 3.06 0 4.08 6.48 2.66 6.48 5.1 0 .9-.8 1.62-2.24 1.62-1.54 0-2.48-.8-2.58-1.86h-1.88c.12 2 1.92 3.4 4.48 3.4 2.42 0 4-1.36 4-3.16zm2.569 2.98h1.82v-10.96h-1.82V688zm.94-12.74c.66 0 1.2-.54 1.2-1.24s-.54-1.24-1.2-1.24c-.7 0-1.24.54-1.24 1.24s.54 1.24 1.24 1.24z" fill="#fff"/><path stroke="#1A2955" d="M598.5 307V57m1.5 90.5H472"/><rect x="146.5" y="107.5" width="325" height="63" rx="3.5" stroke="#004F89"/><rect x="135" y="115" width="329" height="57" rx="4" fill="#FF912C"/><path d="M176 139.16c0 1.56-.9 2.68-2.96 2.68h-2.68v-5.28h2.68c2.08 0 2.96 1.02 2.96 2.6zm-7.46-4.1V149h1.82v-5.7h2.2l3.32 5.7h2.18l-3.5-5.84c2.34-.52 3.32-2.22 3.32-4 0-2.28-1.56-4.1-4.84-4.1h-4.5zm16.828 12.58c-1.88 0-3.48-1.18-3.46-3.32h6.92c-.2 2.14-1.68 3.32-3.46 3.32zm-.08 1.54c3.2 0 5.42-2.18 5.42-5.64 0-3.48-2.3-5.68-5.42-5.68-2.72 0-4.48 1.56-5.04 3.56h1.96c.4-1.18 1.44-2.02 3.08-2.02 1.86 0 3.42 1.22 3.56 3.44h-8.76c-.04.38-.06.7-.06 1.1 0 3 2.08 5.24 5.26 5.24zm7.822-.18h1.82v-6.06c0-2.36 1.28-3.52 3.14-3.52 1.84 0 3.06 1.14 3.06 3.38v6.2h1.8v-6.46c0-3.14-1.94-4.7-4.38-4.7-1.54 0-2.9.62-3.62 1.78v-5.42h-1.82V149zm14.613-8.92v-5.88h-1.82V149h1.82v-2.02c.68 1.2 2.1 2.2 4.1 2.2 2.94 0 5.2-2.3 5.2-5.7 0-3.42-2.24-5.62-5.2-5.62-1.94 0-3.4 1-4.1 2.22zm7.44 3.4c0 2.58-1.7 4.1-3.72 4.1-1.98 0-3.72-1.5-3.72-4.08 0-2.54 1.74-4.06 3.72-4.06 2.02 0 3.72 1.46 3.72 4.04zm8.916 4.16c-1.88 0-3.48-1.18-3.46-3.32h6.92c-.2 2.14-1.68 3.32-3.46 3.32zm-.08 1.54c3.2 0 5.42-2.18 5.42-5.64 0-3.48-2.3-5.68-5.42-5.68-2.72 0-4.48 1.56-5.04 3.56h1.96c.4-1.18 1.44-2.02 3.08-2.02 1.86 0 3.42 1.22 3.56 3.44h-8.76c-.04.38-.06.7-.06 1.1 0 3 2.08 5.24 5.26 5.24zm9.642-6.14c0-2.54 1.32-3.32 3.06-3.32h.48v-1.88c-1.74 0-2.92.76-3.54 1.98v-1.78h-1.82V149h1.82v-5.96zm5.641 5.96h1.82v-14.8h-1.82V149zm4.922 0h1.82v-10.96h-1.82V149zm.94-12.74c.66 0 1.2-.54 1.2-1.24s-.54-1.24-1.2-1.24c-.7 0-1.24.54-1.24 1.24s.54 1.24 1.24 1.24zm3.982 12.74h1.82v-4.84l4.3 4.84h2.48l-5.18-5.5 5.16-5.46h-2.54l-4.22 4.86v-8.7h-1.82V149zm19.785-2.08l-3.44-8.88h-2.02l4.42 10.84-2.16 5.28h1.88l6.6-16.12h-1.88l-3.4 8.88zm6.429-3.44c0 3.4 2.26 5.7 5.18 5.7 2.02 0 3.44-1.04 4.1-2.22V149h1.84v-10.96h-1.84v2c-.64-1.14-2.04-2.18-4.08-2.18-2.94 0-5.2 2.2-5.2 5.62zm9.28.02c0 2.58-1.72 4.08-3.72 4.08s-3.7-1.52-3.7-4.1c0-2.58 1.7-4.04 3.7-4.04s3.72 1.52 3.72 4.06zm12.936 5.5h1.8v-6.46c0-3.14-1.94-4.7-4.48-4.7-1.48 0-2.8.62-3.52 1.76v-1.56h-1.82V149h1.82v-6.06c0-2.36 1.28-3.52 3.14-3.52 1.84 0 3.06 1.14 3.06 3.38v6.2zm4.773 0h1.82v-10.96h-1.82V149zm12.942 0h1.8v-6.46c0-3.14-1.94-4.7-4.48-4.7-1.48 0-2.8.62-3.52 1.76v-1.56h-1.82V149h1.82v-6.06c0-2.36 1.28-3.52 3.14-3.52 1.84 0 3.06 1.14 3.06 3.38v6.2zm4.093-5.52c0 3.4 2.26 5.7 5.2 5.7 2 0 3.42-1.02 4.08-2.24V149h1.84v-14.8h-1.84v5.8c-.76-1.26-2.34-2.14-4.06-2.14-2.96 0-5.22 2.2-5.22 5.62zm9.28.02c0 2.58-1.72 4.08-3.72 4.08s-3.7-1.52-3.7-4.1c0-2.58 1.7-4.04 3.7-4.04s3.72 1.52 3.72 4.06zm4.236-.02c0 3.4 2.26 5.7 5.18 5.7 2.02 0 3.44-1.04 4.1-2.22V149H344v-10.96h-1.84v2c-.64-1.14-2.04-2.18-4.08-2.18-2.94 0-5.2 2.2-5.2 5.62zm9.28.02c0 2.58-1.72 4.08-3.72 4.08s-3.7-1.52-3.7-4.1c0-2.58 1.7-4.04 3.7-4.04s3.72 1.52 3.72 4.06zm10.247 5.5h1.82v-6.06c0-2.36 1.28-3.52 3.14-3.52 1.84 0 3.06 1.14 3.06 3.38v6.2h1.8v-6.46c0-3.14-1.94-4.7-4.38-4.7-1.54 0-2.9.62-3.62 1.78v-5.42h-1.82V149zm17.453-9.6c1.88 0 3.48 1.18 3.46 3.32h-6.92c.2-2.14 1.68-3.32 3.46-3.32zm5.12 6.22h-1.96c-.4 1.18-1.44 2.02-3.08 2.02-1.86 0-3.42-1.22-3.56-3.44h8.76c.04-.38.06-.7.06-1.1 0-3-2.08-5.24-5.26-5.24-3.2 0-5.42 2.18-5.42 5.64 0 3.48 2.3 5.68 5.42 5.68 2.72 0 4.48-1.56 5.04-3.56zm6.783 1.3l-3.44-8.88h-2.02l4.42 10.84-2.161 5.28h1.881l6.6-16.12h-1.88l-3.4 8.88zm11.769.72c-1.88 0-3.48-1.18-3.46-3.32h6.92c-.2 2.14-1.68 3.32-3.46 3.32zm-.08 1.54c3.2 0 5.42-2.18 5.42-5.64 0-3.48-2.3-5.68-5.42-5.68-2.72 0-4.48 1.56-5.04 3.56h1.96c.4-1.18 1.44-2.02 3.08-2.02 1.86 0 3.42 1.22 3.56 3.44h-8.76c-.04.38-.06.7-.06 1.1 0 3 2.08 5.24 5.26 5.24zm8.222-3.18c0 2.2 1.1 3 3.04 3h1.64v-1.54h-1.34c-1.12 0-1.52-.38-1.52-1.46v-6.46h2.86v-1.5h-2.86v-2.76h-1.82v2.76h-1.42v1.5h1.42V146z" fill="#fff"/><g filter="url(#filter0_d)"><circle cx="599" cy="147" r="10" fill="#fff"/><circle cx="599" cy="147" r="5" fill="#FF912C"/></g><path stroke="#1A2955" d="M907.5 639V342M903 639.5h97m-222 0h130"/><g filter="url(#filter1_d)"><circle cx="908" cy="639" r="10" fill="#fff"/><circle cx="908" cy="639" r="5" fill="#FF912C"/></g><path stroke="#1A2955" d="M314.209 433v-97m1.441 97.5H407m-194 0h91.35"/><g filter="url(#filter2_d)"><ellipse cx="313.767" cy="433" rx="9.417" ry="10" fill="#fff"/></g><ellipse cx="313.767" cy="433" rx="4.709" ry="5" fill="#FF912C"/><rect x="231.5" y="272.5" width="173" height="63" rx="3.5" stroke="#004F89"/><rect x="214" y="280" width="183" height="71" rx="4" fill="#FF912C"/><path d="M232.675 307h1.82v-13.94h-1.82V307zm.92-15.22c.58 0 1.04-.46 1.04-1.04a1.05 1.05 0 10-2.1 0c0 .58.46 1.04 1.06 1.04zm3.322 9.7c0 3.4 2.26 5.7 5.2 5.7 2 0 3.42-1.02 4.08-2.24V307h1.84v-14.8h-1.84v5.8c-.76-1.26-2.34-2.14-4.06-2.14-2.96 0-5.22 2.2-5.22 5.62zm9.28.02c0 2.58-1.72 4.08-3.72 4.08s-3.7-1.52-3.7-4.1c0-2.58 1.7-4.04 3.7-4.04s3.72 1.52 3.72 4.06zm4.235-.02c0 3.4 2.26 5.7 5.18 5.7 2.02 0 3.44-1.04 4.1-2.22V307h1.84v-10.96h-1.84v2c-.64-1.14-2.04-2.18-4.08-2.18-2.94 0-5.2 2.2-5.2 5.62zm9.28.02c0 2.58-1.72 4.08-3.72 4.08s-3.7-1.52-3.7-4.1c0-2.58 1.7-4.04 3.7-4.04s3.72 1.52 3.72 4.06zm6.736-.46c0-2.54 1.32-3.32 3.06-3.32h.48v-1.88c-1.74 0-2.92.76-3.54 1.98v-1.78h-1.82V307h1.82v-5.96zm10.301 4.6c-1.88 0-3.48-1.18-3.46-3.32h6.92c-.2 2.14-1.68 3.32-3.46 3.32zm-.08 1.54c3.2 0 5.42-2.18 5.42-5.64 0-3.48-2.3-5.68-5.42-5.68-2.72 0-4.48 1.56-5.04 3.56h1.96c.4-1.18 1.44-2.02 3.08-2.02 1.86 0 3.42 1.22 3.56 3.44h-8.76c-.04.38-.06.7-.06 1.1 0 3 2.08 5.24 5.26 5.24zm13.154-.18h1.82v-6.06c0-2.36 1.28-3.52 3.14-3.52 1.84 0 3.06 1.14 3.06 3.38v6.2h1.8v-6.46c0-3.14-1.94-4.7-4.38-4.7-1.54 0-2.9.62-3.62 1.78v-5.42h-1.82V307zm17.453-9.6c1.88 0 3.48 1.18 3.46 3.32h-6.92c.2-2.14 1.68-3.32 3.46-3.32zm5.12 6.22h-1.96c-.4 1.18-1.44 2.02-3.08 2.02-1.86 0-3.42-1.22-3.56-3.44h8.76c.04-.38.06-.7.06-1.1 0-3-2.08-5.24-5.26-5.24-3.2 0-5.42 2.18-5.42 5.64 0 3.48 2.3 5.68 5.42 5.68 2.72 0 4.48-1.56 5.04-3.56zm6.783 1.3l-3.44-8.88h-2.02l4.42 10.84-2.16 5.28h1.88l6.6-16.12h-1.88l-3.4 8.88zm11.769.72c-1.88 0-3.48-1.18-3.46-3.32h6.92c-.2 2.14-1.68 3.32-3.46 3.32zm-.08 1.54c3.2 0 5.42-2.18 5.42-5.64 0-3.48-2.3-5.68-5.42-5.68-2.72 0-4.48 1.56-5.04 3.56h1.96c.4-1.18 1.44-2.02 3.08-2.02 1.86 0 3.42 1.22 3.56 3.44h-8.76c-.04.38-.06.7-.06 1.1 0 3 2.08 5.24 5.26 5.24zm8.222-3.18c0 2.2 1.1 3 3.04 3h1.64v-1.54h-1.34c-1.12 0-1.52-.38-1.52-1.46v-6.46h2.86v-1.5h-2.86v-2.76h-1.82v2.76h-1.42v1.5h1.42V304zm6.886 3h1.82v-10.96h-1.82V307zm.94-12.74c.66 0 1.2-.54 1.2-1.24s-.54-1.24-1.2-1.24c-.7 0-1.24.54-1.24 1.24s.54 1.24 1.24 1.24zM358.917 307h1.8v-6.46c0-3.14-1.94-4.7-4.48-4.7-1.48 0-2.8.62-3.52 1.76v-1.56h-1.82V307h1.82v-6.06c0-2.36 1.28-3.52 3.14-3.52 1.84 0 3.06 1.14 3.06 3.38v6.2zm4.773 0h1.82v-10.96h-1.82V307zm.94-12.74c.66 0 1.2-.54 1.2-1.24s-.54-1.24-1.2-1.24c-.7 0-1.24.54-1.24 1.24s.54 1.24 1.24 1.24zM376.632 307h1.8v-6.46c0-3.14-1.94-4.7-4.48-4.7-1.48 0-2.8.62-3.52 1.76v-1.56h-1.82V307h1.82v-6.06c0-2.36 1.28-3.52 3.14-3.52 1.84 0 3.06 1.14 3.06 3.38v6.2zm-126.673 27.02c-.08-3.92-6.44-2.5-6.44-5.1 0-.88.8-1.52 2.14-1.52 1.46 0 2.3.8 2.38 1.9h1.82c-.12-2.14-1.72-3.44-4.14-3.44-2.44 0-4.02 1.38-4.02 3.06 0 4.08 6.48 2.66 6.48 5.1 0 .9-.8 1.62-2.24 1.62-1.54 0-2.48-.8-2.58-1.86h-1.88c.12 2 1.92 3.4 4.48 3.4 2.42 0 4-1.36 4-3.16zm7.229 1.62c-1.88 0-3.48-1.18-3.46-3.32h6.92c-.2 2.14-1.68 3.32-3.46 3.32zm-.08 1.54c3.2 0 5.42-2.18 5.42-5.64 0-3.48-2.3-5.68-5.42-5.68-2.72 0-4.48 1.56-5.04 3.56h1.96c.4-1.18 1.44-2.02 3.08-2.02 1.86 0 3.42 1.22 3.56 3.44h-8.76c-.04.38-.06.7-.06 1.1 0 3 2.08 5.24 5.26 5.24zm7.143-5.7c0 3.4 2.26 5.7 5.2 5.7 2 0 3.42-1.02 4.08-2.24V337h1.84v-14.8h-1.84v5.8c-.76-1.26-2.34-2.14-4.06-2.14-2.96 0-5.22 2.2-5.22 5.62zm9.28.02c0 2.58-1.72 4.08-3.72 4.08s-3.7-1.52-3.7-4.1c0-2.58 1.7-4.04 3.7-4.04s3.72 1.52 3.72 4.06zm6.735-.46c0-2.54 1.32-3.32 3.06-3.32h.48v-1.88c-1.74 0-2.92.76-3.54 1.98v-1.78h-1.82V337h1.82v-5.96zm26.793 5.96h1.8v-6.46c0-3.14-1.94-4.7-4.44-4.7-1.68 0-3.24.86-3.88 2.44-.72-1.64-2.22-2.44-4.02-2.44-1.44 0-2.74.62-3.46 1.78v-1.58h-1.82V337h1.82v-6.04c0-2.36 1.26-3.54 3.1-3.54 1.8 0 3 1.14 3 3.38v6.2h1.8v-6.04c0-2.36 1.26-3.54 3.1-3.54 1.8 0 3 1.14 3 3.38v6.2zm14.506-10.96h-1.82v6.02c0 2.36-1.26 3.52-3.14 3.52-1.84 0-3.06-1.14-3.06-3.36v-6.18h-1.8v6.42c0 3.14 1.98 4.7 4.5 4.7 1.46 0 2.8-.64 3.5-1.78V337h1.82v-10.96zm-6.46-1.48c.56 0 1.04-.46 1.04-1.04 0-.58-.48-1.06-1.04-1.06-.6 0-1.06.48-1.06 1.06 0 .58.46 1.04 1.06 1.04zm3.24 0c.58 0 1.06-.46 1.06-1.04 0-.58-.48-1.06-1.06-1.06-.6 0-1.04.48-1.04 1.06 0 .58.44 1.04 1.04 1.04zm5.613 6.92c0 3.4 2.26 5.7 5.18 5.7 2.02 0 3.44-1.04 4.1-2.22V337h1.84v-10.96h-1.84v2c-.64-1.14-2.04-2.18-4.08-2.18-2.94 0-5.2 2.2-5.2 5.62zm9.28.02c0 2.58-1.72 4.08-3.72 4.08s-3.7-1.52-3.7-4.1c0-2.58 1.7-4.04 3.7-4.04s3.72 1.52 3.72 4.06zm3.615-5.46l4.3 10.96h2.12l4.3-10.96h-1.94l-3.4 9.28-3.42-9.28h-1.96zM349.364 337h1.82v-10.96h-1.82V337zm.94-12.74c.66 0 1.2-.54 1.2-1.24s-.54-1.24-1.2-1.24c-.7 0-1.24.54-1.24 1.24s.54 1.24 1.24 1.24zM362.306 337h1.8v-6.46c0-3.14-1.94-4.7-4.48-4.7-1.48 0-2.8.62-3.52 1.76v-1.56h-1.82V337h1.82v-6.06c0-2.36 1.28-3.52 3.14-3.52 1.84 0 3.06 1.14 3.06 3.38v6.2zm4.773 0h1.82v-10.96h-1.82V337zm.94-12.74c.66 0 1.2-.54 1.2-1.24s-.54-1.24-1.2-1.24c-.7 0-1.24.54-1.24 1.24s.54 1.24 1.24 1.24z" fill="#fff"/><rect x="412.5" y="398.5" width="201" height="129" rx="3.5" stroke="#004F89"/><rect x="394" y="406" width="212" height="130" rx="4" fill="#FF912C"/><path d="M406.385 442.74V448h1.82v-5.26l4.54-8.68h-2.02l-3.44 7.06-3.44-7.06h-2.02l4.56 8.68zm12.94-4.34c1.88 0 3.48 1.18 3.46 3.32h-6.92c.2-2.14 1.68-3.32 3.46-3.32zm5.12 6.22h-1.96c-.4 1.18-1.44 2.02-3.08 2.02-1.86 0-3.42-1.22-3.56-3.44h8.76c.04-.38.06-.7.06-1.1 0-3-2.08-5.24-5.26-5.24-3.2 0-5.42 2.18-5.42 5.64 0 3.48 2.3 5.68 5.42 5.68 2.72 0 4.48-1.56 5.04-3.56zm4.442-2.58c0-2.54 1.32-3.32 3.06-3.32h.48v-1.88c-1.74 0-2.92.76-3.54 1.98v-1.78h-1.82V448h1.82v-5.96zM440.26 445c0 2.2 1.1 3 3.04 3h1.64v-1.54h-1.34c-1.12 0-1.52-.38-1.52-1.46v-6.46h2.86v-1.5h-2.86v-2.76h-1.82v2.76h-1.42v1.5h1.42V445zm11.545 1.64c-1.88 0-3.48-1.18-3.46-3.32h6.92c-.2 2.14-1.68 3.32-3.46 3.32zm-.08 1.54c3.2 0 5.42-2.18 5.42-5.64 0-3.48-2.3-5.68-5.42-5.68-2.72 0-4.48 1.56-5.04 3.56h1.96c.4-1.18 1.44-2.02 3.08-2.02 1.86 0 3.42 1.22 3.56 3.44h-8.76c-.04.38-.06.7-.06 1.1 0 3 2.08 5.24 5.26 5.24zm7.823-.18h1.82v-4.84l4.3 4.84h2.48l-5.18-5.5 5.16-5.46h-2.54l-4.22 4.86v-8.7h-1.82V448zm10.293 0h1.82v-10.96h-1.82V448zm.94-12.74c.66 0 1.2-.54 1.2-1.24s-.54-1.24-1.2-1.24c-.7 0-1.24.54-1.24 1.24s.54 1.24 1.24 1.24zm9.654 12.74h1.82v-9.46h2.3v-1.5h-2.3v-.78c0-1.42.54-2.02 2.18-2.02v-1.52c-2.8 0-4 1.1-4 3.54v.78h-1.42v1.5h1.42V448zm10.902-1.36c-1.88 0-3.48-1.18-3.46-3.32h6.92c-.2 2.14-1.68 3.32-3.46 3.32zm-.08 1.54c3.2 0 5.42-2.18 5.42-5.64 0-3.48-2.3-5.68-5.42-5.68-2.72 0-4.48 1.56-5.04 3.56h1.96c.4-1.18 1.44-2.02 3.08-2.02 1.86 0 3.42 1.22 3.56 3.44h-8.76c-.04.38-.06.7-.06 1.1 0 3 2.08 5.24 5.26 5.24zm7.142-5.7c0 3.4 2.26 5.7 5.18 5.7 2.02 0 3.44-1.04 4.1-2.22V448h1.84v-10.96h-1.84v2c-.64-1.14-2.04-2.18-4.08-2.18-2.94 0-5.2 2.2-5.2 5.62zm9.28.02c0 2.58-1.72 4.08-3.72 4.08s-3.7-1.52-3.7-4.1c0-2.58 1.7-4.04 3.7-4.04s3.72 1.52 3.72 4.06zm4.916 5.5h1.82v-14.8h-1.82V448zm4.922 0h1.82v-10.96h-1.82V448zm.94-12.74c.66 0 1.2-.54 1.2-1.24s-.54-1.24-1.2-1.24c-.7 0-1.24.54-1.24 1.24s.54 1.24 1.24 1.24zm8.141 10.66l-3.44-8.88h-2.02l4.42 10.84-2.16 5.28h1.88l6.6-16.12h-1.88l-3.4 8.88zm11.27 0l-3.44-8.88h-2.02l4.42 10.84-2.16 5.28h1.88l6.6-16.12h-1.88l-3.4 8.88zm11.77.72c-1.88 0-3.48-1.18-3.46-3.32h6.92c-.2 2.14-1.68 3.32-3.46 3.32zm-.08 1.54c3.2 0 5.42-2.18 5.42-5.64 0-3.48-2.3-5.68-5.42-5.68-2.72 0-4.48 1.56-5.04 3.56h1.96c.4-1.18 1.44-2.02 3.08-2.02 1.86 0 3.42 1.22 3.56 3.44h-8.76c-.04.38-.06.7-.06 1.1 0 3 2.079 5.24 5.26 5.24zm8.222-3.18c0 2.2 1.1 3 3.04 3h1.64v-1.54h-1.34c-1.12 0-1.52-.38-1.52-1.46v-6.46h2.86v-1.5h-2.86v-2.76h-1.82v2.76h-1.42v1.5h1.42V445zm6.885 3h1.82v-10.96h-1.82V448zm.94-12.74c.66 0 1.2-.54 1.2-1.24s-.54-1.24-1.2-1.24c-.7 0-1.24.54-1.24 1.24s.54 1.24 1.24 1.24zM577.607 448h1.8v-6.46c0-3.14-1.94-4.7-4.48-4.7-1.48 0-2.8.62-3.52 1.76v-1.56h-1.82V448h1.82v-6.06c0-2.36 1.28-3.52 3.14-3.52 1.84 0 3.06 1.14 3.06 3.38v6.2zm4.773 0h1.82v-10.96h-1.82V448zm.94-12.74c.66 0 1.2-.54 1.2-1.24s-.54-1.24-1.2-1.24c-.7 0-1.24.54-1.24 1.24s.54 1.24 1.24 1.24zM595.322 448h1.8v-6.46c0-3.14-1.94-4.7-4.48-4.7-1.48 0-2.8.62-3.52 1.76v-1.56h-1.82V448h1.82v-6.06c0-2.36 1.28-3.52 3.14-3.52 1.84 0 3.06 1.14 3.06 3.38v6.2zm-183.323 27c0 2.2 1.1 3 3.04 3h1.64v-1.54h-1.34c-1.12 0-1.52-.38-1.52-1.46v-6.46h2.86v-1.5h-2.86v-2.76h-1.82v2.76h-1.42v1.5h1.42V475zm11.545 1.64c-1.88 0-3.48-1.18-3.46-3.32h6.92c-.2 2.14-1.68 3.32-3.46 3.32zm-.08 1.54c3.2 0 5.42-2.18 5.42-5.64 0-3.48-2.3-5.68-5.42-5.68-2.72 0-4.48 1.56-5.04 3.56h1.96c.4-1.18 1.44-2.02 3.08-2.02 1.86 0 3.42 1.22 3.56 3.44h-8.76c-.04.38-.06.7-.06 1.1 0 3 2.08 5.24 5.26 5.24zm15.842-.18h1.8v-6.46c0-3.14-1.94-4.7-4.48-4.7-1.48 0-2.8.62-3.52 1.76v-1.56h-1.82V478h1.82v-6.06c0-2.36 1.28-3.52 3.14-3.52 1.84 0 3.06 1.14 3.06 3.38v6.2zm11.473-10.96h-7.38v1.48h5.28l-5.32 7.98v1.5h7.46v-1.5h-5.38l5.34-7.98v-1.48zm2.402 10.96h1.82v-10.96h-1.82V478zm.94-12.74c.66 0 1.2-.54 1.2-1.24s-.54-1.24-1.2-1.24c-.7 0-1.24.54-1.24 1.24s.54 1.24 1.24 1.24zM473.923 478h1.8v-6.46c0-3.14-1.94-4.7-4.44-4.7-1.68 0-3.24.86-3.88 2.44-.72-1.64-2.22-2.44-4.02-2.44-1.44 0-2.74.62-3.46 1.78v-1.58h-1.82V478h1.82v-6.04c0-2.36 1.26-3.54 3.1-3.54 1.8 0 3 1.14 3 3.38v6.2h1.8v-6.04c0-2.36 1.26-3.54 3.1-3.54 1.8 0 3 1.14 3 3.38v6.2zm4.785 0h1.82v-14.8h-1.82V478zm9.582-1.36c-1.88 0-3.48-1.18-3.46-3.32h6.92c-.2 2.14-1.68 3.32-3.46 3.32zm-.08 1.54c3.2 0 5.42-2.18 5.42-5.64 0-3.48-2.3-5.68-5.42-5.68-2.72 0-4.48 1.56-5.04 3.56h1.96c.4-1.18 1.44-2.02 3.08-2.02 1.86 0 3.42 1.22 3.56 3.44h-8.76c-.04.38-.06.7-.06 1.1 0 3 2.08 5.24 5.26 5.24zm15.842-.18h1.8v-6.46c0-3.14-1.94-4.7-4.48-4.7-1.48 0-2.8.62-3.52 1.76v-1.56h-1.82V478h1.82v-6.06c0-2.36 1.28-3.52 3.14-3.52 1.84 0 3.06 1.14 3.06 3.38v6.2zm20.593 0h1.8v-6.46c0-3.14-1.94-4.7-4.44-4.7-1.68 0-3.24.86-3.88 2.44-.72-1.64-2.22-2.44-4.02-2.44-1.44 0-2.74.62-3.46 1.78v-1.58h-1.82V478h1.82v-6.04c0-2.36 1.26-3.54 3.1-3.54 1.8 0 3 1.14 3 3.38v6.2h1.8v-6.04c0-2.36 1.26-3.54 3.1-3.54 1.8 0 3 1.14 3 3.38v6.2zm9.446-1.36c-1.88 0-3.48-1.18-3.46-3.32h6.92c-.2 2.14-1.68 3.32-3.46 3.32zm-.08 1.54c3.2 0 5.42-2.18 5.42-5.64 0-3.48-2.3-5.68-5.42-5.68-2.72 0-4.48 1.56-5.04 3.56h1.96c.4-1.18 1.44-2.02 3.08-2.02 1.86 0 3.42 1.22 3.56 3.44h-8.76c-.04.38-.06.7-.06 1.1 0 3 2.08 5.24 5.26 5.24zm15.702-3.16c-.08-3.92-6.44-2.5-6.44-5.1 0-.88.8-1.52 2.14-1.52 1.46 0 2.3.8 2.38 1.9h1.82c-.12-2.14-1.72-3.44-4.14-3.44-2.44 0-4.02 1.38-4.02 3.06 0 4.08 6.48 2.66 6.48 5.1 0 .9-.8 1.62-2.24 1.62-1.54 0-2.48-.8-2.58-1.86h-1.88c.12 2 1.92 3.4 4.48 3.4 2.42 0 4-1.36 4-3.16zm2.569 2.98h1.82v-10.96h-1.82V478zm.94-12.74c.66 0 1.2-.54 1.2-1.24s-.54-1.24-1.2-1.24c-.7 0-1.24.54-1.24 1.24s.54 1.24 1.24 1.24zm8.014 1.78l4.3 10.96h2.12l4.3-10.96h-1.94l-3.4 9.28-3.42-9.28h-1.96zm17.171 9.6c-1.88 0-3.48-1.18-3.46-3.32h6.92c-.2 2.14-1.68 3.32-3.46 3.32zm-.08 1.54c3.2 0 5.42-2.18 5.42-5.64 0-3.48-2.3-5.68-5.42-5.68-2.72 0-4.48 1.56-5.04 3.56h1.96c.4-1.18 1.44-2.02 3.08-2.02 1.86 0 3.42 1.22 3.56 3.44h-8.76c-.04.38-.06.7-.06 1.1 0 3 2.08 5.24 5.26 5.24zM437.148 508h1.8v-6.46c0-3.14-1.94-4.7-4.48-4.7-1.48 0-2.8.62-3.52 1.76v-1.56h-1.82V508h1.82v-6.06c0-2.36 1.28-3.52 3.14-3.52 1.84 0 3.06 1.14 3.06 3.38v6.2zm9.433-1.36c-1.88 0-3.48-1.18-3.46-3.32h6.92c-.2 2.14-1.68 3.32-3.46 3.32zm-.08 1.54c3.2 0 5.42-2.18 5.42-5.64 0-3.48-2.3-5.68-5.42-5.68-2.72 0-4.48 1.56-5.04 3.56h1.96c.4-1.18 1.44-2.02 3.08-2.02 1.86 0 3.42 1.22 3.56 3.44h-8.76c-.04.38-.06.7-.06 1.1 0 3 2.08 5.24 5.26 5.24zm14.522-11.14h-7.38v1.48h5.28l-5.32 7.98v1.5h7.46v-1.5h-5.38l5.34-7.98v-1.48zm1.722 5.44c0 3.4 2.26 5.7 5.18 5.7 2.02 0 3.44-1.04 4.1-2.22V508h1.84v-10.96h-1.84v2c-.64-1.14-2.04-2.18-4.08-2.18-2.94 0-5.2 2.2-5.2 5.62zm9.28.02c0 2.58-1.72 4.08-3.72 4.08s-3.7-1.52-3.7-4.1c0-2.58 1.7-4.04 3.7-4.04s3.72 1.52 3.72 4.06zm6.735-.46c0-2.54 1.32-3.32 3.06-3.32h.48v-1.88c-1.74 0-2.92.76-3.54 1.98v-1.78h-1.82V508h1.82v-5.96zm10.301 4.6c-1.88 0-3.48-1.18-3.46-3.32h6.92c-.2 2.14-1.68 3.32-3.46 3.32zm-.08 1.54c3.2 0 5.42-2.18 5.42-5.64 0-3.48-2.3-5.68-5.42-5.68-2.72 0-4.48 1.56-5.04 3.56h1.96c.4-1.18 1.44-2.02 3.08-2.02 1.86 0 3.42 1.22 3.56 3.44h-8.76c-.04.38-.06.7-.06 1.1 0 3 2.08 5.24 5.26 5.24zm8.223-3.18c0 2.2 1.1 3 3.04 3h1.64v-1.54h-1.34c-1.12 0-1.52-.38-1.52-1.46v-6.46h2.86v-1.5h-2.86v-2.76h-1.82v2.76h-1.42v1.5h1.42V505zm20.097.02c-.08-3.92-6.44-2.5-6.44-5.1 0-.88.8-1.52 2.14-1.52 1.46 0 2.3.8 2.38 1.9h1.82c-.12-2.14-1.72-3.44-4.14-3.44-2.44 0-4.02 1.38-4.02 3.06 0 4.08 6.48 2.66 6.48 5.1 0 .9-.8 1.62-2.24 1.62-1.54 0-2.48-.8-2.58-1.86h-1.88c.1 1.8 1.58 3.12 3.74 3.36v2.14h1c.86 0 1.28.24 1.28.86 0 .64-.42.88-1.28.88h-1.94v1.18h2.3c1.42 0 2.44-.8 2.44-2.06 0-1.32-1.04-2-2.58-1.98v-1c2.14-.16 3.52-1.46 3.52-3.14zm12.969-2.52c0-3.46-2.42-5.64-5.54-5.64-3.1 0-5.54 2.18-5.54 5.64 0 3.48 2.36 5.68 5.46 5.68 3.12 0 5.62-2.2 5.62-5.68zm-9.22 0c0-2.76 1.74-4.06 3.66-4.06 1.88 0 3.7 1.3 3.7 4.06 0 2.78-1.86 4.08-3.76 4.08-1.9 0-3.6-1.3-3.6-4.08zm2.08-7.08c.56 0 1.04-.46 1.04-1.04 0-.58-.48-1.06-1.04-1.06-.6 0-1.06.48-1.06 1.06 0 .58.46 1.04 1.06 1.04zm3.24 0c.58 0 1.06-.46 1.06-1.04 0-.58-.48-1.06-1.06-1.06-.6 0-1.04.48-1.04 1.06 0 .58.44 1.04 1.04 1.04zm8.113 3.66v-5.88h-1.82V508h1.82v-2.02c.68 1.2 2.1 2.2 4.1 2.2 2.94 0 5.2-2.3 5.2-5.7 0-3.42-2.24-5.62-5.2-5.62-1.94 0-3.4 1-4.1 2.22zm7.44 3.4c0 2.58-1.7 4.1-3.72 4.1-1.98 0-3.72-1.5-3.72-4.08 0-2.54 1.74-4.06 3.72-4.06 2.02 0 3.72 1.46 3.72 4.04zm8.916 4.16c-1.88 0-3.48-1.18-3.46-3.32h6.92c-.2 2.14-1.68 3.32-3.46 3.32zm-.08 1.54c3.2 0 5.42-2.18 5.42-5.64 0-3.48-2.3-5.68-5.42-5.68-2.72 0-4.48 1.56-5.04 3.56h1.96c.4-1.18 1.44-2.02 3.08-2.02 1.86 0 3.42 1.22 3.56 3.44h-8.76c-.04.38-.06.7-.06 1.1 0 3 2.08 5.24 5.26 5.24zm15.702-3.16c-.08-3.92-6.44-2.5-6.44-5.1 0-.88.8-1.52 2.14-1.52 1.46 0 2.3.8 2.38 1.9h1.82c-.12-2.14-1.72-3.44-4.14-3.44-2.44 0-4.02 1.38-4.02 3.06 0 4.08 6.48 2.66 6.48 5.1 0 .9-.8 1.62-2.24 1.62-1.54 0-2.48-.8-2.58-1.86h-1.88c.12 2 1.92 3.4 4.48 3.4 2.42 0 4-1.36 4-3.16zm2.569 2.98h1.82v-10.96h-1.82V508zm.94-12.74c.66 0 1.2-.54 1.2-1.24s-.54-1.24-1.2-1.24c-.7 0-1.24.54-1.24 1.24s.54 1.24 1.24 1.24z" fill="#fff"/><rect x="11.5" y="398.5" width="201" height="96" rx="3.5" stroke="#004F89"/><rect y="406" width="205" height="100" rx="4" fill="#FF912C"/><path d="M22.86 433.9c-3.92 0-7 2.94-7 7.12s3.08 7.1 7 7.1c3.78 0 6.52-2.78 6.84-6.24v-1.4h-7.5v1.48h5.56c-.28 2.76-2.16 4.52-4.9 4.52-2.94 0-5.14-2.12-5.14-5.46 0-3.36 2.2-5.48 5.14-5.48 1.96 0 3.48.94 4.24 2.56h2.18c-1.04-2.68-3.48-4.2-6.42-4.2zm13.906 4.5c1.88 0 3.48 1.18 3.46 3.32h-6.92c.2-2.14 1.68-3.32 3.46-3.32zm5.12 6.22h-1.96c-.4 1.18-1.44 2.02-3.08 2.02-1.86 0-3.42-1.22-3.56-3.44h8.76c.04-.38.06-.7.06-1.1 0-3-2.08-5.24-5.26-5.24-3.2 0-5.42 2.18-5.42 5.64 0 3.48 2.3 5.68 5.42 5.68 2.72 0 4.48-1.56 5.04-3.56zm13.023-2.12c0-3.46-2.42-5.64-5.54-5.64-3.1 0-5.54 2.18-5.54 5.64 0 3.48 2.36 5.68 5.46 5.68 3.12 0 5.62-2.2 5.62-5.68zm-9.22 0c0-2.76 1.74-4.06 3.66-4.06 1.88 0 3.7 1.3 3.7 4.06 0 2.78-1.86 4.08-3.76 4.08-1.9 0-3.6-1.3-3.6-4.08zm11.613 5.5h1.82v-14.8h-1.82V448zm15.322-5.5c0-3.46-2.42-5.64-5.54-5.64-3.1 0-5.54 2.18-5.54 5.64 0 3.48 2.36 5.68 5.46 5.68 3.12 0 5.62-2.2 5.62-5.68zm-9.22 0c0-2.76 1.74-4.06 3.66-4.06 1.88 0 3.7 1.3 3.7 4.06 0 2.78-1.86 4.08-3.76 4.08-1.9 0-3.6-1.3-3.6-4.08zm12.593-7.24c.68 0 1.22-.54 1.22-1.24s-.54-1.24-1.22-1.24c-.68 0-1.22.54-1.22 1.24s.54 1.24 1.22 1.24zm-.92 1.78v13.3c0 .96-.38 1.32-1.38 1.32h-.76v1.54h1.06c1.86 0 2.9-.84 2.9-2.82v-13.34h-1.82zm4.9 10.96h1.82v-10.96h-1.82V448zm.94-12.74c.66 0 1.2-.54 1.2-1.24s-.54-1.24-1.2-1.24c-.7 0-1.24.54-1.24 1.24s.54 1.24 1.24 1.24zm13.974 3.14c1.88 0 3.48 1.18 3.46 3.32h-6.92c.2-2.14 1.68-3.32 3.46-3.32zm5.12 6.22h-1.96c-.4 1.18-1.44 2.02-3.08 2.02-1.86 0-3.42-1.22-3.56-3.44h8.76c.04-.38.06-.7.06-1.1 0-3-2.08-5.24-5.26-5.24-3.2 0-5.42 2.18-5.42 5.64 0 3.48 2.3 5.68 5.42 5.68 2.72 0 4.48-1.56 5.04-3.56zm2.623 3.38h1.82v-4.84l4.3 4.84h2.48l-5.18-5.5 5.16-5.46h-2.54l-4.22 4.86v-8.7h-1.82V448zm18.173-2.98c-.08-3.92-6.44-2.5-6.44-5.1 0-.88.8-1.52 2.14-1.52 1.46 0 2.3.8 2.38 1.9h1.82c-.12-2.14-1.72-3.44-4.14-3.44-2.44 0-4.02 1.38-4.02 3.06 0 4.08 6.48 2.66 6.48 5.1 0 .9-.8 1.62-2.24 1.62-1.54 0-2.48-.8-2.58-1.86h-1.88c.12 2 1.92 3.4 4.48 3.4 2.42 0 4-1.36 4-3.16zm4.389-5.96v-2.02h-1.82v16.16h1.82v-7.22c.68 1.12 2.1 2.2 4.1 2.2 2.94 0 5.2-2.3 5.2-5.7 0-3.42-2.26-5.62-5.2-5.62-2 0-3.44 1.04-4.1 2.2zm7.44 3.42c0 2.58-1.7 4.1-3.72 4.1-1.98 0-3.72-1.5-3.72-4.08 0-2.54 1.74-4.06 3.72-4.06 2.02 0 3.72 1.46 3.72 4.04zm8.916-4.08c1.88 0 3.48 1.18 3.46 3.32h-6.92c.2-2.14 1.68-3.32 3.46-3.32zm5.12 6.22h-1.96c-.4 1.18-1.44 2.02-3.08 2.02-1.86 0-3.42-1.22-3.56-3.44h8.76c.04-.38.06-.7.06-1.1 0-3-2.08-5.24-5.26-5.24-3.2 0-5.42 2.18-5.42 5.64 0 3.48 2.3 5.68 5.42 5.68 2.72 0 4.48-1.56 5.04-3.56zm4.442-2.58c0-2.54 1.32-3.32 3.06-3.32h.48v-1.88c-1.74 0-2.92.76-3.54 1.98v-1.78h-1.82V448h1.82v-5.96zm6.041 2.96c0 2.2 1.1 3 3.04 3h1.64v-1.54h-1.34c-1.12 0-1.52-.38-1.52-1.46v-6.46h2.86v-1.5h-2.86v-2.76h-1.82v2.76h-1.42v1.5h1.42V445zm6.885 3h1.82v-10.96h-1.82V448zm.94-12.74c.66 0 1.2-.54 1.2-1.24s-.54-1.24-1.2-1.24c-.7 0-1.24.54-1.24 1.24s.54 1.24 1.24 1.24zm10.682 1.78h-7.38v1.48h5.28l-5.32 7.98v1.5h7.46v-1.5h-5.38l5.34-7.98v-1.48zm1.721 5.44c0 3.4 2.26 5.7 5.18 5.7 2.02 0 3.44-1.04 4.1-2.22V448h1.84v-10.96h-1.84v2c-.64-1.14-2.04-2.18-4.08-2.18-2.94 0-5.2 2.2-5.2 5.62zm9.28.02c0 2.58-1.72 4.08-3.72 4.08s-3.7-1.52-3.7-4.1c0-2.58 1.7-4.04 3.7-4.04s3.72 1.52 3.72 4.06zM15.24 467.04l4.3 10.96h2.12l4.3-10.96h-1.94l-3.4 9.28-3.42-9.28h-1.96zm17.17 9.6c-1.88 0-3.48-1.18-3.46-3.32h6.92c-.2 2.14-1.68 3.32-3.46 3.32zm-.08 1.54c3.2 0 5.42-2.18 5.42-5.64 0-3.48-2.3-5.68-5.42-5.68-2.72 0-4.48 1.56-5.04 3.56h1.96c.4-1.18 1.44-2.02 3.08-2.02 1.86 0 3.42 1.22 3.56 3.44h-8.76c-.04.38-.06.7-.06 1.1 0 3 2.08 5.24 5.26 5.24zm14.975-6.14c0-2.54 1.32-3.32 3.06-3.32h.48v-1.88c-1.74 0-2.92.76-3.54 1.98v-1.78h-1.82V478h1.82v-5.96zm10.301-3.64c1.88 0 3.48 1.18 3.46 3.32h-6.92c.2-2.14 1.68-3.32 3.46-3.32zm5.12 6.22h-1.96c-.4 1.18-1.44 2.02-3.08 2.02-1.86 0-3.42-1.22-3.56-3.44h8.76c.04-.38.06-.7.06-1.1 0-3-2.08-5.24-5.26-5.24-3.2 0-5.42 2.18-5.42 5.64 0 3.48 2.3 5.68 5.42 5.68 2.72 0 4.48-1.56 5.04-3.56zm6.783 1.3l-3.44-8.88h-2.02l4.42 10.84-2.16 5.28h1.88l6.6-16.12h-1.88l-3.4 8.88zm11.77-7.52c1.88 0 3.48 1.18 3.46 3.32h-6.92c.2-2.14 1.68-3.32 3.46-3.32zm5.12 6.22h-1.96c-.4 1.18-1.44 2.02-3.08 2.02-1.86 0-3.42-1.22-3.56-3.44h8.76c.04-.38.06-.7.06-1.1 0-3-2.08-5.24-5.26-5.24-3.2 0-5.42 2.18-5.42 5.64 0 3.48 2.3 5.68 5.42 5.68 2.72 0 4.48-1.56 5.04-3.56zm10.501.4c-.08-3.92-6.44-2.5-6.44-5.1 0-.88.8-1.52 2.14-1.52 1.46 0 2.3.8 2.38 1.9h1.82c-.12-2.14-1.72-3.44-4.14-3.44-2.44 0-4.02 1.38-4.02 3.06 0 4.08 6.48 2.66 6.48 5.1 0 .9-.8 1.62-2.24 1.62-1.54 0-2.48-.8-2.58-1.86h-1.88c.12 2 1.92 3.4 4.48 3.4 2.42 0 4-1.36 4-3.16zm2.97-.02c0 2.2 1.1 3 3.04 3h1.64v-1.54h-1.34c-1.12 0-1.52-.38-1.52-1.46v-6.46h2.86v-1.5h-2.86v-2.76h-1.82v2.76h-1.42v1.5h1.42V475zm8.705-2.96c0-2.54 1.32-3.32 3.06-3.32h.48v-1.88c-1.74 0-2.92.76-3.54 1.98v-1.78h-1.82V478h1.82v-5.96zm18.853 2.98c-.08-3.92-6.44-2.5-6.44-5.1 0-.88.8-1.52 2.14-1.52 1.46 0 2.3.8 2.38 1.9h1.82c-.12-2.14-1.72-3.44-4.14-3.44-2.44 0-4.02 1.38-4.02 3.06 0 4.08 6.48 2.66 6.48 5.1 0 .9-.8 1.62-2.24 1.62-1.54 0-2.48-.8-2.58-1.86h-1.88c.1 1.8 1.58 3.12 3.74 3.36v2.14h1c.86 0 1.28.24 1.28.86 0 .64-.42.88-1.28.88h-1.94v1.18h2.3c1.42 0 2.44-.8 2.44-2.06 0-1.32-1.04-2-2.58-1.98v-1c2.14-.16 3.52-1.46 3.52-3.14zm12.969-2.52c0-3.46-2.42-5.64-5.54-5.64-3.1 0-5.54 2.18-5.54 5.64 0 3.48 2.36 5.68 5.46 5.68 3.12 0 5.62-2.2 5.62-5.68zm-9.22 0c0-2.76 1.74-4.06 3.66-4.06 1.88 0 3.7 1.3 3.7 4.06 0 2.78-1.86 4.08-3.76 4.08-1.9 0-3.6-1.3-3.6-4.08zm2.08-7.08c.56 0 1.04-.46 1.04-1.04 0-.58-.48-1.06-1.04-1.06-.6 0-1.06.48-1.06 1.06 0 .58.46 1.04 1.06 1.04zm3.24 0c.58 0 1.06-.46 1.06-1.04 0-.58-.48-1.06-1.06-1.06-.6 0-1.04.48-1.04 1.06 0 .58.44 1.04 1.04 1.04zm8.113 3.66v-5.88h-1.82V478h1.82v-2.02c.68 1.2 2.1 2.2 4.1 2.2 2.94 0 5.2-2.3 5.2-5.7 0-3.42-2.24-5.62-5.2-5.62-1.94 0-3.4 1-4.1 2.22zm7.44 3.4c0 2.58-1.7 4.1-3.72 4.1-1.98 0-3.72-1.5-3.72-4.08 0-2.54 1.74-4.06 3.72-4.06 2.02 0 3.72 1.46 3.72 4.04zm8.916 4.16c-1.88 0-3.48-1.18-3.46-3.32h6.92c-.2 2.14-1.68 3.32-3.46 3.32zm-.08 1.54c3.2 0 5.42-2.18 5.42-5.64 0-3.48-2.3-5.68-5.42-5.68-2.72 0-4.48 1.56-5.04 3.56h1.96c.4-1.18 1.44-2.02 3.08-2.02 1.86 0 3.42 1.22 3.56 3.44h-8.76c-.04.38-.06.7-.06 1.1 0 3 2.08 5.24 5.26 5.24zm15.702-3.16c-.08-3.92-6.44-2.5-6.44-5.1 0-.88.8-1.52 2.14-1.52 1.46 0 2.3.8 2.38 1.9h1.82c-.12-2.14-1.72-3.44-4.14-3.44-2.44 0-4.02 1.38-4.02 3.06 0 4.08 6.48 2.66 6.48 5.1 0 .9-.8 1.62-2.24 1.62-1.54 0-2.48-.8-2.58-1.86h-1.88c.12 2 1.92 3.4 4.48 3.4 2.42 0 4-1.36 4-3.16zm2.569 2.98h1.82v-10.96h-1.82V478zm.94-12.74c.66 0 1.2-.54 1.2-1.24s-.54-1.24-1.2-1.24c-.7 0-1.24.54-1.24 1.24s.54 1.24 1.24 1.24z" fill="#fff"/><rect x="526.5" y=".5" width="173" height="63" rx="3.5" stroke="#004F89"/><rect x="509" y="8" width="183" height="57" rx="4" fill="#FF912C"/><path d="M586.6 38.2c0-5.16-7.52-2.92-7.52-6.52 0-1.5 1.18-2.28 2.68-2.24 1.7.02 2.58 1.08 2.7 2.02h2c-.22-2.12-1.96-3.58-4.62-3.58-2.76 0-4.62 1.56-4.62 3.86 0 5.18 7.54 2.78 7.54 6.54 0 1.32-1.04 2.32-2.8 2.32-1.94 0-2.76-1.16-2.88-2.32h-1.94c.04 2.3 2.02 3.86 4.82 3.86 3.02 0 4.64-1.96 4.64-3.94zm7.338 2.44c-1.88 0-3.48-1.18-3.46-3.32h6.92c-.2 2.14-1.68 3.32-3.46 3.32zm-.08 1.54c3.2 0 5.42-2.18 5.42-5.64 0-3.48-2.3-5.68-5.42-5.68-2.72 0-4.48 1.56-5.04 3.56h1.96c.4-1.18 1.44-2.02 3.08-2.02 1.86 0 3.42 1.22 3.56 3.44h-8.76c-.04.38-.06.7-.06 1.1 0 3 2.08 5.24 5.26 5.24zm7.143-5.7c0 3.4 2.26 5.7 5.2 5.7 2 0 3.42-1.02 4.08-2.24V42h1.84V27.2h-1.84V33c-.76-1.26-2.34-2.14-4.06-2.14-2.96 0-5.22 2.2-5.22 5.62zm9.28.02c0 2.58-1.72 4.08-3.72 4.08s-3.7-1.52-3.7-4.1c0-2.58 1.7-4.04 3.7-4.04s3.72 1.52 3.72 4.06zm6.735-.46c0-2.54 1.32-3.32 3.06-3.32h.48v-1.88c-1.74 0-2.92.76-3.54 1.98v-1.78h-1.82V42h1.82v-5.96z" fill="#fff"/><rect x="979.5" y="584.5" width="272" height="96" rx="3.5" stroke="#004F89"/><rect x="970" y="592" width="274" height="100" rx="4" fill="#FF912C"/><path d="M1006.98 634h1.82v-10.34l4.62 10.34h1.28l4.6-10.32V634h1.82v-13.84h-1.94l-5.12 11.44-5.12-11.44h-1.96V634zm16.55-5.52c0 3.4 2.26 5.7 5.18 5.7 2.02 0 3.44-1.04 4.1-2.22V634h1.84v-10.96h-1.84v2c-.64-1.14-2.04-2.18-4.08-2.18-2.94 0-5.2 2.2-5.2 5.62zm9.28.02c0 2.58-1.72 4.08-3.72 4.08s-3.7-1.52-3.7-4.1c0-2.58 1.7-4.04 3.7-4.04s3.72 1.52 3.72 4.06zm4.91 5.5h1.82v-14.8h-1.82V634zm4.92 0h1.82v-10.96h-1.82V634zm.94-12.74c.66 0 1.2-.54 1.2-1.24s-.54-1.24-1.2-1.24c-.7 0-1.24.54-1.24 1.24s.54 1.24 1.24 1.24zm8.15 10.66l-3.44-8.88h-2.02l4.42 10.84-2.16 5.28h1.88l6.6-16.12h-1.88l-3.4 8.88zm11.76.72c-1.88 0-3.48-1.18-3.46-3.32h6.92c-.2 2.14-1.68 3.32-3.46 3.32zm-.08 1.54c3.2 0 5.42-2.18 5.42-5.64 0-3.48-2.3-5.68-5.42-5.68-2.72 0-4.48 1.56-5.04 3.56h1.96c.4-1.18 1.44-2.02 3.08-2.02 1.86 0 3.42 1.22 3.56 3.44h-8.76c-.04.38-.06.7-.06 1.1 0 3 2.08 5.24 5.26 5.24zm6.25 2.68h1.22l2.24-5.38h-2l-1.46 5.38zm18.75-5.84c-.08-3.92-6.44-2.5-6.44-5.1 0-.88.8-1.52 2.14-1.52 1.46 0 2.3.8 2.38 1.9h1.82c-.12-2.14-1.72-3.44-4.14-3.44-2.44 0-4.02 1.38-4.02 3.06 0 4.08 6.48 2.66 6.48 5.1 0 .9-.8 1.62-2.24 1.62-1.54 0-2.48-.8-2.58-1.86h-1.88c.12 2 1.92 3.4 4.48 3.4 2.42 0 4-1.36 4-3.16zm2.97-.02c0 2.2 1.1 3 3.04 3h1.64v-1.54h-1.34c-1.12 0-1.52-.38-1.52-1.46v-6.46h2.86v-1.5h-2.86v-2.76h-1.82v2.76h-1.42v1.5h1.42V631zm8.71-2.96c0-2.54 1.32-3.32 3.06-3.32h.48v-1.88c-1.74 0-2.92.76-3.54 1.98v-1.78h-1.82V634h1.82v-5.96zm4.96.44c0 3.4 2.26 5.7 5.18 5.7 2.02 0 3.44-1.04 4.1-2.22V634h1.84v-10.96h-1.84v2c-.64-1.14-2.04-2.18-4.08-2.18-2.94 0-5.2 2.2-5.2 5.62zm9.28.02c0 2.58-1.72 4.08-3.72 4.08s-3.7-1.52-3.7-4.1c0-2.58 1.7-4.04 3.7-4.04s3.72 1.52 3.72 4.06zm5.32 2.5c0 2.2 1.1 3 3.04 3h1.64v-1.54h-1.34c-1.12 0-1.52-.38-1.52-1.46v-6.46h2.86v-1.5h-2.86v-2.76h-1.82v2.76h-1.42v1.5h1.42V631zm11.54-6.6c1.88 0 3.48 1.18 3.46 3.32h-6.92c.2-2.14 1.68-3.32 3.46-3.32zm5.12 6.22h-1.96c-.4 1.18-1.44 2.02-3.08 2.02-1.86 0-3.42-1.22-3.56-3.44h8.76c.04-.38.06-.7.06-1.1 0-3-2.08-5.24-5.26-5.24-3.2 0-5.42 2.18-5.42 5.64 0 3.48 2.3 5.68 5.42 5.68 2.72 0 4.48-1.56 5.04-3.56zm1.94-2.14c0 3.4 2.26 5.7 5.2 5.7 2 0 3.42-1.06 4.08-2.24v2.3c0 2.34-1.46 3.58-3.4 3.58-1.8 0-3.1-.9-3.5-2.22h-1.8c.36 2.34 2.42 3.8 5.3 3.8 3.22 0 5.24-2.14 5.24-5.16v-11.2h-1.84v2c-.64-1.18-2.08-2.18-4.08-2.18-2.94 0-5.2 2.2-5.2 5.62zm9.28.02c0 2.58-1.72 4.08-3.72 4.08s-3.7-1.52-3.7-4.1c0-2.58 1.7-4.04 3.7-4.04s3.72 1.52 3.72 4.06zm4.92 5.5h1.82v-10.96h-1.82V634zm.94-12.74c.66 0 1.2-.54 1.2-1.24s-.54-1.24-1.2-1.24c-.7 0-1.24.54-1.24 1.24s.54 1.24 1.24 1.24zm8.14 10.66l-3.44-8.88h-2.02l4.42 10.84-2.16 5.28h1.88l6.6-16.12h-1.88l-3.4 8.88zm6.43-3.44c0 3.4 2.26 5.7 5.18 5.7 2.02 0 3.44-1.04 4.1-2.22V634h1.84v-10.96h-1.84v2c-.64-1.14-2.04-2.18-4.08-2.18-2.94 0-5.2 2.2-5.2 5.62zm9.28.02c0 2.58-1.72 4.08-3.72 4.08s-3.7-1.52-3.7-4.1c0-2.58 1.7-4.04 3.7-4.04s3.72 1.52 3.72 4.06zm8.95-5.46l4.3 10.96h2.12l4.3-10.96h-1.94l-3.4 9.28-3.42-9.28h-1.96zm17.17 9.6c-1.88 0-3.48-1.18-3.46-3.32h6.92c-.2 2.14-1.68 3.32-3.46 3.32zm-.08 1.54c3.2 0 5.42-2.18 5.42-5.64 0-3.48-2.3-5.68-5.42-5.68-2.72 0-4.48 1.56-5.04 3.56h1.96c.4-1.18 1.44-2.02 3.08-2.02 1.86 0 3.42 1.22 3.56 3.44h-8.76c-.04.38-.06.7-.06 1.1 0 3 2.08 5.24 5.26 5.24zM1038.53 664h1.8v-6.46c0-3.14-1.94-4.7-4.44-4.7-1.68 0-3.24.86-3.88 2.44-.72-1.64-2.22-2.44-4.02-2.44-1.44 0-2.74.62-3.46 1.78v-1.58h-1.82V664h1.82v-6.04c0-2.36 1.26-3.54 3.1-3.54 1.8 0 3 1.14 3 3.38v6.2h1.8v-6.04c0-2.36 1.26-3.54 3.1-3.54 1.8 0 3 1.14 3 3.38v6.2zm4.11-5.52c0 3.4 2.26 5.7 5.18 5.7 2.02 0 3.44-1.04 4.1-2.22V664h1.84v-10.96h-1.84v2c-.64-1.14-2.04-2.18-4.08-2.18-2.94 0-5.2 2.2-5.2 5.62zm9.28.02c0 2.58-1.72 4.08-3.72 4.08s-3.7-1.52-3.7-4.1c0-2.58 1.7-4.04 3.7-4.04s3.72 1.52 3.72 4.06zm6.73-.46c0-2.54 1.32-3.32 3.06-3.32h.48v-1.88c-1.74 0-2.92.76-3.54 1.98v-1.78h-1.82V664h1.82v-5.96zm5.64 5.96h1.82v-4.84l4.3 4.84h2.48l-5.18-5.5 5.16-5.46h-2.54l-4.22 4.86v-8.7h-1.82V664zm14.96-9.6c1.88 0 3.48 1.18 3.46 3.32h-6.92c.2-2.14 1.68-3.32 3.46-3.32zm5.12 6.22h-1.96c-.4 1.18-1.44 2.02-3.08 2.02-1.86 0-3.42-1.22-3.56-3.44h8.76c.04-.38.06-.7.06-1.1 0-3-2.08-5.24-5.26-5.24-3.2 0-5.42 2.18-5.42 5.64 0 3.48 2.3 5.68 5.42 5.68 2.72 0 4.48-1.56 5.04-3.56zm3.02.38c0 2.2 1.1 3 3.04 3h1.64v-1.54h-1.34c-1.12 0-1.52-.38-1.52-1.46v-6.46h2.86v-1.5h-2.86v-2.76h-1.82v2.76h-1.42v1.5h1.42V661zm6.88 3h1.82v-10.96h-1.82V664zm.94-12.74c.66 0 1.2-.54 1.2-1.24s-.54-1.24-1.2-1.24c-.7 0-1.24.54-1.24 1.24s.54 1.24 1.24 1.24zm12.01 12.74h1.8v-6.46c0-3.14-1.94-4.7-4.48-4.7-1.48 0-2.8.62-3.52 1.76v-1.56h-1.82V664h1.82v-6.06c0-2.36 1.28-3.52 3.14-3.52 1.84 0 3.06 1.14 3.06 3.38v6.2zm4.09-5.52c0 3.4 2.26 5.7 5.16 5.7 2.04 0 3.5-1.08 4.12-2.2v7.22h1.84v-16.16h-1.84v2c-.62-1.14-2.06-2.18-4.06-2.18-2.96 0-5.22 2.2-5.22 5.62zm9.28.02c0 2.58-1.72 4.08-3.72 4.08s-3.7-1.52-3.7-4.1c0-2.58 1.7-4.04 3.7-4.04s3.72 1.52 3.72 4.06zm18.13 2.52c-.08-3.92-6.44-2.5-6.44-5.1 0-.88.8-1.52 2.14-1.52 1.46 0 2.3.8 2.38 1.9h1.82c-.12-2.14-1.72-3.44-4.14-3.44-2.44 0-4.02 1.38-4.02 3.06 0 4.08 6.48 2.66 6.48 5.1 0 .9-.8 1.62-2.24 1.62-1.54 0-2.48-.8-2.58-1.86h-1.88c.1 1.8 1.58 3.12 3.74 3.36v2.14h1c.86 0 1.28.24 1.28.86 0 .64-.42.88-1.28.88h-1.94v1.18h2.3c1.42 0 2.44-.8 2.44-2.06 0-1.32-1.04-2-2.58-1.98v-1c2.14-.16 3.52-1.46 3.52-3.14zm12.97-2.52c0-3.46-2.42-5.64-5.54-5.64-3.1 0-5.54 2.18-5.54 5.64 0 3.48 2.36 5.68 5.46 5.68 3.12 0 5.62-2.2 5.62-5.68zm-9.22 0c0-2.76 1.74-4.06 3.66-4.06 1.88 0 3.7 1.3 3.7 4.06 0 2.78-1.86 4.08-3.76 4.08-1.9 0-3.6-1.3-3.6-4.08zm2.08-7.08c.56 0 1.04-.46 1.04-1.04 0-.58-.48-1.06-1.04-1.06-.6 0-1.06.48-1.06 1.06 0 .58.46 1.04 1.06 1.04zm3.24 0c.58 0 1.06-.46 1.06-1.04 0-.58-.48-1.06-1.06-1.06-.6 0-1.04.48-1.04 1.06 0 .58.44 1.04 1.04 1.04zm8.11 3.66v-5.88h-1.82V664h1.82v-2.02c.68 1.2 2.1 2.2 4.1 2.2 2.94 0 5.2-2.3 5.2-5.7 0-3.42-2.24-5.62-5.2-5.62-1.94 0-3.4 1-4.1 2.22zm7.44 3.4c0 2.58-1.7 4.1-3.72 4.1-1.98 0-3.72-1.5-3.72-4.08 0-2.54 1.74-4.06 3.72-4.06 2.02 0 3.72 1.46 3.72 4.04zm8.91 4.16c-1.88 0-3.48-1.18-3.46-3.32h6.92c-.2 2.14-1.68 3.32-3.46 3.32zm-.08 1.54c3.2 0 5.42-2.18 5.42-5.64 0-3.48-2.3-5.68-5.42-5.68-2.72 0-4.48 1.56-5.04 3.56h1.96c.4-1.18 1.44-2.02 3.08-2.02 1.86 0 3.42 1.22 3.56 3.44h-8.76c-.04.38-.06.7-.06 1.1 0 3 2.08 5.24 5.26 5.24zm15.71-3.16c-.08-3.92-6.44-2.5-6.44-5.1 0-.88.8-1.52 2.14-1.52 1.46 0 2.3.8 2.38 1.9h1.82c-.12-2.14-1.72-3.44-4.14-3.44-2.44 0-4.02 1.38-4.02 3.06 0 4.08 6.48 2.66 6.48 5.1 0 .9-.8 1.62-2.24 1.62-1.54 0-2.48-.8-2.58-1.86h-1.88c.12 2 1.92 3.4 4.48 3.4 2.42 0 4-1.36 4-3.16zm2.57 2.98h1.82v-10.96h-1.82V664zm.94-12.74c.66 0 1.2-.54 1.2-1.24s-.54-1.24-1.2-1.24c-.7 0-1.24.54-1.24 1.24s.54 1.24 1.24 1.24z" fill="#fff"/><path stroke="#1A2955" d="M908 307.5H405"/><rect x="830.5" y="273.5" width="173" height="63" rx="3.5" stroke="#004F89"/><rect x="813" y="281" width="183" height="71" rx="4" fill="#FF912C"/><path d="M831.675 308h1.82v-13.94h-1.82V308zm.92-15.22c.58 0 1.04-.46 1.04-1.04a1.05 1.05 0 10-2.1 0c0 .58.46 1.04 1.06 1.04zm3.322 9.7c0 3.4 2.26 5.7 5.2 5.7 2 0 3.42-1.02 4.08-2.24V308h1.84v-14.8h-1.84v5.8c-.76-1.26-2.34-2.14-4.06-2.14-2.96 0-5.22 2.2-5.22 5.62zm9.28.02c0 2.58-1.72 4.08-3.72 4.08s-3.7-1.52-3.7-4.1c0-2.58 1.7-4.04 3.7-4.04s3.72 1.52 3.72 4.06zm4.235-.02c0 3.4 2.26 5.7 5.18 5.7 2.02 0 3.44-1.04 4.1-2.22V308h1.84v-10.96h-1.84v2c-.64-1.14-2.04-2.18-4.08-2.18-2.94 0-5.2 2.2-5.2 5.62zm9.28.02c0 2.58-1.72 4.08-3.72 4.08s-3.7-1.52-3.7-4.1c0-2.58 1.7-4.04 3.7-4.04s3.72 1.52 3.72 4.06zm6.736-.46c0-2.54 1.32-3.32 3.06-3.32h.48v-1.88c-1.74 0-2.92.76-3.54 1.98v-1.78h-1.82V308h1.82v-5.96zm10.301 4.6c-1.88 0-3.48-1.18-3.46-3.32h6.92c-.2 2.14-1.68 3.32-3.46 3.32zm-.08 1.54c3.2 0 5.42-2.18 5.42-5.64 0-3.48-2.3-5.68-5.42-5.68-2.72 0-4.48 1.56-5.04 3.56h1.96c.4-1.18 1.44-2.02 3.08-2.02 1.86 0 3.42 1.22 3.56 3.44h-8.76c-.04.38-.06.7-.06 1.1 0 3 2.08 5.24 5.26 5.24zm13.154-.18h1.82v-6.06c0-2.36 1.28-3.52 3.14-3.52 1.84 0 3.06 1.14 3.06 3.38v6.2h1.8v-6.46c0-3.14-1.94-4.7-4.38-4.7-1.54 0-2.9.62-3.62 1.78v-5.42h-1.82V308zm17.453-9.6c1.88 0 3.48 1.18 3.46 3.32h-6.92c.2-2.14 1.68-3.32 3.46-3.32zm5.12 6.22h-1.96c-.4 1.18-1.44 2.02-3.08 2.02-1.86 0-3.42-1.22-3.56-3.44h8.76c.04-.38.06-.7.06-1.1 0-3-2.08-5.24-5.26-5.24-3.2 0-5.42 2.18-5.42 5.64 0 3.48 2.3 5.68 5.42 5.68 2.72 0 4.48-1.56 5.04-3.56zm6.783 1.3l-3.44-8.88h-2.02l4.42 10.84-2.16 5.28h1.88l6.6-16.12h-1.88l-3.4 8.88zm11.769.72c-1.88 0-3.48-1.18-3.46-3.32h6.92c-.2 2.14-1.68 3.32-3.46 3.32zm-.08 1.54c3.2 0 5.42-2.18 5.42-5.64 0-3.48-2.3-5.68-5.42-5.68-2.72 0-4.48 1.56-5.04 3.56h1.96c.4-1.18 1.44-2.02 3.08-2.02 1.86 0 3.42 1.22 3.56 3.44h-8.76c-.04.38-.06.7-.06 1.1 0 3 2.08 5.24 5.26 5.24zm8.222-3.18c0 2.2 1.1 3 3.04 3h1.64v-1.54h-1.34c-1.12 0-1.52-.38-1.52-1.46v-6.46h2.86v-1.5h-2.86v-2.76h-1.82v2.76h-1.42v1.5h1.42V305zm6.886 3h1.82v-10.96h-1.82V308zm.94-12.74c.66 0 1.2-.54 1.2-1.24s-.54-1.24-1.2-1.24c-.7 0-1.24.54-1.24 1.24s.54 1.24 1.24 1.24zM957.917 308h1.8v-6.46c0-3.14-1.94-4.7-4.48-4.7-1.48 0-2.8.62-3.52 1.76v-1.56h-1.82V308h1.82v-6.06c0-2.36 1.28-3.52 3.14-3.52 1.84 0 3.06 1.14 3.06 3.38v6.2zm4.773 0h1.82v-10.96h-1.82V308zm.94-12.74c.66 0 1.2-.54 1.2-1.24s-.54-1.24-1.2-1.24c-.7 0-1.24.54-1.24 1.24s.54 1.24 1.24 1.24zM975.632 308h1.8v-6.46c0-3.14-1.94-4.7-4.48-4.7-1.48 0-2.8.62-3.52 1.76v-1.56h-1.82V308h1.82v-6.06c0-2.36 1.28-3.52 3.14-3.52 1.84 0 3.06 1.14 3.06 3.38v6.2zm-126.673 27.02c-.08-3.92-6.44-2.5-6.44-5.1 0-.88.8-1.52 2.14-1.52 1.46 0 2.3.8 2.38 1.9h1.82c-.12-2.14-1.72-3.44-4.14-3.44-2.44 0-4.02 1.38-4.02 3.06 0 4.08 6.48 2.66 6.48 5.1 0 .9-.8 1.62-2.24 1.62-1.54 0-2.48-.8-2.58-1.86h-1.88c.12 2 1.92 3.4 4.48 3.4 2.42 0 4-1.36 4-3.16zm7.229 1.62c-1.88 0-3.48-1.18-3.46-3.32h6.92c-.2 2.14-1.68 3.32-3.46 3.32zm-.08 1.54c3.2 0 5.42-2.18 5.42-5.64 0-3.48-2.3-5.68-5.42-5.68-2.72 0-4.48 1.56-5.04 3.56h1.96c.4-1.18 1.44-2.02 3.08-2.02 1.86 0 3.42 1.22 3.56 3.44h-8.76c-.04.38-.06.7-.06 1.1 0 3 2.08 5.24 5.26 5.24zm7.143-5.7c0 3.4 2.26 5.7 5.2 5.7 2 0 3.42-1.02 4.08-2.24V338h1.84v-14.8h-1.84v5.8c-.76-1.26-2.34-2.14-4.06-2.14-2.96 0-5.22 2.2-5.22 5.62zm9.28.02c0 2.58-1.72 4.08-3.72 4.08s-3.7-1.52-3.7-4.1c0-2.58 1.7-4.04 3.7-4.04s3.72 1.52 3.72 4.06zm6.735-.46c0-2.54 1.32-3.32 3.06-3.32h.48v-1.88c-1.74 0-2.92.76-3.54 1.98v-1.78h-1.82V338h1.82v-5.96zm26.793 5.96h1.8v-6.46c0-3.14-1.94-4.7-4.44-4.7-1.68 0-3.24.86-3.88 2.44-.72-1.64-2.22-2.44-4.02-2.44-1.44 0-2.74.62-3.46 1.78v-1.58h-1.82V338h1.82v-6.04c0-2.36 1.26-3.54 3.1-3.54 1.8 0 3 1.14 3 3.38v6.2h1.8v-6.04c0-2.36 1.26-3.54 3.1-3.54 1.8 0 3 1.14 3 3.38v6.2zm14.506-10.96h-1.82v6.02c0 2.36-1.26 3.52-3.14 3.52-1.84 0-3.06-1.14-3.06-3.36v-6.18h-1.8v6.42c0 3.14 1.98 4.7 4.5 4.7 1.46 0 2.8-.64 3.5-1.78V338h1.82v-10.96zm-6.46-1.48c.56 0 1.04-.46 1.04-1.04 0-.58-.48-1.06-1.04-1.06-.6 0-1.06.48-1.06 1.06 0 .58.46 1.04 1.06 1.04zm3.24 0c.58 0 1.06-.46 1.06-1.04 0-.58-.48-1.06-1.06-1.06-.6 0-1.04.48-1.04 1.06 0 .58.44 1.04 1.04 1.04zm5.613 6.92c0 3.4 2.26 5.7 5.18 5.7 2.02 0 3.44-1.04 4.1-2.22V338h1.84v-10.96h-1.84v2c-.64-1.14-2.04-2.18-4.08-2.18-2.94 0-5.2 2.2-5.2 5.62zm9.28.02c0 2.58-1.72 4.08-3.72 4.08s-3.7-1.52-3.7-4.1c0-2.58 1.7-4.04 3.7-4.04s3.72 1.52 3.72 4.06zm3.615-5.46l4.3 10.96h2.12l4.3-10.96h-1.94l-3.4 9.28-3.42-9.28h-1.96zM948.364 338h1.82v-10.96h-1.82V338zm.94-12.74c.66 0 1.2-.54 1.2-1.24s-.54-1.24-1.2-1.24c-.7 0-1.24.54-1.24 1.24s.54 1.24 1.24 1.24zM961.306 338h1.8v-6.46c0-3.14-1.94-4.7-4.48-4.7-1.48 0-2.8.62-3.52 1.76v-1.56h-1.82V338h1.82v-6.06c0-2.36 1.28-3.52 3.14-3.52 1.84 0 3.06 1.14 3.06 3.38v6.2zm4.773 0h1.82v-10.96h-1.82V338zm.94-12.74c.66 0 1.2-.54 1.2-1.24s-.54-1.24-1.2-1.24c-.7 0-1.24.54-1.24 1.24s.54 1.24 1.24 1.24z" fill="#fff"/><g filter="url(#filter3_d)"><circle cx="599" cy="307" r="10" fill="#fff"/><circle cx="599" cy="307" r="5" fill="#FF912C"/></g><defs><filter id="filter0_d" x="586" y="136" width="26" height="26" filterUnits="userSpaceOnUse" color-interpolation-filters="sRGB"><feFlood flood-opacity="0" result="BackgroundImageFix"/><feColorMatrix in="SourceAlpha" values="0 0 0 0 0 0 0 0 0 0 0 0 0 0 0 0 0 0 127 0"/><feOffset dy="2"/><feGaussianBlur stdDeviation="1.5"/><feColorMatrix values="0 0 0 0 0 0 0 0 0 0 0 0 0 0 0 0 0 0 0.09 0"/><feBlend in2="BackgroundImageFix" result="effect1_dropShadow"/><feBlend in="SourceGraphic" in2="effect1_dropShadow" result="shape"/></filter><filter id="filter1_d" x="895" y="628" width="26" height="26" filterUnits="userSpaceOnUse" color-interpolation-filters="sRGB"><feFlood flood-opacity="0" result="BackgroundImageFix"/><feColorMatrix in="SourceAlpha" values="0 0 0 0 0 0 0 0 0 0 0 0 0 0 0 0 0 0 127 0"/><feOffset dy="2"/><feGaussianBlur stdDeviation="1.5"/><feColorMatrix values="0 0 0 0 0 0 0 0 0 0 0 0 0 0 0 0 0 0 0.09 0"/><feBlend in2="BackgroundImageFix" result="effect1_dropShadow"/><feBlend in="SourceGraphic" in2="effect1_dropShadow" result="shape"/></filter><filter id="filter2_d" x="300.35" y="418" width="26.835" height="28" filterUnits="userSpaceOnUse" color-interpolation-filters="sRGB"><feFlood flood-opacity="0" result="BackgroundImageFix"/><feColorMatrix in="SourceAlpha" values="0 0 0 0 0 0 0 0 0 0 0 0 0 0 0 0 0 0 127 0"/><feOffset dy="-1"/><feGaussianBlur stdDeviation="2"/><feColorMatrix values="0 0 0 0 0 0 0 0 0 0 0 0 0 0 0 0 0 0 0.08 0"/><feBlend in2="BackgroundImageFix" result="effect1_dropShadow"/><feBlend in="SourceGraphic" in2="effect1_dropShadow" result="shape"/></filter><filter id="filter3_d" x="586" y="296" width="26" height="26" filterUnits="userSpaceOnUse" color-interpolation-filters="sRGB"><feFlood flood-opacity="0" result="BackgroundImageFix"/><feColorMatrix in="SourceAlpha" values="0 0 0 0 0 0 0 0 0 0 0 0 0 0 0 0 0 0 127 0"/><feOffset dy="2"/><feGaussianBlur stdDeviation="1.5"/><feColorMatrix values="0 0 0 0 0 0 0 0 0 0 0 0 0 0 0 0 0 0 0.09 0"/><feBlend in2="BackgroundImageFix" result="effect1_dropShadow"/><feBlend in="SourceGraphic" in2="effect1_dropShadow" result="shape"/></filter></defs></svg>