<svg width="1269" height="842" viewBox="0 0 1269 842" fill="none" xmlns="http://www.w3.org/2000/svg">
<rect x="543.5" y="0.5" width="173" height="63" rx="3.5" stroke="#004F89"/>
<rect x="248.5" y="272.5" width="173" height="63" rx="3.5" stroke="#004F89"/>
<rect x="13.5" y="398.5" width="201" height="96" rx="3.5" stroke="#004F89"/>
<rect x="522.5" y="593.5" width="272" height="96" rx="3.5" stroke="#004F89"/>
<rect x="996.5" y="584.5" width="272" height="96" rx="3.5" stroke="#004F89"/>
<rect x="1036.5" y="771.5" width="183" height="59" rx="3.5" stroke="#004F89"/>
<rect x="429.5" y="398.5" width="201" height="129" rx="3.5" stroke="#004F89"/>
<rect x="847.5" y="273.5" width="173" height="63" rx="3.5" stroke="#004F89"/>
<rect x="163.5" y="107.5" width="325" height="63" rx="3.5" stroke="#004F89"/>
<line x1="615.5" y1="307" x2="615.5" y2="57" stroke="#1A2955"/>
<line x1="325.5" y1="433" x2="325.5" y2="336" stroke="#1A2955"/>
<line x1="924.5" y1="639" x2="924.5" y2="342" stroke="#1A2955"/>
<line x1="327" y1="433.5" x2="424" y2="433.5" stroke="#1A2955"/>
<line x1="920" y1="639.5" x2="1017" y2="639.5" stroke="#1A2955"/>
<line x1="218" y1="433.5" x2="315" y2="433.5" stroke="#1A2955"/>
<line x1="795" y1="639.5" x2="925" y2="639.5" stroke="#1A2955"/>
<line x1="925" y1="307.5" x2="422" y2="307.5" stroke="#1A2955"/>
<line x1="617" y1="147.5" x2="440" y2="147.5" stroke="#1A2955"/>
<rect x="524" y="12" width="183" height="57" rx="4" fill="#FF912C"/>
<rect x="229" y="284" width="183" height="57" rx="4" fill="#FF912C"/>
<rect y="410" width="205" height="100" rx="4" fill="#FF912C"/>
<rect x="511" y="605" width="274" height="100" rx="4" fill="#FF912C"/>
<rect x="985" y="596" width="274" height="100" rx="4" fill="#FF912C"/>
<rect x="1020" y="780" width="186" height="62" rx="4" fill="#FF912C"/>
<rect x="409" y="410" width="212" height="130" rx="4" fill="#FF912C"/>
<rect x="828" y="285" width="183" height="57" rx="4" fill="#FF912C"/>
<rect x="150" y="119" width="329" height="57" rx="4" fill="#FF912C"/>
<path d="M601.6 42.2C601.6 37.04 594.08 39.28 594.08 35.68C594.08 34.18 595.26 33.4 596.76 33.44C598.46 33.46 599.34 34.52 599.46 35.46H601.46C601.24 33.34 599.5 31.88 596.84 31.88C594.08 31.88 592.22 33.44 592.22 35.74C592.22 40.92 599.76 38.52 599.76 42.28C599.76 43.6 598.72 44.6 596.96 44.6C595.02 44.6 594.2 43.44 594.08 42.28H592.14C592.18 44.58 594.16 46.14 596.96 46.14C599.98 46.14 601.6 44.18 601.6 42.2ZM608.938 44.64C607.058 44.64 605.458 43.46 605.478 41.32H612.398C612.198 43.46 610.718 44.64 608.938 44.64ZM608.858 46.18C612.058 46.18 614.278 44 614.278 40.54C614.278 37.06 611.978 34.86 608.858 34.86C606.138 34.86 604.378 36.42 603.818 38.42H605.778C606.178 37.24 607.218 36.4 608.858 36.4C610.718 36.4 612.278 37.62 612.418 39.84H603.658C603.618 40.22 603.598 40.54 603.598 40.94C603.598 43.94 605.678 46.18 608.858 46.18ZM616.001 40.48C616.001 43.88 618.261 46.18 621.201 46.18C623.201 46.18 624.621 45.16 625.281 43.94V46H627.121V31.2H625.281V37C624.521 35.74 622.941 34.86 621.221 34.86C618.261 34.86 616.001 37.06 616.001 40.48ZM625.281 40.5C625.281 43.08 623.561 44.58 621.561 44.58C619.561 44.58 617.861 43.06 617.861 40.48C617.861 37.9 619.561 36.44 621.561 36.44C623.561 36.44 625.281 37.96 625.281 40.5ZM632.016 40.04C632.016 37.5 633.336 36.72 635.076 36.72H635.556V34.84C633.816 34.84 632.636 35.6 632.016 36.82V35.04H630.196V46H632.016V40.04Z" fill="white"/>
<path d="M258.6 314.2C258.6 309.04 251.08 311.28 251.08 307.68C251.08 306.18 252.26 305.4 253.76 305.44C255.46 305.46 256.34 306.52 256.46 307.46H258.46C258.24 305.34 256.5 303.88 253.84 303.88C251.08 303.88 249.22 305.44 249.22 307.74C249.22 312.92 256.76 310.52 256.76 314.28C256.76 315.6 255.72 316.6 253.96 316.6C252.02 316.6 251.2 315.44 251.08 314.28H249.14C249.18 316.58 251.16 318.14 253.96 318.14C256.98 318.14 258.6 316.18 258.6 314.2ZM265.938 316.64C264.058 316.64 262.458 315.46 262.478 313.32H269.398C269.198 315.46 267.718 316.64 265.938 316.64ZM265.858 318.18C269.058 318.18 271.278 316 271.278 312.54C271.278 309.06 268.978 306.86 265.858 306.86C263.138 306.86 261.378 308.42 260.818 310.42H262.778C263.178 309.24 264.218 308.4 265.858 308.4C267.718 308.4 269.278 309.62 269.418 311.84H260.658C260.618 312.22 260.598 312.54 260.598 312.94C260.598 315.94 262.678 318.18 265.858 318.18ZM273.001 312.48C273.001 315.88 275.261 318.18 278.201 318.18C280.201 318.18 281.621 317.16 282.281 315.94V318H284.121V303.2H282.281V309C281.521 307.74 279.941 306.86 278.221 306.86C275.261 306.86 273.001 309.06 273.001 312.48ZM282.281 312.5C282.281 315.08 280.561 316.58 278.561 316.58C276.561 316.58 274.861 315.06 274.861 312.48C274.861 309.9 276.561 308.44 278.561 308.44C280.561 308.44 282.281 309.96 282.281 312.5ZM289.016 312.04C289.016 309.5 290.336 308.72 292.076 308.72H292.556V306.84C290.816 306.84 289.636 307.6 289.016 308.82V307.04H287.196V318H289.016V312.04ZM315.809 318H317.609V311.54C317.609 308.4 315.669 306.84 313.169 306.84C311.489 306.84 309.929 307.7 309.289 309.28C308.569 307.64 307.069 306.84 305.269 306.84C303.829 306.84 302.529 307.46 301.809 308.62V307.04H299.989V318H301.809V311.96C301.809 309.6 303.069 308.42 304.909 308.42C306.709 308.42 307.909 309.56 307.909 311.8V318H309.709V311.96C309.709 309.6 310.969 308.42 312.809 308.42C314.609 308.42 315.809 309.56 315.809 311.8V318ZM330.315 307.04H328.495V313.06C328.495 315.42 327.235 316.58 325.355 316.58C323.515 316.58 322.295 315.44 322.295 313.22V307.04H320.495V313.46C320.495 316.6 322.475 318.16 324.995 318.16C326.455 318.16 327.795 317.52 328.495 316.38V318H330.315V307.04ZM323.855 305.56C324.415 305.56 324.895 305.1 324.895 304.52C324.895 303.94 324.415 303.46 323.855 303.46C323.255 303.46 322.795 303.94 322.795 304.52C322.795 305.1 323.255 305.56 323.855 305.56ZM327.095 305.56C327.675 305.56 328.155 305.1 328.155 304.52C328.155 303.94 327.675 303.46 327.095 303.46C326.495 303.46 326.055 303.94 326.055 304.52C326.055 305.1 326.495 305.56 327.095 305.56ZM332.708 312.48C332.708 315.88 334.968 318.18 337.888 318.18C339.908 318.18 341.328 317.14 341.988 315.96V318H343.828V307.04H341.988V309.04C341.348 307.9 339.948 306.86 337.908 306.86C334.968 306.86 332.708 309.06 332.708 312.48ZM341.988 312.5C341.988 315.08 340.268 316.58 338.268 316.58C336.268 316.58 334.568 315.06 334.568 312.48C334.568 309.9 336.268 308.44 338.268 308.44C340.268 308.44 341.988 309.96 341.988 312.5ZM345.603 307.04L349.903 318H352.023L356.323 307.04H354.383L350.983 316.32L347.563 307.04H345.603ZM358.114 318H359.934V307.04H358.114V318ZM359.054 305.26C359.714 305.26 360.254 304.72 360.254 304.02C360.254 303.32 359.714 302.78 359.054 302.78C358.354 302.78 357.814 303.32 357.814 304.02C357.814 304.72 358.354 305.26 359.054 305.26ZM371.056 318H372.856V311.54C372.856 308.4 370.916 306.84 368.376 306.84C366.896 306.84 365.576 307.46 364.856 308.6V307.04H363.036V318H364.856V311.94C364.856 309.58 366.136 308.42 367.996 308.42C369.836 308.42 371.056 309.56 371.056 311.8V318ZM375.829 318H377.649V307.04H375.829V318ZM376.769 305.26C377.429 305.26 377.969 304.72 377.969 304.02C377.969 303.32 377.429 302.78 376.769 302.78C376.069 302.78 375.529 303.32 375.529 304.02C375.529 304.72 376.069 305.26 376.769 305.26Z" fill="white"/>
<path d="M22.86 437.9C18.94 437.9 15.86 440.84 15.86 445.02C15.86 449.2 18.94 452.12 22.86 452.12C26.64 452.12 29.38 449.34 29.7 445.88V444.48H22.2V445.96H27.76C27.48 448.72 25.6 450.48 22.86 450.48C19.92 450.48 17.72 448.36 17.72 445.02C17.72 441.66 19.92 439.54 22.86 439.54C24.82 439.54 26.34 440.48 27.1 442.1H29.28C28.24 439.42 25.8 437.9 22.86 437.9ZM36.7664 442.4C38.6464 442.4 40.2464 443.58 40.2264 445.72H33.3064C33.5064 443.58 34.9864 442.4 36.7664 442.4ZM41.8864 448.62H39.9264C39.5264 449.8 38.4864 450.64 36.8464 450.64C34.9864 450.64 33.4264 449.42 33.2864 447.2H42.0464C42.0864 446.82 42.1064 446.5 42.1064 446.1C42.1064 443.1 40.0264 440.86 36.8464 440.86C33.6464 440.86 31.4264 443.04 31.4264 446.5C31.4264 449.98 33.7264 452.18 36.8464 452.18C39.5664 452.18 41.3264 450.62 41.8864 448.62ZM54.9088 446.5C54.9088 443.04 52.4888 440.86 49.3688 440.86C46.2688 440.86 43.8288 443.04 43.8288 446.5C43.8288 449.98 46.1888 452.18 49.2888 452.18C52.4088 452.18 54.9088 449.98 54.9088 446.5ZM45.6888 446.5C45.6888 443.74 47.4288 442.44 49.3488 442.44C51.2288 442.44 53.0488 443.74 53.0488 446.5C53.0488 449.28 51.1888 450.58 49.2888 450.58C47.3888 450.58 45.6888 449.28 45.6888 446.5ZM57.3017 452H59.1217V437.2H57.3017V452ZM72.6236 446.5C72.6236 443.04 70.2036 440.86 67.0836 440.86C63.9836 440.86 61.5436 443.04 61.5436 446.5C61.5436 449.98 63.9036 452.18 67.0036 452.18C70.1236 452.18 72.6236 449.98 72.6236 446.5ZM63.4036 446.5C63.4036 443.74 65.1436 442.44 67.0636 442.44C68.9436 442.44 70.7636 443.74 70.7636 446.5C70.7636 449.28 68.9036 450.58 67.0036 450.58C65.1036 450.58 63.4036 449.28 63.4036 446.5ZM75.9966 439.26C76.6766 439.26 77.2166 438.72 77.2166 438.02C77.2166 437.32 76.6766 436.78 75.9966 436.78C75.3166 436.78 74.7766 437.32 74.7766 438.02C74.7766 438.72 75.3166 439.26 75.9966 439.26ZM75.0766 441.04V454.34C75.0766 455.3 74.6966 455.66 73.6966 455.66H72.9366V457.2H73.9966C75.8566 457.2 76.8966 456.36 76.8966 454.38V441.04H75.0766ZM79.9775 452H81.7975V441.04H79.9775V452ZM80.9175 439.26C81.5775 439.26 82.1175 438.72 82.1175 438.02C82.1175 437.32 81.5775 436.78 80.9175 436.78C80.2175 436.78 79.6775 437.32 79.6775 438.02C79.6775 438.72 80.2175 439.26 80.9175 439.26ZM94.8914 442.4C96.7714 442.4 98.3714 443.58 98.3514 445.72H91.4314C91.6314 443.58 93.1114 442.4 94.8914 442.4ZM100.011 448.62H98.0514C97.6514 449.8 96.6114 450.64 94.9714 450.64C93.1114 450.64 91.5514 449.42 91.4114 447.2H100.171C100.211 446.82 100.231 446.5 100.231 446.1C100.231 443.1 98.1514 440.86 94.9714 440.86C91.7714 440.86 89.5514 443.04 89.5514 446.5C89.5514 449.98 91.8514 452.18 94.9714 452.18C97.6914 452.18 99.4514 450.62 100.011 448.62ZM102.634 452H104.454V447.16L108.754 452H111.234L106.054 446.5L111.214 441.04H108.674L104.454 445.9V437.2H102.634V452ZM120.807 449.02C120.727 445.1 114.367 446.52 114.367 443.92C114.367 443.04 115.167 442.4 116.507 442.4C117.967 442.4 118.807 443.2 118.887 444.3H120.707C120.587 442.16 118.987 440.86 116.567 440.86C114.127 440.86 112.547 442.24 112.547 443.92C112.547 448 119.027 446.58 119.027 449.02C119.027 449.92 118.227 450.64 116.787 450.64C115.247 450.64 114.307 449.84 114.207 448.78H112.327C112.447 450.78 114.247 452.18 116.807 452.18C119.227 452.18 120.807 450.82 120.807 449.02ZM125.196 443.06V441.04H123.376V457.2H125.196V449.98C125.876 451.1 127.296 452.18 129.296 452.18C132.236 452.18 134.496 449.88 134.496 446.48C134.496 443.06 132.236 440.86 129.296 440.86C127.296 440.86 125.856 441.9 125.196 443.06ZM132.636 446.48C132.636 449.06 130.936 450.58 128.916 450.58C126.936 450.58 125.196 449.08 125.196 446.5C125.196 443.96 126.936 442.44 128.916 442.44C130.936 442.44 132.636 443.9 132.636 446.48ZM141.552 442.4C143.432 442.4 145.032 443.58 145.012 445.72H138.092C138.292 443.58 139.772 442.4 141.552 442.4ZM146.672 448.62H144.712C144.312 449.8 143.272 450.64 141.632 450.64C139.772 450.64 138.212 449.42 138.072 447.2H146.832C146.872 446.82 146.892 446.5 146.892 446.1C146.892 443.1 144.812 440.86 141.632 440.86C138.432 440.86 136.212 443.04 136.212 446.5C136.212 449.98 138.512 452.18 141.632 452.18C144.352 452.18 146.112 450.62 146.672 448.62ZM151.114 446.04C151.114 443.5 152.434 442.72 154.174 442.72H154.654V440.84C152.914 440.84 151.734 441.6 151.114 442.82V441.04H149.294V452H151.114V446.04ZM157.155 449C157.155 451.2 158.255 452 160.195 452H161.835V450.46H160.495C159.375 450.46 158.975 450.08 158.975 449V442.54H161.835V441.04H158.975V438.28H157.155V441.04H155.735V442.54H157.155V449ZM164.04 452H165.86V441.04H164.04V452ZM164.98 439.26C165.64 439.26 166.18 438.72 166.18 438.02C166.18 437.32 165.64 436.78 164.98 436.78C164.28 436.78 163.74 437.32 163.74 438.02C163.74 438.72 164.28 439.26 164.98 439.26ZM175.662 441.04H168.282V442.52H173.562L168.242 450.5V452H175.702V450.5H170.322L175.662 442.52V441.04ZM177.383 446.48C177.383 449.88 179.643 452.18 182.563 452.18C184.583 452.18 186.003 451.14 186.663 449.96V452H188.503V441.04H186.663V443.04C186.023 441.9 184.623 440.86 182.583 440.86C179.643 440.86 177.383 443.06 177.383 446.48ZM186.663 446.5C186.663 449.08 184.943 450.58 182.943 450.58C180.943 450.58 179.243 449.06 179.243 446.48C179.243 443.9 180.943 442.44 182.943 442.44C184.943 442.44 186.663 443.96 186.663 446.5ZM15.24 471.04L19.54 482H21.66L25.96 471.04H24.02L20.62 480.32L17.2 471.04H15.24ZM32.4109 480.64C30.5309 480.64 28.9309 479.46 28.9509 477.32H35.8709C35.6709 479.46 34.1909 480.64 32.4109 480.64ZM32.3309 482.18C35.5309 482.18 37.7509 480 37.7509 476.54C37.7509 473.06 35.4509 470.86 32.3309 470.86C29.6109 470.86 27.8509 472.42 27.2909 474.42H29.2509C29.6509 473.24 30.6909 472.4 32.3309 472.4C34.1909 472.4 35.7509 473.62 35.8909 475.84H27.1309C27.0909 476.22 27.0709 476.54 27.0709 476.94C27.0709 479.94 29.1509 482.18 32.3309 482.18ZM47.3053 476.04C47.3053 473.5 48.6253 472.72 50.3653 472.72H50.8453V470.84C49.1053 470.84 47.9253 471.6 47.3053 472.82V471.04H45.4853V482H47.3053V476.04ZM57.6063 472.4C59.4863 472.4 61.0863 473.58 61.0663 475.72H54.1463C54.3462 473.58 55.8263 472.4 57.6063 472.4ZM62.7263 478.62H60.7663C60.3663 479.8 59.3263 480.64 57.6863 480.64C55.8263 480.64 54.2663 479.42 54.1263 477.2H62.8863C62.9263 476.82 62.9463 476.5 62.9463 476.1C62.9463 473.1 60.8663 470.86 57.6863 470.86C54.4863 470.86 52.2663 473.04 52.2663 476.5C52.2663 479.98 54.5663 482.18 57.6863 482.18C60.4063 482.18 62.1663 480.62 62.7263 478.62ZM69.5086 479.92L66.0686 471.04H64.0486L68.4686 481.88L66.3086 487.16H68.1886L74.7886 471.04H72.9086L69.5086 479.92ZM81.2781 472.4C83.1581 472.4 84.7581 473.58 84.7381 475.72H77.8181C78.0181 473.58 79.4981 472.4 81.2781 472.4ZM86.3981 478.62H84.4381C84.0381 479.8 82.9981 480.64 81.3581 480.64C79.4981 480.64 77.9381 479.42 77.7981 477.2H86.5581C86.5981 476.82 86.6181 476.5 86.6181 476.1C86.6181 473.1 84.5381 470.86 81.3581 470.86C78.1581 470.86 75.9381 473.04 75.9381 476.5C75.9381 479.98 78.2381 482.18 81.3581 482.18C84.0781 482.18 85.8381 480.62 86.3981 478.62ZM96.9005 479.02C96.8205 475.1 90.4605 476.52 90.4605 473.92C90.4605 473.04 91.2605 472.4 92.6005 472.4C94.0605 472.4 94.9005 473.2 94.9805 474.3H96.8005C96.6805 472.16 95.0805 470.86 92.6605 470.86C90.2205 470.86 88.6405 472.24 88.6405 473.92C88.6405 478 95.1205 476.58 95.1205 479.02C95.1205 479.92 94.3205 480.64 92.8805 480.64C91.3405 480.64 90.4005 479.84 90.3005 478.78H88.4205C88.5405 480.78 90.3405 482.18 92.9005 482.18C95.3205 482.18 96.9005 480.82 96.9005 479.02ZM99.8697 479C99.8697 481.2 100.97 482 102.91 482H104.55V480.46H103.21C102.09 480.46 101.69 480.08 101.69 479V472.54H104.55V471.04H101.69V468.28H99.8697V471.04H98.4497V472.54H99.8697V479ZM108.575 476.04C108.575 473.5 109.895 472.72 111.635 472.72H112.115V470.84C110.375 470.84 109.195 471.6 108.575 472.82V471.04H106.755V482H108.575V476.04ZM127.428 479.02C127.348 475.1 120.988 476.52 120.988 473.92C120.988 473.04 121.788 472.4 123.128 472.4C124.588 472.4 125.428 473.2 125.508 474.3H127.328C127.208 472.16 125.608 470.86 123.188 470.86C120.748 470.86 119.168 472.24 119.168 473.92C119.168 478 125.648 476.58 125.648 479.02C125.648 479.92 124.848 480.64 123.408 480.64C121.868 480.64 120.928 479.84 120.828 478.78H118.948C119.048 480.58 120.528 481.9 122.688 482.14V484.28H123.688C124.548 484.28 124.968 484.52 124.968 485.14C124.968 485.78 124.548 486.02 123.688 486.02H121.748V487.2H124.048C125.468 487.2 126.488 486.4 126.488 485.14C126.488 483.82 125.448 483.14 123.908 483.16V482.16C126.048 482 127.428 480.7 127.428 479.02ZM140.397 476.5C140.397 473.04 137.977 470.86 134.857 470.86C131.757 470.86 129.317 473.04 129.317 476.5C129.317 479.98 131.677 482.18 134.777 482.18C137.897 482.18 140.397 479.98 140.397 476.5ZM131.177 476.5C131.177 473.74 132.917 472.44 134.837 472.44C136.717 472.44 138.537 473.74 138.537 476.5C138.537 479.28 136.677 480.58 134.777 480.58C132.877 480.58 131.177 479.28 131.177 476.5ZM133.257 469.42C133.817 469.42 134.297 468.96 134.297 468.38C134.297 467.8 133.817 467.32 133.257 467.32C132.657 467.32 132.197 467.8 132.197 468.38C132.197 468.96 132.657 469.42 133.257 469.42ZM136.497 469.42C137.077 469.42 137.557 468.96 137.557 468.38C137.557 467.8 137.077 467.32 136.497 467.32C135.897 467.32 135.457 467.8 135.457 468.38C135.457 468.96 135.897 469.42 136.497 469.42ZM144.61 473.08V467.2H142.79V482H144.61V479.98C145.29 481.18 146.71 482.18 148.71 482.18C151.65 482.18 153.91 479.88 153.91 476.48C153.91 473.06 151.67 470.86 148.71 470.86C146.77 470.86 145.31 471.86 144.61 473.08ZM152.05 476.48C152.05 479.06 150.35 480.58 148.33 480.58C146.35 480.58 144.61 479.08 144.61 476.5C144.61 473.96 146.35 472.44 148.33 472.44C150.35 472.44 152.05 473.9 152.05 476.48ZM160.966 480.64C159.086 480.64 157.486 479.46 157.506 477.32H164.426C164.226 479.46 162.746 480.64 160.966 480.64ZM160.886 482.18C164.086 482.18 166.306 480 166.306 476.54C166.306 473.06 164.006 470.86 160.886 470.86C158.166 470.86 156.406 472.42 155.846 474.42H157.806C158.206 473.24 159.246 472.4 160.886 472.4C162.746 472.4 164.306 473.62 164.446 475.84H155.686C155.646 476.22 155.626 476.54 155.626 476.94C155.626 479.94 157.706 482.18 160.886 482.18ZM176.588 479.02C176.508 475.1 170.148 476.52 170.148 473.92C170.148 473.04 170.948 472.4 172.288 472.4C173.748 472.4 174.588 473.2 174.668 474.3H176.488C176.368 472.16 174.768 470.86 172.348 470.86C169.908 470.86 168.328 472.24 168.328 473.92C168.328 478 174.808 476.58 174.808 479.02C174.808 479.92 174.008 480.64 172.568 480.64C171.028 480.64 170.088 479.84 169.988 478.78H168.108C168.228 480.78 170.028 482.18 172.588 482.18C175.008 482.18 176.588 480.82 176.588 479.02ZM179.157 482H180.977V471.04H179.157V482ZM180.097 469.26C180.757 469.26 181.297 468.72 181.297 468.02C181.297 467.32 180.757 466.78 180.097 466.78C179.397 466.78 178.857 467.32 178.857 468.02C178.857 468.72 179.397 469.26 180.097 469.26Z" fill="white"/>
<path d="M548.821 632H550.641V618.06H548.821V624.18H541.721V618.06H539.901V632H541.721V625.68H548.821V632ZM563.449 621.04H561.629V627.06C561.629 629.42 560.369 630.58 558.489 630.58C556.649 630.58 555.429 629.44 555.429 627.22V621.04H553.629V627.46C553.629 630.6 555.609 632.16 558.129 632.16C559.589 632.16 560.929 631.52 561.629 630.38V632H563.449V621.04ZM556.989 619.56C557.549 619.56 558.029 619.1 558.029 618.52C558.029 617.94 557.549 617.46 556.989 617.46C556.389 617.46 555.929 617.94 555.929 618.52C555.929 619.1 556.389 619.56 556.989 619.56ZM560.229 619.56C560.809 619.56 561.289 619.1 561.289 618.52C561.289 617.94 560.809 617.46 560.229 617.46C559.629 617.46 559.189 617.94 559.189 618.52C559.189 619.1 559.629 619.56 560.229 619.56ZM565.842 626.48C565.842 629.88 568.102 632.18 571.002 632.18C573.042 632.18 574.502 631.1 575.122 629.98V637.2H576.962V621.04H575.122V623.04C574.502 621.9 573.062 620.86 571.062 620.86C568.102 620.86 565.842 623.06 565.842 626.48ZM575.122 626.5C575.122 629.08 573.402 630.58 571.402 630.58C569.402 630.58 567.702 629.06 567.702 626.48C567.702 623.9 569.402 622.44 571.402 622.44C573.402 622.44 575.122 623.96 575.122 626.5ZM589.758 621.04H587.938V627.06C587.938 629.42 586.678 630.58 584.798 630.58C582.958 630.58 581.738 629.44 581.738 627.22V621.04H579.938V627.46C579.938 630.6 581.918 632.16 584.438 632.16C585.898 632.16 587.238 631.52 587.938 630.38V632H589.758V621.04ZM592.151 626.48C592.151 629.88 594.411 632.18 597.311 632.18C599.351 632.18 600.811 631.1 601.431 629.98V637.2H603.271V621.04H601.431V623.04C600.811 621.9 599.371 620.86 597.371 620.86C594.411 620.86 592.151 623.06 592.151 626.48ZM601.431 626.5C601.431 629.08 599.711 630.58 597.711 630.58C595.711 630.58 594.011 629.06 594.011 626.48C594.011 623.9 595.711 622.44 597.711 622.44C599.711 622.44 601.431 623.96 601.431 626.5ZM606.347 632H608.167V621.04H606.347V632ZM607.287 619.26C607.947 619.26 608.487 618.72 608.487 618.02C608.487 617.32 607.947 616.78 607.287 616.78C606.587 616.78 606.047 617.32 606.047 618.02C606.047 618.72 606.587 619.26 607.287 619.26ZM617.001 629C617.001 631.2 618.101 632 620.041 632H621.681V630.46H620.341C619.221 630.46 618.821 630.08 618.821 629V622.54H621.681V621.04H618.821V618.28H617.001V621.04H615.581V622.54H617.001V629ZM628.546 630.64C626.666 630.64 625.066 629.46 625.086 627.32H632.006C631.806 629.46 630.326 630.64 628.546 630.64ZM628.466 632.18C631.666 632.18 633.886 630 633.886 626.54C633.886 623.06 631.586 620.86 628.466 620.86C625.746 620.86 623.986 622.42 623.426 624.42H625.386C625.786 623.24 626.826 622.4 628.466 622.4C630.326 622.4 631.886 623.62 632.026 625.84H623.266C623.226 626.22 623.206 626.54 623.206 626.94C623.206 629.94 625.286 632.18 628.466 632.18ZM652.108 632H653.908V625.54C653.908 622.4 651.968 620.84 649.468 620.84C647.788 620.84 646.228 621.7 645.588 623.28C644.868 621.64 643.368 620.84 641.568 620.84C640.128 620.84 638.828 621.46 638.108 622.62V621.04H636.288V632H638.108V625.96C638.108 623.6 639.368 622.42 641.208 622.42C643.008 622.42 644.208 623.56 644.208 625.8V632H646.008V625.96C646.008 623.6 647.268 622.42 649.108 622.42C650.908 622.42 652.108 623.56 652.108 625.8V632ZM656.894 632H658.714V621.04H656.894V632ZM657.834 619.26C658.494 619.26 659.034 618.72 659.034 618.02C659.034 617.32 658.494 616.78 657.834 616.78C657.134 616.78 656.594 617.32 656.594 618.02C656.594 618.72 657.134 619.26 657.834 619.26ZM669.835 632H671.635V625.54C671.635 622.4 669.695 620.84 667.155 620.84C665.675 620.84 664.355 621.46 663.635 622.6V621.04H661.815V632H663.635V625.94C663.635 623.58 664.915 622.42 666.775 622.42C668.615 622.42 669.835 623.56 669.835 625.8V632ZM673.928 626.48C673.928 629.88 676.188 632.18 679.108 632.18C681.128 632.18 682.548 631.14 683.208 629.96V632H685.048V621.04H683.208V623.04C682.568 621.9 681.168 620.86 679.128 620.86C676.188 620.86 673.928 623.06 673.928 626.48ZM683.208 626.5C683.208 629.08 681.488 630.58 679.488 630.58C677.488 630.58 675.788 629.06 675.788 626.48C675.788 623.9 677.488 622.44 679.488 622.44C681.488 622.44 683.208 623.96 683.208 626.5ZM688.524 629C688.524 631.2 689.624 632 691.564 632H693.204V630.46H691.864C690.744 630.46 690.344 630.08 690.344 629V622.54H693.204V621.04H690.344V618.28H688.524V621.04H687.104V622.54H688.524V629ZM693.829 634.86H695.049L697.289 629.48H695.289L693.829 634.86ZM704.706 632H706.526V621.04H704.706V632ZM705.646 619.26C706.306 619.26 706.846 618.72 706.846 618.02C706.846 617.32 706.306 616.78 705.646 616.78C704.946 616.78 704.406 617.32 704.406 618.02C704.406 618.72 704.946 619.26 705.646 619.26ZM717.648 632H719.448V625.54C719.448 622.4 717.508 620.84 714.968 620.84C713.488 620.84 712.168 621.46 711.448 622.6V621.04H709.628V632H711.448V625.94C711.448 623.58 712.728 622.42 714.588 622.42C716.428 622.42 717.648 623.56 717.648 625.8V632ZM730.301 629.02C730.221 625.1 723.861 626.52 723.861 623.92C723.861 623.04 724.661 622.4 726.001 622.4C727.461 622.4 728.301 623.2 728.381 624.3H730.201C730.081 622.16 728.481 620.86 726.061 620.86C723.621 620.86 722.041 622.24 722.041 623.92C722.041 628 728.521 626.58 728.521 629.02C728.521 629.92 727.721 630.64 726.281 630.64C724.741 630.64 723.801 629.84 723.701 628.78H721.821C721.941 630.78 723.741 632.18 726.301 632.18C728.721 632.18 730.301 630.82 730.301 629.02ZM732.19 626.48C732.19 629.88 734.45 632.18 737.37 632.18C739.39 632.18 740.81 631.14 741.47 629.96V632H743.31V621.04H741.47V623.04C740.83 621.9 739.43 620.86 737.39 620.86C734.45 620.86 732.19 623.06 732.19 626.48ZM741.47 626.5C741.47 629.08 739.75 630.58 737.75 630.58C735.75 630.58 734.05 629.06 734.05 626.48C734.05 623.9 735.75 622.44 737.75 622.44C739.75 622.44 741.47 623.96 741.47 626.5ZM754.406 632H756.206V625.54C756.206 622.4 754.266 620.84 751.726 620.84C750.246 620.84 748.926 621.46 748.206 622.6V621.04H746.386V632H748.206V625.94C748.206 623.58 749.486 622.42 751.346 622.42C753.186 622.42 754.406 623.56 754.406 625.8V632ZM536.467 656.04C536.467 653.5 537.787 652.72 539.527 652.72H540.007V650.84C538.267 650.84 537.087 651.6 536.467 652.82V651.04H534.647V662H536.467V656.04ZM546.768 652.4C548.648 652.4 550.248 653.58 550.228 655.72H543.308C543.508 653.58 544.988 652.4 546.768 652.4ZM551.888 658.62H549.928C549.528 659.8 548.488 660.64 546.848 660.64C544.988 660.64 543.428 659.42 543.288 657.2H552.048C552.088 656.82 552.108 656.5 552.108 656.1C552.108 653.1 550.028 650.86 546.848 650.86C543.648 650.86 541.428 653.04 541.428 656.5C541.428 659.98 543.728 662.18 546.848 662.18C549.568 662.18 551.328 660.62 551.888 658.62ZM562.391 659.02C562.311 655.1 555.951 656.52 555.951 653.92C555.951 653.04 556.751 652.4 558.091 652.4C559.551 652.4 560.391 653.2 560.471 654.3H562.291C562.171 652.16 560.571 650.86 558.151 650.86C555.711 650.86 554.131 652.24 554.131 653.92C554.131 658 560.611 656.58 560.611 659.02C560.611 659.92 559.811 660.64 558.371 660.64C556.831 660.64 555.891 659.84 555.791 658.78H553.911C554.031 660.78 555.831 662.18 558.391 662.18C560.811 662.18 562.391 660.82 562.391 659.02ZM574.68 651.04H572.86V657.06C572.86 659.42 571.6 660.58 569.72 660.58C567.88 660.58 566.66 659.44 566.66 657.22V651.04H564.86V657.46C564.86 660.6 566.84 662.16 569.36 662.16C570.82 662.16 572.16 661.52 572.86 660.38V662H574.68V651.04ZM579.573 656.04C579.573 653.5 580.893 652.72 582.633 652.72H583.113V650.84C581.373 650.84 580.193 651.6 579.573 652.82V651.04H577.753V662H579.573V656.04ZM593.094 659.02C593.014 655.1 586.654 656.52 586.654 653.92C586.654 653.04 587.454 652.4 588.794 652.4C590.254 652.4 591.094 653.2 591.174 654.3H592.994C592.874 652.16 591.274 650.86 588.854 650.86C586.414 650.86 584.834 652.24 584.834 653.92C584.834 658 591.314 656.58 591.314 659.02C591.314 659.92 590.514 660.64 589.074 660.64C587.534 660.64 586.594 659.84 586.494 658.78H584.614C584.734 660.78 586.534 662.18 589.094 662.18C591.514 662.18 593.094 660.82 593.094 659.02ZM595.663 662H597.483V647.2H595.663V662ZM599.905 656.48C599.905 659.88 602.165 662.18 605.085 662.18C607.105 662.18 608.525 661.14 609.185 659.96V662H611.025V651.04H609.185V653.04C608.545 651.9 607.145 650.86 605.105 650.86C602.165 650.86 599.905 653.06 599.905 656.48ZM609.185 656.5C609.185 659.08 607.465 660.58 605.465 660.58C603.465 660.58 601.765 659.06 601.765 656.48C601.765 653.9 603.465 652.44 605.465 652.44C607.465 652.44 609.185 653.96 609.185 656.5ZM615.921 656.04C615.921 653.5 617.241 652.72 618.981 652.72H619.461V650.84C617.721 650.84 616.541 651.6 615.921 652.82V651.04H614.101V662H615.921V656.04ZM621.561 662H623.381V651.04H621.561V662ZM630.515 651.04L634.815 662H636.935L641.235 651.04H639.295L635.895 660.32L632.475 651.04H630.515ZM647.686 660.64C645.806 660.64 644.206 659.46 644.226 657.32H651.146C650.946 659.46 649.466 660.64 647.686 660.64ZM647.606 662.18C650.806 662.18 653.026 660 653.026 656.54C653.026 653.06 650.726 650.86 647.606 650.86C644.886 650.86 643.126 652.42 642.566 654.42H644.526C644.926 653.24 645.966 652.4 647.606 652.4C649.466 652.4 651.026 653.62 651.166 655.84H642.406C642.366 656.22 642.346 656.54 642.346 656.94C642.346 659.94 644.426 662.18 647.606 662.18ZM668.641 659.02C668.561 655.1 662.201 656.52 662.201 653.92C662.201 653.04 663.001 652.4 664.341 652.4C665.801 652.4 666.641 653.2 666.721 654.3H668.541C668.421 652.16 666.821 650.86 664.401 650.86C661.961 650.86 660.381 652.24 660.381 653.92C660.381 658 666.861 656.58 666.861 659.02C666.861 659.92 666.061 660.64 664.621 660.64C663.081 660.64 662.141 659.84 662.041 658.78H660.161C660.281 660.78 662.081 662.18 664.641 662.18C667.061 662.18 668.641 660.82 668.641 659.02ZM675.87 660.64C673.99 660.64 672.39 659.46 672.41 657.32H679.33C679.13 659.46 677.65 660.64 675.87 660.64ZM675.79 662.18C678.99 662.18 681.21 660 681.21 656.54C681.21 653.06 678.91 650.86 675.79 650.86C673.07 650.86 671.31 652.42 670.75 654.42H672.71C673.11 653.24 674.15 652.4 675.79 652.4C677.65 652.4 679.21 653.62 679.35 655.84H670.59C670.55 656.22 670.53 656.54 670.53 656.94C670.53 659.94 672.61 662.18 675.79 662.18ZM691.632 662H693.432V655.54C693.432 652.4 691.492 650.84 688.952 650.84C687.472 650.84 686.152 651.46 685.432 652.6V651.04H683.612V662H685.432V655.94C685.432 653.58 686.712 652.42 688.572 652.42C690.412 652.42 691.632 653.56 691.632 655.8V662ZM701.065 660.64C699.185 660.64 697.585 659.46 697.605 657.32H704.525C704.325 659.46 702.845 660.64 701.065 660.64ZM700.985 662.18C704.185 662.18 706.405 660 706.405 656.54C706.405 653.06 704.105 650.86 700.985 650.86C698.265 650.86 696.505 652.42 695.945 654.42H697.905C698.305 653.24 699.345 652.4 700.985 652.4C702.845 652.4 704.405 653.62 704.545 655.84H695.785C695.745 656.22 695.725 656.54 695.725 656.94C695.725 659.94 697.805 662.18 700.985 662.18ZM708.128 656.48C708.128 659.88 710.388 662.18 713.328 662.18C715.328 662.18 716.748 661.16 717.408 659.94V662H719.248V647.2H717.408V653C716.648 651.74 715.068 650.86 713.348 650.86C710.388 650.86 708.128 653.06 708.128 656.48ZM717.408 656.5C717.408 659.08 715.688 660.58 713.688 660.58C711.688 660.58 709.988 659.06 709.988 656.48C709.988 653.9 711.688 652.44 713.688 652.44C715.688 652.44 717.408 653.96 717.408 656.5ZM722.323 662H724.143V647.2H722.323V662ZM731.905 660.64C730.025 660.64 728.425 659.46 728.445 657.32H735.365C735.165 659.46 733.685 660.64 731.905 660.64ZM731.825 662.18C735.025 662.18 737.245 660 737.245 656.54C737.245 653.06 734.945 650.86 731.825 650.86C729.105 650.86 727.345 652.42 726.785 654.42H728.745C729.145 653.24 730.185 652.4 731.825 652.4C733.685 652.4 735.245 653.62 735.385 655.84H726.625C726.585 656.22 726.565 656.54 726.565 656.94C726.565 659.94 728.645 662.18 731.825 662.18ZM741.467 656.04C741.467 653.5 742.787 652.72 744.527 652.72H745.007V650.84C743.267 650.84 742.087 651.6 741.467 652.82V651.04H739.647V662H741.467V656.04ZM747.108 662H748.928V647.2H747.108V662ZM756.69 660.64C754.81 660.64 753.21 659.46 753.23 657.32H760.15C759.95 659.46 758.47 660.64 756.69 660.64ZM756.61 662.18C759.81 662.18 762.03 660 762.03 656.54C762.03 653.06 759.73 650.86 756.61 650.86C753.89 650.86 752.13 652.42 751.57 654.42H753.53C753.93 653.24 754.97 652.4 756.61 652.4C758.47 652.4 760.03 653.62 760.17 655.84H751.41C751.37 656.22 751.35 656.54 751.35 656.94C751.35 659.94 753.43 662.18 756.61 662.18ZM606.923 692H608.743V681.04H606.923V692ZM607.863 679.26C608.523 679.26 609.063 678.72 609.063 678.02C609.063 677.32 608.523 676.78 607.863 676.78C607.163 676.78 606.623 677.32 606.623 678.02C606.623 678.72 607.163 679.26 607.863 679.26ZM619.725 689.02C619.645 685.1 613.285 686.52 613.285 683.92C613.285 683.04 614.085 682.4 615.425 682.4C616.885 682.4 617.725 683.2 617.805 684.3H619.625C619.505 682.16 617.905 680.86 615.485 680.86C613.045 680.86 611.465 682.24 611.465 683.92C611.465 688 617.945 686.58 617.945 689.02C617.945 689.92 617.145 690.64 615.705 690.64C614.165 690.64 613.225 689.84 613.125 688.78H611.245C611.345 690.58 612.825 691.9 614.985 692.14V694.28H615.985C616.845 694.28 617.265 694.52 617.265 695.14C617.265 695.78 616.845 696.02 615.985 696.02H614.045V697.2H616.345C617.765 697.2 618.785 696.4 618.785 695.14C618.785 693.82 617.745 693.14 616.205 693.16V692.16C618.345 692 619.725 690.7 619.725 689.02ZM635.506 689.02C635.426 685.1 629.066 686.52 629.066 683.92C629.066 683.04 629.866 682.4 631.206 682.4C632.666 682.4 633.506 683.2 633.586 684.3H635.406C635.286 682.16 633.686 680.86 631.266 680.86C628.826 680.86 627.246 682.24 627.246 683.92C627.246 688 633.726 686.58 633.726 689.02C633.726 689.92 632.926 690.64 631.486 690.64C629.946 690.64 629.006 689.84 628.906 688.78H627.026C627.126 690.58 628.606 691.9 630.766 692.14V694.28H631.766C632.626 694.28 633.046 694.52 633.046 695.14C633.046 695.78 632.626 696.02 631.766 696.02H629.826V697.2H632.126C633.546 697.2 634.566 696.4 634.566 695.14C634.566 693.82 633.526 693.14 631.986 693.16V692.16C634.126 692 635.506 690.7 635.506 689.02ZM648.475 686.5C648.475 683.04 646.055 680.86 642.935 680.86C639.835 680.86 637.395 683.04 637.395 686.5C637.395 689.98 639.755 692.18 642.855 692.18C645.975 692.18 648.475 689.98 648.475 686.5ZM639.255 686.5C639.255 683.74 640.995 682.44 642.915 682.44C644.795 682.44 646.615 683.74 646.615 686.5C646.615 689.28 644.755 690.58 642.855 690.58C640.955 690.58 639.255 689.28 639.255 686.5ZM641.335 679.42C641.895 679.42 642.375 678.96 642.375 678.38C642.375 677.8 641.895 677.32 641.335 677.32C640.735 677.32 640.275 677.8 640.275 678.38C640.275 678.96 640.735 679.42 641.335 679.42ZM644.575 679.42C645.155 679.42 645.635 678.96 645.635 678.38C645.635 677.8 645.155 677.32 644.575 677.32C643.975 677.32 643.535 677.8 643.535 678.38C643.535 678.96 643.975 679.42 644.575 679.42ZM652.688 683.08V677.2H650.868V692H652.688V689.98C653.368 691.18 654.788 692.18 656.788 692.18C659.728 692.18 661.988 689.88 661.988 686.48C661.988 683.06 659.748 680.86 656.788 680.86C654.848 680.86 653.388 681.86 652.688 683.08ZM660.128 686.48C660.128 689.06 658.428 690.58 656.408 690.58C654.428 690.58 652.688 689.08 652.688 686.5C652.688 683.96 654.428 682.44 656.408 682.44C658.428 682.44 660.128 683.9 660.128 686.48ZM669.044 690.64C667.164 690.64 665.564 689.46 665.584 687.32H672.504C672.304 689.46 670.824 690.64 669.044 690.64ZM668.964 692.18C672.164 692.18 674.384 690 674.384 686.54C674.384 683.06 672.084 680.86 668.964 680.86C666.244 680.86 664.484 682.42 663.924 684.42H665.884C666.284 683.24 667.324 682.4 668.964 682.4C670.824 682.4 672.384 683.62 672.524 685.84H663.764C663.724 686.22 663.704 686.54 663.704 686.94C663.704 689.94 665.784 692.18 668.964 692.18ZM684.666 689.02C684.586 685.1 678.226 686.52 678.226 683.92C678.226 683.04 679.026 682.4 680.366 682.4C681.826 682.4 682.666 683.2 682.746 684.3H684.566C684.446 682.16 682.846 680.86 680.426 680.86C677.986 680.86 676.406 682.24 676.406 683.92C676.406 688 682.886 686.58 682.886 689.02C682.886 689.92 682.086 690.64 680.646 690.64C679.106 690.64 678.166 689.84 678.066 688.78H676.186C676.306 690.78 678.106 692.18 680.666 692.18C683.086 692.18 684.666 690.82 684.666 689.02ZM687.235 692H689.055V681.04H687.235V692ZM688.175 679.26C688.835 679.26 689.375 678.72 689.375 678.02C689.375 677.32 688.835 676.78 688.175 676.78C687.475 676.78 686.935 677.32 686.935 678.02C686.935 678.72 687.475 679.26 688.175 679.26Z" fill="white"/>
<path d="M1021.98 638H1023.8V627.66L1028.42 638H1029.7L1034.3 627.68V638H1036.12V624.16H1034.18L1029.06 635.6L1023.94 624.16H1021.98V638ZM1038.53 632.48C1038.53 635.88 1040.79 638.18 1043.71 638.18C1045.73 638.18 1047.15 637.14 1047.81 635.96V638H1049.65V627.04H1047.81V629.04C1047.17 627.9 1045.77 626.86 1043.73 626.86C1040.79 626.86 1038.53 629.06 1038.53 632.48ZM1047.81 632.5C1047.81 635.08 1046.09 636.58 1044.09 636.58C1042.09 636.58 1040.39 635.06 1040.39 632.48C1040.39 629.9 1042.09 628.44 1044.09 628.44C1046.09 628.44 1047.81 629.96 1047.81 632.5ZM1052.72 638H1054.54V623.2H1052.72V638ZM1057.64 638H1059.46V627.04H1057.64V638ZM1058.58 625.26C1059.24 625.26 1059.78 624.72 1059.78 624.02C1059.78 623.32 1059.24 622.78 1058.58 622.78C1057.88 622.78 1057.34 623.32 1057.34 624.02C1057.34 624.72 1057.88 625.26 1058.58 625.26ZM1066.73 635.92L1063.29 627.04H1061.27L1065.69 637.88L1063.53 643.16H1065.41L1072.01 627.04H1070.13L1066.73 635.92ZM1078.49 636.64C1076.61 636.64 1075.01 635.46 1075.03 633.32H1081.95C1081.75 635.46 1080.27 636.64 1078.49 636.64ZM1078.41 638.18C1081.61 638.18 1083.83 636 1083.83 632.54C1083.83 629.06 1081.53 626.86 1078.41 626.86C1075.69 626.86 1073.93 628.42 1073.37 630.42H1075.33C1075.73 629.24 1076.77 628.4 1078.41 628.4C1080.27 628.4 1081.83 629.62 1081.97 631.84H1073.21C1073.17 632.22 1073.15 632.54 1073.15 632.94C1073.15 635.94 1075.23 638.18 1078.41 638.18ZM1084.66 640.86H1085.88L1088.12 635.48H1086.12L1084.66 640.86ZM1103.41 635.02C1103.33 631.1 1096.97 632.52 1096.97 629.92C1096.97 629.04 1097.77 628.4 1099.11 628.4C1100.57 628.4 1101.41 629.2 1101.49 630.3H1103.31C1103.19 628.16 1101.59 626.86 1099.17 626.86C1096.73 626.86 1095.15 628.24 1095.15 629.92C1095.15 634 1101.63 632.58 1101.63 635.02C1101.63 635.92 1100.83 636.64 1099.39 636.64C1097.85 636.64 1096.91 635.84 1096.81 634.78H1094.93C1095.05 636.78 1096.85 638.18 1099.41 638.18C1101.83 638.18 1103.41 636.82 1103.41 635.02ZM1106.38 635C1106.38 637.2 1107.48 638 1109.42 638H1111.06V636.46H1109.72C1108.6 636.46 1108.2 636.08 1108.2 635V628.54H1111.06V627.04H1108.2V624.28H1106.38V627.04H1104.96V628.54H1106.38V635ZM1115.09 632.04C1115.09 629.5 1116.41 628.72 1118.15 628.72H1118.63V626.84C1116.89 626.84 1115.71 627.6 1115.09 628.82V627.04H1113.27V638H1115.09V632.04ZM1120.05 632.48C1120.05 635.88 1122.31 638.18 1125.23 638.18C1127.25 638.18 1128.67 637.14 1129.33 635.96V638H1131.17V627.04H1129.33V629.04C1128.69 627.9 1127.29 626.86 1125.25 626.86C1122.31 626.86 1120.05 629.06 1120.05 632.48ZM1129.33 632.5C1129.33 635.08 1127.61 636.58 1125.61 636.58C1123.61 636.58 1121.91 635.06 1121.91 632.48C1121.91 629.9 1123.61 628.44 1125.61 628.44C1127.61 628.44 1129.33 629.96 1129.33 632.5ZM1134.65 635C1134.65 637.2 1135.75 638 1137.69 638H1139.33V636.46H1137.99C1136.87 636.46 1136.47 636.08 1136.47 635V628.54H1139.33V627.04H1136.47V624.28H1134.65V627.04H1133.23V628.54H1134.65V635ZM1146.19 628.4C1148.07 628.4 1149.67 629.58 1149.65 631.72H1142.73C1142.93 629.58 1144.41 628.4 1146.19 628.4ZM1151.31 634.62H1149.35C1148.95 635.8 1147.91 636.64 1146.27 636.64C1144.41 636.64 1142.85 635.42 1142.71 633.2H1151.47C1151.51 632.82 1151.53 632.5 1151.53 632.1C1151.53 629.1 1149.45 626.86 1146.27 626.86C1143.07 626.86 1140.85 629.04 1140.85 632.5C1140.85 635.98 1143.15 638.18 1146.27 638.18C1148.99 638.18 1150.75 636.62 1151.31 634.62ZM1153.25 632.48C1153.25 635.88 1155.51 638.18 1158.45 638.18C1160.45 638.18 1161.87 637.12 1162.53 635.94V638.24C1162.53 640.58 1161.07 641.82 1159.13 641.82C1157.33 641.82 1156.03 640.92 1155.63 639.6H1153.83C1154.19 641.94 1156.25 643.4 1159.13 643.4C1162.35 643.4 1164.37 641.26 1164.37 638.24V627.04H1162.53V629.04C1161.89 627.86 1160.45 626.86 1158.45 626.86C1155.51 626.86 1153.25 629.06 1153.25 632.48ZM1162.53 632.5C1162.53 635.08 1160.81 636.58 1158.81 636.58C1156.81 636.58 1155.11 635.06 1155.11 632.48C1155.11 629.9 1156.81 628.44 1158.81 628.44C1160.81 628.44 1162.53 629.96 1162.53 632.5ZM1167.45 638H1169.27V627.04H1167.45V638ZM1168.39 625.26C1169.05 625.26 1169.59 624.72 1169.59 624.02C1169.59 623.32 1169.05 622.78 1168.39 622.78C1167.69 622.78 1167.15 623.32 1167.15 624.02C1167.15 624.72 1167.69 625.26 1168.39 625.26ZM1176.53 635.92L1173.09 627.04H1171.07L1175.49 637.88L1173.33 643.16H1175.21L1181.81 627.04H1179.93L1176.53 635.92ZM1182.96 632.48C1182.96 635.88 1185.22 638.18 1188.14 638.18C1190.16 638.18 1191.58 637.14 1192.24 635.96V638H1194.08V627.04H1192.24V629.04C1191.6 627.9 1190.2 626.86 1188.16 626.86C1185.22 626.86 1182.96 629.06 1182.96 632.48ZM1192.24 632.5C1192.24 635.08 1190.52 636.58 1188.52 636.58C1186.52 636.58 1184.82 635.06 1184.82 632.48C1184.82 629.9 1186.52 628.44 1188.52 628.44C1190.52 628.44 1192.24 629.96 1192.24 632.5ZM1201.19 627.04L1205.49 638H1207.61L1211.91 627.04H1209.97L1206.57 636.32L1203.15 627.04H1201.19ZM1218.36 636.64C1216.48 636.64 1214.88 635.46 1214.9 633.32H1221.82C1221.62 635.46 1220.14 636.64 1218.36 636.64ZM1218.28 638.18C1221.48 638.18 1223.7 636 1223.7 632.54C1223.7 629.06 1221.4 626.86 1218.28 626.86C1215.56 626.86 1213.8 628.42 1213.24 630.42H1215.2C1215.6 629.24 1216.64 628.4 1218.28 628.4C1220.14 628.4 1221.7 629.62 1221.84 631.84H1213.08C1213.04 632.22 1213.02 632.54 1213.02 632.94C1213.02 635.94 1215.1 638.18 1218.28 638.18ZM1053.53 668H1055.33V661.54C1055.33 658.4 1053.39 656.84 1050.89 656.84C1049.21 656.84 1047.65 657.7 1047.01 659.28C1046.29 657.64 1044.79 656.84 1042.99 656.84C1041.55 656.84 1040.25 657.46 1039.53 658.62V657.04H1037.71V668H1039.53V661.96C1039.53 659.6 1040.79 658.42 1042.63 658.42C1044.43 658.42 1045.63 659.56 1045.63 661.8V668H1047.43V661.96C1047.43 659.6 1048.69 658.42 1050.53 658.42C1052.33 658.42 1053.53 659.56 1053.53 661.8V668ZM1057.64 662.48C1057.64 665.88 1059.9 668.18 1062.82 668.18C1064.84 668.18 1066.26 667.14 1066.92 665.96V668H1068.76V657.04H1066.92V659.04C1066.28 657.9 1064.88 656.86 1062.84 656.86C1059.9 656.86 1057.64 659.06 1057.64 662.48ZM1066.92 662.5C1066.92 665.08 1065.2 666.58 1063.2 666.58C1061.2 666.58 1059.5 665.06 1059.5 662.48C1059.5 659.9 1061.2 658.44 1063.2 658.44C1065.2 658.44 1066.92 659.96 1066.92 662.5ZM1073.65 662.04C1073.65 659.5 1074.97 658.72 1076.71 658.72H1077.19V656.84C1075.45 656.84 1074.27 657.6 1073.65 658.82V657.04H1071.83V668H1073.65V662.04ZM1079.29 668H1081.11V663.16L1085.41 668H1087.89L1082.71 662.5L1087.87 657.04H1085.33L1081.11 661.9V653.2H1079.29V668ZM1094.25 658.4C1096.13 658.4 1097.73 659.58 1097.71 661.72H1090.79C1090.99 659.58 1092.47 658.4 1094.25 658.4ZM1099.37 664.62H1097.41C1097.01 665.8 1095.97 666.64 1094.33 666.64C1092.47 666.64 1090.91 665.42 1090.77 663.2H1099.53C1099.57 662.82 1099.59 662.5 1099.59 662.1C1099.59 659.1 1097.51 656.86 1094.33 656.86C1091.13 656.86 1088.91 659.04 1088.91 662.5C1088.91 665.98 1091.21 668.18 1094.33 668.18C1097.05 668.18 1098.81 666.62 1099.37 664.62ZM1102.39 665C1102.39 667.2 1103.49 668 1105.43 668H1107.07V666.46H1105.73C1104.61 666.46 1104.21 666.08 1104.21 665V658.54H1107.07V657.04H1104.21V654.28H1102.39V657.04H1100.97V658.54H1102.39V665ZM1109.27 668H1111.09V657.04H1109.27V668ZM1110.21 655.26C1110.87 655.26 1111.41 654.72 1111.41 654.02C1111.41 653.32 1110.87 652.78 1110.21 652.78C1109.51 652.78 1108.97 653.32 1108.97 654.02C1108.97 654.72 1109.51 655.26 1110.21 655.26ZM1122.22 668H1124.02V661.54C1124.02 658.4 1122.08 656.84 1119.54 656.84C1118.06 656.84 1116.74 657.46 1116.02 658.6V657.04H1114.2V668H1116.02V661.94C1116.02 659.58 1117.3 658.42 1119.16 658.42C1121 658.42 1122.22 659.56 1122.22 661.8V668ZM1126.31 662.48C1126.31 665.88 1128.57 668.18 1131.47 668.18C1133.51 668.18 1134.97 667.1 1135.59 665.98V673.2H1137.43V657.04H1135.59V659.04C1134.97 657.9 1133.53 656.86 1131.53 656.86C1128.57 656.86 1126.31 659.06 1126.31 662.48ZM1135.59 662.5C1135.59 665.08 1133.87 666.58 1131.87 666.58C1129.87 666.58 1128.17 665.06 1128.17 662.48C1128.17 659.9 1129.87 658.44 1131.87 658.44C1133.87 658.44 1135.59 659.96 1135.59 662.5ZM1153.72 665.02C1153.64 661.1 1147.28 662.52 1147.28 659.92C1147.28 659.04 1148.08 658.4 1149.42 658.4C1150.88 658.4 1151.72 659.2 1151.8 660.3H1153.62C1153.5 658.16 1151.9 656.86 1149.48 656.86C1147.04 656.86 1145.46 658.24 1145.46 659.92C1145.46 664 1151.94 662.58 1151.94 665.02C1151.94 665.92 1151.14 666.64 1149.7 666.64C1148.16 666.64 1147.22 665.84 1147.12 664.78H1145.24C1145.34 666.58 1146.82 667.9 1148.98 668.14V670.28H1149.98C1150.84 670.28 1151.26 670.52 1151.26 671.14C1151.26 671.78 1150.84 672.02 1149.98 672.02H1148.04V673.2H1150.34C1151.76 673.2 1152.78 672.4 1152.78 671.14C1152.78 669.82 1151.74 669.14 1150.2 669.16V668.16C1152.34 668 1153.72 666.7 1153.72 665.02ZM1166.69 662.5C1166.69 659.04 1164.27 656.86 1161.15 656.86C1158.05 656.86 1155.61 659.04 1155.61 662.5C1155.61 665.98 1157.97 668.18 1161.07 668.18C1164.19 668.18 1166.69 665.98 1166.69 662.5ZM1157.47 662.5C1157.47 659.74 1159.21 658.44 1161.13 658.44C1163.01 658.44 1164.83 659.74 1164.83 662.5C1164.83 665.28 1162.97 666.58 1161.07 666.58C1159.17 666.58 1157.47 665.28 1157.47 662.5ZM1159.55 655.42C1160.11 655.42 1160.59 654.96 1160.59 654.38C1160.59 653.8 1160.11 653.32 1159.55 653.32C1158.95 653.32 1158.49 653.8 1158.49 654.38C1158.49 654.96 1158.95 655.42 1159.55 655.42ZM1162.79 655.42C1163.37 655.42 1163.85 654.96 1163.85 654.38C1163.85 653.8 1163.37 653.32 1162.79 653.32C1162.19 653.32 1161.75 653.8 1161.75 654.38C1161.75 654.96 1162.19 655.42 1162.79 655.42ZM1170.9 659.08V653.2H1169.08V668H1170.9V665.98C1171.58 667.18 1173 668.18 1175 668.18C1177.94 668.18 1180.2 665.88 1180.2 662.48C1180.2 659.06 1177.96 656.86 1175 656.86C1173.06 656.86 1171.6 657.86 1170.9 659.08ZM1178.34 662.48C1178.34 665.06 1176.64 666.58 1174.62 666.58C1172.64 666.58 1170.9 665.08 1170.9 662.5C1170.9 659.96 1172.64 658.44 1174.62 658.44C1176.64 658.44 1178.34 659.9 1178.34 662.48ZM1187.25 666.64C1185.37 666.64 1183.77 665.46 1183.79 663.32H1190.71C1190.51 665.46 1189.03 666.64 1187.25 666.64ZM1187.17 668.18C1190.37 668.18 1192.59 666 1192.59 662.54C1192.59 659.06 1190.29 656.86 1187.17 656.86C1184.45 656.86 1182.69 658.42 1182.13 660.42H1184.09C1184.49 659.24 1185.53 658.4 1187.17 658.4C1189.03 658.4 1190.59 659.62 1190.73 661.84H1181.97C1181.93 662.22 1181.91 662.54 1181.91 662.94C1181.91 665.94 1183.99 668.18 1187.17 668.18ZM1202.88 665.02C1202.8 661.1 1196.44 662.52 1196.44 659.92C1196.44 659.04 1197.24 658.4 1198.58 658.4C1200.04 658.4 1200.88 659.2 1200.96 660.3H1202.78C1202.66 658.16 1201.06 656.86 1198.64 656.86C1196.2 656.86 1194.62 658.24 1194.62 659.92C1194.62 664 1201.1 662.58 1201.1 665.02C1201.1 665.92 1200.3 666.64 1198.86 666.64C1197.32 666.64 1196.38 665.84 1196.28 664.78H1194.4C1194.52 666.78 1196.32 668.18 1198.88 668.18C1201.3 668.18 1202.88 666.82 1202.88 665.02ZM1205.45 668H1207.27V657.04H1205.45V668ZM1206.39 655.26C1207.05 655.26 1207.59 654.72 1207.59 654.02C1207.59 653.32 1207.05 652.78 1206.39 652.78C1205.69 652.78 1205.15 653.32 1205.15 654.02C1205.15 654.72 1205.69 655.26 1206.39 655.26Z" fill="white"/>
<path d="M1059.08 809.54H1062.9V822H1064.72V809.54H1068.52V808.06H1059.08V809.54ZM1075.42 812.4C1077.3 812.4 1078.9 813.58 1078.88 815.72H1071.96C1072.16 813.58 1073.64 812.4 1075.42 812.4ZM1080.54 818.62H1078.58C1078.18 819.8 1077.14 820.64 1075.5 820.64C1073.64 820.64 1072.08 819.42 1071.94 817.2H1080.7C1080.74 816.82 1080.76 816.5 1080.76 816.1C1080.76 813.1 1078.68 810.86 1075.5 810.86C1072.3 810.86 1070.08 813.04 1070.08 816.5C1070.08 819.98 1072.38 822.18 1075.5 822.18C1078.22 822.18 1079.98 820.62 1080.54 818.62ZM1088.88 822H1090.94L1087.4 816.46L1090.92 811.04H1089.02L1086.54 815.1L1083.94 811.04H1081.88L1085.42 816.56L1081.88 822H1083.78L1086.28 817.92L1088.88 822ZM1100.75 822H1102.55V815.54C1102.55 812.4 1100.61 810.84 1098.07 810.84C1096.59 810.84 1095.27 811.46 1094.55 812.6V811.04H1092.73V822H1094.55V815.94C1094.55 813.58 1095.83 812.42 1097.69 812.42C1099.53 812.42 1100.75 813.56 1100.75 815.8V822ZM1105.52 822H1107.34V811.04H1105.52V822ZM1106.46 809.26C1107.12 809.26 1107.66 808.72 1107.66 808.02C1107.66 807.32 1107.12 806.78 1106.46 806.78C1105.76 806.78 1105.22 807.32 1105.22 808.02C1105.22 808.72 1105.76 809.26 1106.46 809.26ZM1110.44 822H1112.26V817.16L1116.56 822H1119.04L1113.86 816.5L1119.02 811.04H1116.48L1112.26 815.9V807.2H1110.44V822ZM1120.74 822H1122.56V811.04H1120.74V822ZM1121.68 809.26C1122.34 809.26 1122.88 808.72 1122.88 808.02C1122.88 807.32 1122.34 806.78 1121.68 806.78C1120.98 806.78 1120.44 807.32 1120.44 808.02C1120.44 808.72 1120.98 809.26 1121.68 809.26ZM1130.99 822H1132.81V815.94C1132.81 813.58 1134.09 812.42 1135.95 812.42C1137.79 812.42 1139.01 813.56 1139.01 815.8V822H1140.81V815.54C1140.81 812.4 1138.87 810.84 1136.43 810.84C1134.89 810.84 1133.53 811.46 1132.81 812.62V807.2H1130.99V822ZM1148.44 812.4C1150.32 812.4 1151.92 813.58 1151.9 815.72H1144.98C1145.18 813.58 1146.66 812.4 1148.44 812.4ZM1153.56 818.62H1151.6C1151.2 819.8 1150.16 820.64 1148.52 820.64C1146.66 820.64 1145.1 819.42 1144.96 817.2H1153.72C1153.76 816.82 1153.78 816.5 1153.78 816.1C1153.78 813.1 1151.7 810.86 1148.52 810.86C1145.32 810.86 1143.1 813.04 1143.1 816.5C1143.1 819.98 1145.4 822.18 1148.52 822.18C1151.24 822.18 1153 820.62 1153.56 818.62ZM1160.35 819.92L1156.91 811.04H1154.89L1159.31 821.88L1157.15 827.16H1159.03L1165.63 811.04H1163.75L1160.35 819.92ZM1172.12 820.64C1170.24 820.64 1168.64 819.46 1168.66 817.32H1175.58C1175.38 819.46 1173.9 820.64 1172.12 820.64ZM1172.04 822.18C1175.24 822.18 1177.46 820 1177.46 816.54C1177.46 813.06 1175.16 810.86 1172.04 810.86C1169.32 810.86 1167.56 812.42 1167 814.42H1168.96C1169.36 813.24 1170.4 812.4 1172.04 812.4C1173.9 812.4 1175.46 813.62 1175.6 815.84H1166.84C1166.8 816.22 1166.78 816.54 1166.78 816.94C1166.78 819.94 1168.86 822.18 1172.04 822.18ZM1180.26 819C1180.26 821.2 1181.36 822 1183.3 822H1184.94V820.46H1183.6C1182.48 820.46 1182.08 820.08 1182.08 819V812.54H1184.94V811.04H1182.08V808.28H1180.26V811.04H1178.84V812.54H1180.26V819Z" fill="white"/>
<path d="M421.385 446.74V452H423.205V446.74L427.745 438.06H425.725L422.285 445.12L418.845 438.06H416.825L421.385 446.74ZM434.325 442.4C436.205 442.4 437.805 443.58 437.785 445.72H430.865C431.065 443.58 432.545 442.4 434.325 442.4ZM439.445 448.62H437.485C437.085 449.8 436.045 450.64 434.405 450.64C432.545 450.64 430.985 449.42 430.845 447.2H439.605C439.645 446.82 439.665 446.5 439.665 446.1C439.665 443.1 437.585 440.86 434.405 440.86C431.205 440.86 428.985 443.04 428.985 446.5C428.985 449.98 431.285 452.18 434.405 452.18C437.125 452.18 438.885 450.62 439.445 448.62ZM443.887 446.04C443.887 443.5 445.207 442.72 446.947 442.72H447.427V440.84C445.687 440.84 444.507 441.6 443.887 442.82V441.04H442.067V452H443.887V446.04ZM455.26 449C455.26 451.2 456.36 452 458.3 452H459.94V450.46H458.6C457.48 450.46 457.08 450.08 457.08 449V442.54H459.94V441.04H457.08V438.28H455.26V441.04H453.84V442.54H455.26V449ZM466.805 450.64C464.925 450.64 463.325 449.46 463.345 447.32H470.265C470.065 449.46 468.585 450.64 466.805 450.64ZM466.725 452.18C469.925 452.18 472.145 450 472.145 446.54C472.145 443.06 469.845 440.86 466.725 440.86C464.005 440.86 462.245 442.42 461.685 444.42H463.645C464.045 443.24 465.085 442.4 466.725 442.4C468.585 442.4 470.145 443.62 470.285 445.84H461.525C461.485 446.22 461.465 446.54 461.465 446.94C461.465 449.94 463.545 452.18 466.725 452.18ZM474.548 452H476.368V447.16L480.668 452H483.148L477.968 446.5L483.128 441.04H480.588L476.368 445.9V437.2H474.548V452ZM484.841 452H486.661V441.04H484.841V452ZM485.781 439.26C486.441 439.26 486.981 438.72 486.981 438.02C486.981 437.32 486.441 436.78 485.781 436.78C485.081 436.78 484.541 437.32 484.541 438.02C484.541 438.72 485.081 439.26 485.781 439.26ZM495.435 452H497.255V442.54H499.555V441.04H497.255V440.26C497.255 438.84 497.795 438.24 499.435 438.24V436.72C496.635 436.72 495.435 437.82 495.435 440.26V441.04H494.015V442.54H495.435V452ZM506.337 450.64C504.457 450.64 502.857 449.46 502.877 447.32H509.797C509.597 449.46 508.117 450.64 506.337 450.64ZM506.257 452.18C509.457 452.18 511.677 450 511.677 446.54C511.677 443.06 509.377 440.86 506.257 440.86C503.537 440.86 501.777 442.42 501.217 444.42H503.177C503.577 443.24 504.617 442.4 506.257 442.4C508.117 442.4 509.677 443.62 509.817 445.84H501.057C501.017 446.22 500.997 446.54 500.997 446.94C500.997 449.94 503.077 452.18 506.257 452.18ZM513.399 446.48C513.399 449.88 515.659 452.18 518.579 452.18C520.599 452.18 522.019 451.14 522.679 449.96V452H524.519V441.04H522.679V443.04C522.039 441.9 520.639 440.86 518.599 440.86C515.659 440.86 513.399 443.06 513.399 446.48ZM522.679 446.5C522.679 449.08 520.959 450.58 518.959 450.58C516.959 450.58 515.259 449.06 515.259 446.48C515.259 443.9 516.959 442.44 518.959 442.44C520.959 442.44 522.679 443.96 522.679 446.5ZM527.595 452H529.415V437.2H527.595V452ZM532.517 452H534.337V441.04H532.517V452ZM533.457 439.26C534.117 439.26 534.657 438.72 534.657 438.02C534.657 437.32 534.117 436.78 533.457 436.78C532.757 436.78 532.217 437.32 532.217 438.02C532.217 438.72 532.757 439.26 533.457 439.26ZM541.598 449.92L538.158 441.04H536.138L540.558 451.88L538.398 457.16H540.278L546.878 441.04H544.998L541.598 449.92ZM552.868 449.92L549.428 441.04H547.408L551.828 451.88L549.668 457.16H551.548L558.148 441.04H556.268L552.868 449.92ZM564.638 450.64C562.758 450.64 561.158 449.46 561.178 447.32H568.098C567.898 449.46 566.418 450.64 564.638 450.64ZM564.558 452.18C567.758 452.18 569.978 450 569.978 446.54C569.978 443.06 567.678 440.86 564.558 440.86C561.838 440.86 560.078 442.42 559.518 444.42H561.478C561.878 443.24 562.918 442.4 564.558 442.4C566.418 442.4 567.978 443.62 568.118 445.84H559.358C559.318 446.22 559.298 446.54 559.298 446.94C559.298 449.94 561.377 452.18 564.558 452.18ZM572.78 449C572.78 451.2 573.88 452 575.82 452H577.46V450.46H576.12C575 450.46 574.6 450.08 574.6 449V442.54H577.46V441.04H574.6V438.28H572.78V441.04H571.36V442.54H572.78V449ZM579.665 452H581.485V441.04H579.665V452ZM580.605 439.26C581.265 439.26 581.805 438.72 581.805 438.02C581.805 437.32 581.265 436.78 580.605 436.78C579.905 436.78 579.365 437.32 579.365 438.02C579.365 438.72 579.905 439.26 580.605 439.26ZM592.607 452H594.407V445.54C594.407 442.4 592.467 440.84 589.927 440.84C588.447 440.84 587.127 441.46 586.407 442.6V441.04H584.587V452H586.407V445.94C586.407 443.58 587.687 442.42 589.547 442.42C591.387 442.42 592.607 443.56 592.607 445.8V452ZM597.38 452H599.2V441.04H597.38V452ZM598.32 439.26C598.98 439.26 599.52 438.72 599.52 438.02C599.52 437.32 598.98 436.78 598.32 436.78C597.62 436.78 597.08 437.32 597.08 438.02C597.08 438.72 597.62 439.26 598.32 439.26ZM610.322 452H612.122V445.54C612.122 442.4 610.182 440.84 607.642 440.84C606.162 440.84 604.842 441.46 604.122 442.6V441.04H602.302V452H604.122V445.94C604.122 443.58 605.402 442.42 607.262 442.42C609.102 442.42 610.322 443.56 610.322 445.8V452ZM426.999 479C426.999 481.2 428.099 482 430.039 482H431.679V480.46H430.339C429.219 480.46 428.819 480.08 428.819 479V472.54H431.679V471.04H428.819V468.28H426.999V471.04H425.579V472.54H426.999V479ZM438.544 480.64C436.664 480.64 435.064 479.46 435.084 477.32H442.004C441.804 479.46 440.324 480.64 438.544 480.64ZM438.464 482.18C441.664 482.18 443.884 480 443.884 476.54C443.884 473.06 441.584 470.86 438.464 470.86C435.744 470.86 433.984 472.42 433.424 474.42H435.384C435.784 473.24 436.824 472.4 438.464 472.4C440.324 472.4 441.884 473.62 442.024 475.84H433.264C433.224 476.22 433.204 476.54 433.204 476.94C433.204 479.94 435.284 482.18 438.464 482.18ZM454.306 482H456.106V475.54C456.106 472.4 454.166 470.84 451.626 470.84C450.146 470.84 448.826 471.46 448.106 472.6V471.04H446.286V482H448.106V475.94C448.106 473.58 449.386 472.42 451.246 472.42C453.086 472.42 454.306 473.56 454.306 475.8V482ZM465.779 471.04H458.399V472.52H463.679L458.359 480.5V482H465.819V480.5H460.439L465.779 472.52V471.04ZM468.181 482H470.001V471.04H468.181V482ZM469.121 469.26C469.781 469.26 470.321 468.72 470.321 468.02C470.321 467.32 469.781 466.78 469.121 466.78C468.421 466.78 467.881 467.32 467.881 468.02C467.881 468.72 468.421 469.26 469.121 469.26ZM488.923 482H490.723V475.54C490.723 472.4 488.783 470.84 486.283 470.84C484.603 470.84 483.043 471.7 482.403 473.28C481.683 471.64 480.183 470.84 478.383 470.84C476.943 470.84 475.643 471.46 474.923 472.62V471.04H473.103V482H474.923V475.96C474.923 473.6 476.183 472.42 478.023 472.42C479.823 472.42 481.023 473.56 481.023 475.8V482H482.823V475.96C482.823 473.6 484.083 472.42 485.923 472.42C487.723 472.42 488.923 473.56 488.923 475.8V482ZM493.708 482H495.528V467.2H493.708V482ZM503.29 480.64C501.41 480.64 499.81 479.46 499.83 477.32H506.75C506.55 479.46 505.07 480.64 503.29 480.64ZM503.21 482.18C506.41 482.18 508.63 480 508.63 476.54C508.63 473.06 506.33 470.86 503.21 470.86C500.49 470.86 498.73 472.42 498.17 474.42H500.13C500.53 473.24 501.57 472.4 503.21 472.4C505.07 472.4 506.63 473.62 506.77 475.84H498.01C497.97 476.22 497.95 476.54 497.95 476.94C497.95 479.94 500.03 482.18 503.21 482.18ZM519.052 482H520.852V475.54C520.852 472.4 518.912 470.84 516.372 470.84C514.892 470.84 513.572 471.46 512.852 472.6V471.04H511.032V482H512.852V475.94C512.852 473.58 514.132 472.42 515.992 472.42C517.832 472.42 519.052 473.56 519.052 475.8V482ZM539.645 482H541.445V475.54C541.445 472.4 539.505 470.84 537.005 470.84C535.325 470.84 533.765 471.7 533.125 473.28C532.405 471.64 530.905 470.84 529.105 470.84C527.665 470.84 526.365 471.46 525.645 472.62V471.04H523.825V482H525.645V475.96C525.645 473.6 526.905 472.42 528.745 472.42C530.545 472.42 531.745 473.56 531.745 475.8V482H533.545V475.96C533.545 473.6 534.805 472.42 536.645 472.42C538.445 472.42 539.645 473.56 539.645 475.8V482ZM549.091 480.64C547.211 480.64 545.611 479.46 545.631 477.32H552.551C552.351 479.46 550.871 480.64 549.091 480.64ZM549.011 482.18C552.211 482.18 554.431 480 554.431 476.54C554.431 473.06 552.131 470.86 549.011 470.86C546.291 470.86 544.531 472.42 543.971 474.42H545.931C546.331 473.24 547.371 472.4 549.011 472.4C550.871 472.4 552.431 473.62 552.571 475.84H543.811C543.771 476.22 543.751 476.54 543.751 476.94C543.751 479.94 545.831 482.18 549.011 482.18ZM564.713 479.02C564.633 475.1 558.273 476.52 558.273 473.92C558.273 473.04 559.073 472.4 560.413 472.4C561.873 472.4 562.713 473.2 562.793 474.3H564.613C564.493 472.16 562.893 470.86 560.473 470.86C558.033 470.86 556.453 472.24 556.453 473.92C556.453 478 562.933 476.58 562.933 479.02C562.933 479.92 562.133 480.64 560.693 480.64C559.153 480.64 558.213 479.84 558.113 478.78H556.233C556.353 480.78 558.153 482.18 560.713 482.18C563.133 482.18 564.713 480.82 564.713 479.02ZM567.282 482H569.102V471.04H567.282V482ZM568.222 469.26C568.882 469.26 569.422 468.72 569.422 468.02C569.422 467.32 568.882 466.78 568.222 466.78C567.522 466.78 566.982 467.32 566.982 468.02C566.982 468.72 567.522 469.26 568.222 469.26ZM576.236 471.04L580.536 482H582.656L586.956 471.04H585.016L581.616 480.32L578.196 471.04H576.236ZM593.407 480.64C591.527 480.64 589.927 479.46 589.947 477.32H596.867C596.667 479.46 595.187 480.64 593.407 480.64ZM593.327 482.18C596.527 482.18 598.747 480 598.747 476.54C598.747 473.06 596.447 470.86 593.327 470.86C590.607 470.86 588.847 472.42 588.287 474.42H590.247C590.647 473.24 591.687 472.4 593.327 472.4C595.187 472.4 596.747 473.62 596.887 475.84H588.127C588.087 476.22 588.067 476.54 588.067 476.94C588.067 479.94 590.147 482.18 593.327 482.18ZM452.148 512H453.948V505.54C453.948 502.4 452.008 500.84 449.468 500.84C447.988 500.84 446.668 501.46 445.948 502.6V501.04H444.128V512H445.948V505.94C445.948 503.58 447.228 502.42 449.088 502.42C450.928 502.42 452.148 503.56 452.148 505.8V512ZM461.581 510.64C459.701 510.64 458.101 509.46 458.121 507.32H465.041C464.841 509.46 463.361 510.64 461.581 510.64ZM461.501 512.18C464.701 512.18 466.921 510 466.921 506.54C466.921 503.06 464.621 500.86 461.501 500.86C458.781 500.86 457.021 502.42 456.461 504.42H458.421C458.821 503.24 459.861 502.4 461.501 502.4C463.361 502.4 464.921 503.62 465.061 505.84H456.301C456.261 506.22 456.241 506.54 456.241 506.94C456.241 509.94 458.321 512.18 461.501 512.18ZM476.023 501.04H468.643V502.52H473.923L468.603 510.5V512H476.063V510.5H470.683L476.023 502.52V501.04ZM477.745 506.48C477.745 509.88 480.005 512.18 482.925 512.18C484.945 512.18 486.365 511.14 487.025 509.96V512H488.865V501.04H487.025V503.04C486.385 501.9 484.985 500.86 482.945 500.86C480.005 500.86 477.745 503.06 477.745 506.48ZM487.025 506.5C487.025 509.08 485.305 510.58 483.305 510.58C481.305 510.58 479.605 509.06 479.605 506.48C479.605 503.9 481.305 502.44 483.305 502.44C485.305 502.44 487.025 503.96 487.025 506.5ZM493.76 506.04C493.76 503.5 495.08 502.72 496.82 502.72H497.3V500.84C495.56 500.84 494.38 501.6 493.76 502.82V501.04H491.94V512H493.76V506.04ZM504.061 510.64C502.181 510.64 500.581 509.46 500.601 507.32H507.521C507.321 509.46 505.841 510.64 504.061 510.64ZM503.981 512.18C507.181 512.18 509.401 510 509.401 506.54C509.401 503.06 507.101 500.86 503.981 500.86C501.261 500.86 499.501 502.42 498.941 504.42H500.901C501.301 503.24 502.341 502.4 503.981 502.4C505.841 502.4 507.401 503.62 507.541 505.84H498.781C498.741 506.22 498.721 506.54 498.721 506.94C498.721 509.94 500.801 512.18 503.981 512.18ZM512.204 509C512.204 511.2 513.304 512 515.244 512H516.884V510.46H515.544C514.424 510.46 514.024 510.08 514.024 509V502.54H516.884V501.04H514.024V498.28H512.204V501.04H510.784V502.54H512.204V509ZM532.301 509.02C532.221 505.1 525.861 506.52 525.861 503.92C525.861 503.04 526.661 502.4 528.001 502.4C529.461 502.4 530.301 503.2 530.381 504.3H532.201C532.081 502.16 530.481 500.86 528.061 500.86C525.621 500.86 524.041 502.24 524.041 503.92C524.041 508 530.521 506.58 530.521 509.02C530.521 509.92 529.721 510.64 528.281 510.64C526.741 510.64 525.801 509.84 525.701 508.78H523.821C523.921 510.58 525.401 511.9 527.561 512.14V514.28H528.561C529.421 514.28 529.841 514.52 529.841 515.14C529.841 515.78 529.421 516.02 528.561 516.02H526.621V517.2H528.921C530.341 517.2 531.361 516.4 531.361 515.14C531.361 513.82 530.321 513.14 528.781 513.16V512.16C530.921 512 532.301 510.7 532.301 509.02ZM545.27 506.5C545.27 503.04 542.85 500.86 539.73 500.86C536.63 500.86 534.19 503.04 534.19 506.5C534.19 509.98 536.55 512.18 539.65 512.18C542.77 512.18 545.27 509.98 545.27 506.5ZM536.05 506.5C536.05 503.74 537.79 502.44 539.71 502.44C541.59 502.44 543.41 503.74 543.41 506.5C543.41 509.28 541.55 510.58 539.65 510.58C537.75 510.58 536.05 509.28 536.05 506.5ZM538.13 499.42C538.69 499.42 539.17 498.96 539.17 498.38C539.17 497.8 538.69 497.32 538.13 497.32C537.53 497.32 537.07 497.8 537.07 498.38C537.07 498.96 537.53 499.42 538.13 499.42ZM541.37 499.42C541.95 499.42 542.43 498.96 542.43 498.38C542.43 497.8 541.95 497.32 541.37 497.32C540.77 497.32 540.33 497.8 540.33 498.38C540.33 498.96 540.77 499.42 541.37 499.42ZM549.483 503.08V497.2H547.663V512H549.483V509.98C550.163 511.18 551.583 512.18 553.583 512.18C556.523 512.18 558.783 509.88 558.783 506.48C558.783 503.06 556.543 500.86 553.583 500.86C551.643 500.86 550.183 501.86 549.483 503.08ZM556.923 506.48C556.923 509.06 555.223 510.58 553.203 510.58C551.223 510.58 549.483 509.08 549.483 506.5C549.483 503.96 551.223 502.44 553.203 502.44C555.223 502.44 556.923 503.9 556.923 506.48ZM565.839 510.64C563.959 510.64 562.359 509.46 562.379 507.32H569.299C569.099 509.46 567.619 510.64 565.839 510.64ZM565.759 512.18C568.959 512.18 571.179 510 571.179 506.54C571.179 503.06 568.879 500.86 565.759 500.86C563.039 500.86 561.279 502.42 560.719 504.42H562.679C563.079 503.24 564.119 502.4 565.759 502.4C567.619 502.4 569.179 503.62 569.319 505.84H560.559C560.519 506.22 560.499 506.54 560.499 506.94C560.499 509.94 562.579 512.18 565.759 512.18ZM581.461 509.02C581.381 505.1 575.021 506.52 575.021 503.92C575.021 503.04 575.821 502.4 577.161 502.4C578.621 502.4 579.461 503.2 579.541 504.3H581.361C581.241 502.16 579.641 500.86 577.221 500.86C574.781 500.86 573.201 502.24 573.201 503.92C573.201 508 579.681 506.58 579.681 509.02C579.681 509.92 578.881 510.64 577.441 510.64C575.901 510.64 574.961 509.84 574.861 508.78H572.981C573.101 510.78 574.901 512.18 577.461 512.18C579.881 512.18 581.461 510.82 581.461 509.02ZM584.03 512H585.85V501.04H584.03V512ZM584.97 499.26C585.63 499.26 586.17 498.72 586.17 498.02C586.17 497.32 585.63 496.78 584.97 496.78C584.27 496.78 583.73 497.32 583.73 498.02C583.73 498.72 584.27 499.26 584.97 499.26Z" fill="white"/>
<path d="M857.6 315.2C857.6 310.04 850.08 312.28 850.08 308.68C850.08 307.18 851.26 306.4 852.76 306.44C854.46 306.46 855.34 307.52 855.46 308.46H857.46C857.24 306.34 855.5 304.88 852.84 304.88C850.08 304.88 848.22 306.44 848.22 308.74C848.22 313.92 855.76 311.52 855.76 315.28C855.76 316.6 854.72 317.6 852.96 317.6C851.02 317.6 850.2 316.44 850.08 315.28H848.14C848.18 317.58 850.16 319.14 852.96 319.14C855.98 319.14 857.6 317.18 857.6 315.2ZM864.938 317.64C863.058 317.64 861.458 316.46 861.478 314.32H868.398C868.198 316.46 866.718 317.64 864.938 317.64ZM864.858 319.18C868.058 319.18 870.278 317 870.278 313.54C870.278 310.06 867.978 307.86 864.858 307.86C862.138 307.86 860.378 309.42 859.818 311.42H861.778C862.178 310.24 863.218 309.4 864.858 309.4C866.718 309.4 868.278 310.62 868.418 312.84H859.658C859.618 313.22 859.598 313.54 859.598 313.94C859.598 316.94 861.678 319.18 864.858 319.18ZM872.001 313.48C872.001 316.88 874.261 319.18 877.201 319.18C879.201 319.18 880.621 318.16 881.281 316.94V319H883.121V304.2H881.281V310C880.521 308.74 878.941 307.86 877.221 307.86C874.261 307.86 872.001 310.06 872.001 313.48ZM881.281 313.5C881.281 316.08 879.561 317.58 877.561 317.58C875.561 317.58 873.861 316.06 873.861 313.48C873.861 310.9 875.561 309.44 877.561 309.44C879.561 309.44 881.281 310.96 881.281 313.5ZM888.016 313.04C888.016 310.5 889.336 309.72 891.076 309.72H891.556V307.84C889.816 307.84 888.636 308.6 888.016 309.82V308.04H886.196V319H888.016V313.04ZM914.809 319H916.609V312.54C916.609 309.4 914.669 307.84 912.169 307.84C910.489 307.84 908.929 308.7 908.289 310.28C907.569 308.64 906.069 307.84 904.269 307.84C902.829 307.84 901.529 308.46 900.809 309.62V308.04H898.989V319H900.809V312.96C900.809 310.6 902.069 309.42 903.909 309.42C905.709 309.42 906.909 310.56 906.909 312.8V319H908.709V312.96C908.709 310.6 909.969 309.42 911.809 309.42C913.609 309.42 914.809 310.56 914.809 312.8V319ZM929.315 308.04H927.495V314.06C927.495 316.42 926.235 317.58 924.355 317.58C922.515 317.58 921.295 316.44 921.295 314.22V308.04H919.495V314.46C919.495 317.6 921.475 319.16 923.995 319.16C925.455 319.16 926.795 318.52 927.495 317.38V319H929.315V308.04ZM922.855 306.56C923.415 306.56 923.895 306.1 923.895 305.52C923.895 304.94 923.415 304.46 922.855 304.46C922.255 304.46 921.795 304.94 921.795 305.52C921.795 306.1 922.255 306.56 922.855 306.56ZM926.095 306.56C926.675 306.56 927.155 306.1 927.155 305.52C927.155 304.94 926.675 304.46 926.095 304.46C925.495 304.46 925.055 304.94 925.055 305.52C925.055 306.1 925.495 306.56 926.095 306.56ZM931.708 313.48C931.708 316.88 933.968 319.18 936.888 319.18C938.908 319.18 940.328 318.14 940.988 316.96V319H942.828V308.04H940.988V310.04C940.348 308.9 938.948 307.86 936.908 307.86C933.968 307.86 931.708 310.06 931.708 313.48ZM940.988 313.5C940.988 316.08 939.268 317.58 937.268 317.58C935.268 317.58 933.568 316.06 933.568 313.48C933.568 310.9 935.268 309.44 937.268 309.44C939.268 309.44 940.988 310.96 940.988 313.5ZM944.603 308.04L948.903 319H951.023L955.323 308.04H953.383L949.983 317.32L946.563 308.04H944.603ZM957.114 319H958.934V308.04H957.114V319ZM958.054 306.26C958.714 306.26 959.254 305.72 959.254 305.02C959.254 304.32 958.714 303.78 958.054 303.78C957.354 303.78 956.814 304.32 956.814 305.02C956.814 305.72 957.354 306.26 958.054 306.26ZM970.056 319H971.856V312.54C971.856 309.4 969.916 307.84 967.376 307.84C965.896 307.84 964.576 308.46 963.856 309.6V308.04H962.036V319H963.856V312.94C963.856 310.58 965.136 309.42 966.996 309.42C968.836 309.42 970.056 310.56 970.056 312.8V319ZM974.829 319H976.649V308.04H974.829V319ZM975.769 306.26C976.429 306.26 976.969 305.72 976.969 305.02C976.969 304.32 976.429 303.78 975.769 303.78C975.069 303.78 974.529 304.32 974.529 305.02C974.529 305.72 975.069 306.26 975.769 306.26Z" fill="white"/>
<path d="M191 143.16C191 144.72 190.1 145.84 188.04 145.84H185.36V140.56H188.04C190.12 140.56 191 141.58 191 143.16ZM183.54 139.06V153H185.36V147.3H187.56L190.88 153H193.06L189.56 147.16C191.9 146.64 192.88 144.94 192.88 143.16C192.88 140.88 191.32 139.06 188.04 139.06H183.54ZM200.368 151.64C198.488 151.64 196.888 150.46 196.908 148.32H203.828C203.628 150.46 202.148 151.64 200.368 151.64ZM200.288 153.18C203.488 153.18 205.708 151 205.708 147.54C205.708 144.06 203.408 141.86 200.288 141.86C197.568 141.86 195.808 143.42 195.248 145.42H197.208C197.608 144.24 198.648 143.4 200.288 143.4C202.148 143.4 203.708 144.62 203.848 146.84H195.088C195.048 147.22 195.028 147.54 195.028 147.94C195.028 150.94 197.108 153.18 200.288 153.18ZM208.11 153H209.93V146.94C209.93 144.58 211.21 143.42 213.07 143.42C214.91 143.42 216.13 144.56 216.13 146.8V153H217.93V146.54C217.93 143.4 215.99 141.84 213.55 141.84C212.01 141.84 210.65 142.46 209.93 143.62V138.2H208.11V153ZM222.723 144.08V138.2H220.903V153H222.723V150.98C223.403 152.18 224.823 153.18 226.823 153.18C229.763 153.18 232.023 150.88 232.023 147.48C232.023 144.06 229.783 141.86 226.823 141.86C224.883 141.86 223.423 142.86 222.723 144.08ZM230.163 147.48C230.163 150.06 228.463 151.58 226.443 151.58C224.463 151.58 222.723 150.08 222.723 147.5C222.723 144.96 224.463 143.44 226.443 143.44C228.463 143.44 230.163 144.9 230.163 147.48ZM239.079 151.64C237.199 151.64 235.599 150.46 235.619 148.32H242.539C242.339 150.46 240.859 151.64 239.079 151.64ZM238.999 153.18C242.199 153.18 244.419 151 244.419 147.54C244.419 144.06 242.119 141.86 238.999 141.86C236.279 141.86 234.519 143.42 233.959 145.42H235.919C236.319 144.24 237.359 143.4 238.999 143.4C240.859 143.4 242.419 144.62 242.559 146.84H233.799C233.759 147.22 233.739 147.54 233.739 147.94C233.739 150.94 235.819 153.18 238.999 153.18ZM248.641 147.04C248.641 144.5 249.961 143.72 251.701 143.72H252.181V141.84C250.441 141.84 249.261 142.6 248.641 143.82V142.04H246.821V153H248.641V147.04ZM254.282 153H256.102V138.2H254.282V153ZM259.204 153H261.024V142.04H259.204V153ZM260.144 140.26C260.804 140.26 261.344 139.72 261.344 139.02C261.344 138.32 260.804 137.78 260.144 137.78C259.444 137.78 258.904 138.32 258.904 139.02C258.904 139.72 259.444 140.26 260.144 140.26ZM264.126 153H265.946V148.16L270.246 153H272.726L267.546 147.5L272.706 142.04H270.166L265.946 146.9V138.2H264.126V153ZM283.911 150.92L280.471 142.04H278.451L282.871 152.88L280.711 158.16H282.591L289.191 142.04H287.311L283.911 150.92ZM290.34 147.48C290.34 150.88 292.6 153.18 295.52 153.18C297.54 153.18 298.96 152.14 299.62 150.96V153H301.46V142.04H299.62V144.04C298.98 142.9 297.58 141.86 295.54 141.86C292.6 141.86 290.34 144.06 290.34 147.48ZM299.62 147.5C299.62 150.08 297.9 151.58 295.9 151.58C293.9 151.58 292.2 150.06 292.2 147.48C292.2 144.9 293.9 143.44 295.9 143.44C297.9 143.44 299.62 144.96 299.62 147.5ZM312.556 153H314.356V146.54C314.356 143.4 312.416 141.84 309.876 141.84C308.396 141.84 307.076 142.46 306.356 143.6V142.04H304.536V153H306.356V146.94C306.356 144.58 307.636 143.42 309.496 143.42C311.336 143.42 312.556 144.56 312.556 146.8V153ZM317.329 153H319.149V142.04H317.329V153ZM330.271 153H332.071V146.54C332.071 143.4 330.131 141.84 327.591 141.84C326.111 141.84 324.791 142.46 324.071 143.6V142.04H322.251V153H324.071V146.94C324.071 144.58 325.351 143.42 327.211 143.42C329.051 143.42 330.271 144.56 330.271 146.8V153ZM334.364 147.48C334.364 150.88 336.624 153.18 339.564 153.18C341.564 153.18 342.984 152.16 343.644 150.94V153H345.484V138.2H343.644V144C342.884 142.74 341.304 141.86 339.584 141.86C336.624 141.86 334.364 144.06 334.364 147.48ZM343.644 147.5C343.644 150.08 341.924 151.58 339.924 151.58C337.924 151.58 336.224 150.06 336.224 147.48C336.224 144.9 337.924 143.44 339.924 143.44C341.924 143.44 343.644 144.96 343.644 147.5ZM347.88 147.48C347.88 150.88 350.14 153.18 353.06 153.18C355.08 153.18 356.5 152.14 357.16 150.96V153H359V142.04H357.16V144.04C356.52 142.9 355.12 141.86 353.08 141.86C350.14 141.86 347.88 144.06 347.88 147.48ZM357.16 147.5C357.16 150.08 355.44 151.58 353.44 151.58C351.44 151.58 349.74 150.06 349.74 147.48C349.74 144.9 351.44 143.44 353.44 143.44C355.44 143.44 357.16 144.96 357.16 147.5ZM367.407 153H369.227V146.94C369.227 144.58 370.507 143.42 372.367 143.42C374.207 143.42 375.427 144.56 375.427 146.8V153H377.227V146.54C377.227 143.4 375.287 141.84 372.847 141.84C371.307 141.84 369.947 142.46 369.227 143.62V138.2H367.407V153ZM384.86 143.4C386.74 143.4 388.34 144.58 388.32 146.72H381.4C381.6 144.58 383.08 143.4 384.86 143.4ZM389.98 149.62H388.02C387.62 150.8 386.58 151.64 384.94 151.64C383.08 151.64 381.52 150.42 381.38 148.2H390.14C390.18 147.82 390.2 147.5 390.2 147.1C390.2 144.1 388.12 141.86 384.94 141.86C381.74 141.86 379.52 144.04 379.52 147.5C379.52 150.98 381.82 153.18 384.94 153.18C387.66 153.18 389.42 151.62 389.98 149.62ZM396.763 150.92L393.323 142.04H391.303L395.723 152.88L393.562 158.16H395.443L402.043 142.04H400.163L396.763 150.92ZM408.532 151.64C406.652 151.64 405.052 150.46 405.072 148.32H411.992C411.792 150.46 410.312 151.64 408.532 151.64ZM408.452 153.18C411.652 153.18 413.872 151 413.872 147.54C413.872 144.06 411.572 141.86 408.452 141.86C405.732 141.86 403.972 143.42 403.412 145.42H405.372C405.772 144.24 406.812 143.4 408.452 143.4C410.312 143.4 411.872 144.62 412.012 146.84H403.252C403.212 147.22 403.192 147.54 403.192 147.94C403.192 150.94 405.272 153.18 408.452 153.18ZM416.674 150C416.674 152.2 417.774 153 419.714 153H421.354V151.46H420.014C418.894 151.46 418.494 151.08 418.494 150V143.54H421.354V142.04H418.494V139.28H416.674V142.04H415.254V143.54H416.674V150Z" fill="white"/>
<g filter="url(#filter0_d)">
<circle cx="616" cy="147" r="10" fill="white"/>
<circle cx="616" cy="147" r="5" fill="#FF912C"/>
</g>
<g filter="url(#filter1_d)">
<circle cx="616" cy="307" r="10" fill="white"/>
<circle cx="616" cy="307" r="5" fill="#FF912C"/>
</g>
<circle cx="325" cy="433" r="10" fill="white"/>
<circle cx="325" cy="433" r="5" fill="#FF912C"/>
<g filter="url(#filter2_d)">
<circle cx="925" cy="639" r="10" fill="white"/>
<circle cx="925" cy="639" r="5" fill="#FF912C"/>
</g>
<defs>
<filter id="filter0_d" x="603" y="136" width="26" height="26" filterUnits="userSpaceOnUse" color-interpolation-filters="sRGB">
<feFlood flood-opacity="0" result="BackgroundImageFix"/>
<feColorMatrix in="SourceAlpha" type="matrix" values="0 0 0 0 0 0 0 0 0 0 0 0 0 0 0 0 0 0 127 0"/>
<feOffset dy="2"/>
<feGaussianBlur stdDeviation="1.5"/>
<feColorMatrix type="matrix" values="0 0 0 0 0 0 0 0 0 0 0 0 0 0 0 0 0 0 0.09 0"/>
<feBlend mode="normal" in2="BackgroundImageFix" result="effect1_dropShadow"/>
<feBlend mode="normal" in="SourceGraphic" in2="effect1_dropShadow" result="shape"/>
</filter>
<filter id="filter1_d" x="603" y="296" width="26" height="26" filterUnits="userSpaceOnUse" color-interpolation-filters="sRGB">
<feFlood flood-opacity="0" result="BackgroundImageFix"/>
<feColorMatrix in="SourceAlpha" type="matrix" values="0 0 0 0 0 0 0 0 0 0 0 0 0 0 0 0 0 0 127 0"/>
<feOffset dy="2"/>
<feGaussianBlur stdDeviation="1.5"/>
<feColorMatrix type="matrix" values="0 0 0 0 0 0 0 0 0 0 0 0 0 0 0 0 0 0 0.09 0"/>
<feBlend mode="normal" in2="BackgroundImageFix" result="effect1_dropShadow"/>
<feBlend mode="normal" in="SourceGraphic" in2="effect1_dropShadow" result="shape"/>
</filter>
<filter id="filter2_d" x="912" y="628" width="26" height="26" filterUnits="userSpaceOnUse" color-interpolation-filters="sRGB">
<feFlood flood-opacity="0" result="BackgroundImageFix"/>
<feColorMatrix in="SourceAlpha" type="matrix" values="0 0 0 0 0 0 0 0 0 0 0 0 0 0 0 0 0 0 127 0"/>
<feOffset dy="2"/>
<feGaussianBlur stdDeviation="1.5"/>
<feColorMatrix type="matrix" values="0 0 0 0 0 0 0 0 0 0 0 0 0 0 0 0 0 0 0.09 0"/>
<feBlend mode="normal" in2="BackgroundImageFix" result="effect1_dropShadow"/>
<feBlend mode="normal" in="SourceGraphic" in2="effect1_dropShadow" result="shape"/>
</filter>
</defs>
</svg>
