<svg width="62" height="62" fill="none" xmlns="http://www.w3.org/2000/svg"><g clip-path="url(#clip0)" fill="#FF912C"><path d="M31 10.783c-5.203 0-9.435 4.232-9.435 9.434 0 5.203 4.232 9.435 9.435 9.435s9.435-4.232 9.435-9.435c0-5.202-4.232-9.434-9.435-9.434zm0 16.173c-3.715 0-6.74-3.024-6.74-6.739A6.748 6.748 0 0131 13.478a6.748 6.748 0 016.739 6.74c0 3.714-3.024 6.738-6.74 6.738zm18.87-5.391a6.748 6.748 0 00-6.74 6.74c0 3.714 3.025 6.738 6.74 6.738 3.714 0 6.739-3.024 6.739-6.739 0-3.714-3.025-6.739-6.74-6.739zm0 10.783a4.048 4.048 0 01-4.044-4.044 4.048 4.048 0 014.044-4.043 4.048 4.048 0 014.043 4.043 4.048 4.048 0 01-4.043 4.044zM12.322 21.565a6.747 6.747 0 00-6.74 6.74c0 3.714 3.025 6.738 6.74 6.738 3.715 0 6.74-3.024 6.74-6.739a6.747 6.747 0 00-6.74-6.739zm0 10.783a4.048 4.048 0 01-4.043-4.044 4.048 4.048 0 014.043-4.043 4.048 4.048 0 014.044 4.043 4.048 4.048 0 01-4.044 4.044zm18.678 0c-9.661 0-17.522 7.86-17.522 17.522a1.348 1.348 0 002.696 0c0-8.176 6.65-14.826 14.826-14.826s14.826 6.65 14.826 14.826a1.348 1.348 0 002.696 0c0-9.662-7.86-17.522-17.522-17.522z"/><path d="M49.87 37.74c-2.219 0-4.392.606-6.284 1.751a1.352 1.352 0 00-.453 1.852 1.35 1.35 0 001.852.453 9.399 9.399 0 014.885-1.361c5.202 0 9.434 4.232 9.434 9.435a1.348 1.348 0 002.696 0c0-6.688-5.442-12.13-12.13-12.13zm-31.459 1.749a12.138 12.138 0 00-6.28-1.75C5.442 37.74 0 43.182 0 49.87a1.348 1.348 0 002.696 0c0-5.202 4.232-9.434 9.434-9.434a9.41 9.41 0 014.882 1.358 1.347 1.347 0 101.399-2.305z"/></g><defs><clipPath id="clip0"><path fill="#fff" d="M0 0h62v62H0z"/></clipPath></defs></svg>