<svg width="62" height="62" fill="none" xmlns="http://www.w3.org/2000/svg"><path d="M56.188 59.094h-.97V9.687a.969.969 0 00-.968-.968h-5.813V3.875a.969.969 0 00-.968-.969H26.156a.969.969 0 00-.968.969v4.844h-5.813a.969.969 0 00-.969.969v49.406h-6.781v-6.852a6.781 6.781 0 003.228-12.038 4.844 4.844 0 10-8.393 0 6.781 6.781 0 003.228 12.038v2.091l-1.253-1.252a.968.968 0 10-1.37 1.37l2.422 2.422c.06.059.127.11.2.152v2.069h-7.75a.969.969 0 100 1.937h54.25a.969.969 0 100-1.937zm-45.532-15.5a.969.969 0 00-.969.968v5.716a4.845 4.845 0 01-1.377-8.985.969.969 0 00.235-1.514 2.906 2.906 0 114.223 0 .967.967 0 00.234 1.514 4.845 4.845 0 01-1.377 8.985v-5.715a.97.97 0 00-.969-.97zm16.469-38.75H46.5v3.875H27.125V4.844zm8.719 54.25h-2.907V47.469h2.907v11.625zm4.843 0h-2.906V47.469h2.907v11.625zm12.594 0H42.625V46.5a.97.97 0 00-.969-.969H31.97a.969.969 0 00-.97.969v12.594H20.344V10.656H53.28v48.438zm6.782 0h-.97a.969.969 0 100 1.937h.97a.969.969 0 100-1.937z" fill="#FF912C"/><path d="M40.688 33.906h-7.75a.969.969 0 00-.97.969v7.75a.969.969 0 00.97.969h7.75a.969.969 0 00.968-.969v-7.75a.969.969 0 00-.968-.969zm-.97 7.75h-5.812v-5.812h5.813v5.812zm-9.687-7.75h-7.75a.969.969 0 00-.968.969v7.75a.97.97 0 00.968.969h7.75a.969.969 0 00.969-.969v-7.75a.97.97 0 00-.969-.969zm-.968 7.75H23.25v-5.812h5.813v5.812zm22.281-7.75h-7.75a.969.969 0 00-.969.969v7.75a.97.97 0 00.969.969h7.75a.969.969 0 00.968-.969v-7.75a.97.97 0 00-.968-.969zm-.969 7.75h-5.813v-5.812h5.813v5.812zM40.688 23.25h-7.75a.97.97 0 00-.97.969v7.75a.969.969 0 00.97.968h7.75a.97.97 0 00.968-.968v-7.75a.969.969 0 00-.968-.969zm-.97 7.75h-5.812v-5.813h5.813V31zm-9.687-7.75h-7.75a.97.97 0 00-.968.969v7.75a.97.97 0 00.968.968h7.75A.97.97 0 0031 31.97v-7.75a.97.97 0 00-.969-.969zM29.063 31H23.25v-5.813h5.813V31zm22.281-7.75h-7.75a.97.97 0 00-.969.969v7.75a.97.97 0 00.969.968h7.75a.97.97 0 00.968-.968v-7.75a.97.97 0 00-.968-.969zM50.375 31h-5.813v-5.813h5.813V31zm-9.687-18.406h-7.75a.969.969 0 00-.97.969v7.75a.969.969 0 00.97.968h7.75a.969.969 0 00.968-.968v-7.75a.969.969 0 00-.968-.97zm-.97 7.75h-5.812V14.53h5.813v5.813zm-9.687-7.75h-7.75a.969.969 0 00-.968.969v7.75a.97.97 0 00.968.968h7.75a.969.969 0 00.969-.968v-7.75a.97.97 0 00-.969-.97zm-.968 7.75H23.25V14.53h5.813v5.813zm13.562-6.781v7.75a.97.97 0 00.969.968h7.75a.969.969 0 00.968-.968v-7.75a.97.97 0 00-.968-.97h-7.75a.969.969 0 00-.969.97zm1.938.968h5.812v5.813h-5.813V14.53zM11.625 40.688a.97.97 0 00-1.938 0v.968a.969.969 0 101.938 0v-.968z" fill="#FF912C"/></svg>