<svg width="62" height="62" fill="none" xmlns="http://www.w3.org/2000/svg"><path d="M8 48.184V35H6v13.184A2.996 2.996 0 004 51c0 1.654 1.346 3 3 3s3-1.346 3-3a2.996 2.996 0 00-2-2.816zM7 52a1 1 0 110-2 1 1 0 010 2zm6-17c-1.654 0-3 1.346-3 3 0 1.302.839 2.402 2 2.816V54h2V40.816A2.996 2.996 0 0016 38c0-1.654-1.346-3-3-3zm0 4a1 1 0 110-2 1 1 0 010 2zm39 9.184V35h-2v13.184A2.996 2.996 0 0048 51c0 1.654 1.346 3 3 3s3-1.346 3-3a2.996 2.996 0 00-2-2.816zM51 52a1 1 0 110-2 1 1 0 010 2zm6-17c-1.654 0-3 1.346-3 3 0 1.302.839 2.402 2 2.816V54h2V40.816A2.996 2.996 0 0060 38c0-1.654-1.346-3-3-3zm0 4a1 1 0 110-2 1 1 0 010 2z" fill="#FF912C"/><path d="M43 32c-.395 0-.77.081-1.116.22A2.995 2.995 0 0039 30a2.98 2.98 0 00-2 .78 2.976 2.976 0 00-2-.78c-.352 0-.686.072-1 .184v-8.605c4.158-1.178 7.235-4.724 7.87-8.959l4.228 2.326C43.619 16.767 42 19.695 42 23c0 5.514 4.486 10 10 10s10-4.486 10-10-4.486-10-10-10a9.942 9.942 0 00-3.87.78l-6.161-3.389C41.651 4.61 36.86 0 31 0c-5.86 0-10.651 4.61-10.969 10.392L13.87 13.78A9.939 9.939 0 0010 13C4.486 13 0 17.486 0 23s4.486 10 10 10 10-4.486 10-10c0-3.306-1.619-6.233-4.099-8.055l4.229-2.326c.635 4.239 3.71 7.783 7.871 8.961v18.433a3 3 0 01-.306 1.319l-.839-4.194a6.464 6.464 0 00-6.32-5.181 2.539 2.539 0 00-2.535 2.535c0 .502.147.988.426 1.406l1.029 1.544c.381.571.627 1.233.712 1.914l.692 5.533c.114.923.406 1.8.837 2.547L25 54.23V56h-2v6h22v-6h-2v-1.667l1.6-2.133A7.038 7.038 0 0046 48V35c0-1.654-1.346-3-3-3zm9-1a7.949 7.949 0 01-4.792-1.609A6.006 6.006 0 0152 27c1.897 0 3.667.899 4.792 2.391A7.949 7.949 0 0152 31zm-3-9c0-1.654 1.346-3 3-3s3 1.346 3 3-1.346 3-3 3-3-1.346-3-3zm3-7c4.411 0 8 3.589 8 8a7.954 7.954 0 01-1.768 5.004 7.996 7.996 0 00-2.931-2.278C56.335 24.809 57 23.487 57 22c0-2.757-2.243-5-5-5s-5 2.243-5 5c0 1.487.665 2.809 1.699 3.726a8.007 8.007 0 00-2.931 2.278A7.954 7.954 0 0144 23c0-4.411 3.589-8 8-8zM10 31a7.949 7.949 0 01-4.792-1.609A6.006 6.006 0 0110 27c1.897 0 3.667.899 4.792 2.391A7.949 7.949 0 0110 31zm-3-9c0-1.654 1.346-3 3-3s3 1.346 3 3-1.346 3-3 3-3-1.346-3-3zm11 1a7.954 7.954 0 01-1.768 5.004 7.996 7.996 0 00-2.931-2.278C14.335 24.809 15 23.487 15 22c0-2.757-2.243-5-5-5s-5 2.243-5 5c0 1.487.665 2.809 1.699 3.726a8.007 8.007 0 00-2.931 2.278A7.954 7.954 0 012 23c0-4.411 3.589-8 8-8s8 3.589 8 8zm4-12c0-4.963 4.037-9 9-9s9 4.037 9 9a8.981 8.981 0 01-1.842 5.432 7.964 7.964 0 00-3.844-3.717C35.34 11.799 36 10.481 36 9c0-2.757-2.243-5-5-5s-5 2.243-5 5c0 1.481.66 2.799 1.686 3.715a7.964 7.964 0 00-3.845 3.718A8.976 8.976 0 0122 11zm12-2c0 1.654-1.346 3-3 3s-3-1.346-3-3 1.346-3 3-3 3 1.346 3 3zm-8.638 9.003A5.966 5.966 0 0131 14a5.97 5.97 0 015.638 4.001 8.921 8.921 0 01-2.998 1.603A2.992 2.992 0 0031 18a2.99 2.99 0 00-2.639 1.604 8.93 8.93 0 01-2.999-1.601zM43 60H25v-2h18v2zm1-12a5.028 5.028 0 01-1 3l-2 2.667V56H27v-2.23l-3.536-7.267a4.938 4.938 0 01-.62-1.859l-.692-5.534a6.46 6.46 0 00-1.032-2.775l-1.03-1.545a.535.535 0 01.445-.832 4.459 4.459 0 014.359 3.573l1.286 6.427h2.438l.854-1.709c.345-.69.528-1.464.528-2.235V21a1 1 0 012 0v16h2v-4a1 1 0 012 0v4h2v-4a1 1 0 012 0v4h2v-2a1 1 0 012 0v13z" fill="#FF912C"/></svg>