<svg width="62" height="62" fill="none" xmlns="http://www.w3.org/2000/svg"><path d="M51.525 29.06l4.436-6.973a3.84 3.84 0 001.195.194 3.879 3.879 0 003.875-3.875 3.879 3.879 0 00-3.875-3.875 3.879 3.879 0 00-2.833 6.524l-4.48 7.039H37.341l-8.074-12.56 5.16-7.094c.444.176.92.279 1.417.279a3.879 3.879 0 003.875-3.875A3.879 3.879 0 0035.844.969a3.879 3.879 0 00-3.875 3.875c0 .915.326 1.788.886 2.463l-5.254 7.224h-9.332c-.433-1.667-1.937-2.906-3.738-2.906a3.879 3.879 0 00-3.875 3.875c0 .994.375 1.927 1.032 2.631L7.556 24.56a4.796 4.796 0 00-1.744-.34A4.85 4.85 0 00.97 29.062a4.85 4.85 0 004.843 4.844c.604 0 1.192-.124 1.745-.339l5.801 9.024-5.16 7.094a3.833 3.833 0 00-1.417-.279 3.879 3.879 0 00-3.875 3.875 3.879 3.879 0 003.875 3.875 3.879 3.879 0 003.875-3.875 3.87 3.87 0 00-.886-2.463l5.254-7.224h12.54l6.966 10.834c-.385.502-.624 1.115-.624 1.76a2.91 2.91 0 002.907 2.906 2.902 2.902 0 002.727-1.938h6.09a4.852 4.852 0 004.745 3.875 4.85 4.85 0 004.844-4.843c0-1.328-.542-2.56-1.469-3.46l6.495-10.103-8.72-13.565zm5.631-12.591a1.94 1.94 0 011.938 1.937 1.94 1.94 0 01-2.98 1.633 1.921 1.921 0 01-.895-1.633 1.94 1.94 0 011.937-1.937zM35.844 2.906a1.94 1.94 0 011.937 1.938 1.94 1.94 0 01-1.937 1.937c-.417 0-.803-.127-1.146-.383a1.904 1.904 0 01-.792-1.554 1.94 1.94 0 011.938-1.938zM18.269 16.47h9.296l8.096 12.593-8.096 12.594H15.06l-5.872-9.135a4.804 4.804 0 000-6.918l4.134-6.432c.39.13.797.204 1.21.204 1.8 0 3.304-1.239 3.737-2.906zm-3.738-2.907A1.94 1.94 0 0116.47 15.5a1.94 1.94 0 01-1.938 1.938c-.37 0-.722-.105-1.048-.313a1.917 1.917 0 01-.89-1.625 1.94 1.94 0 011.938-1.938zm-11.625 15.5a2.91 2.91 0 012.906-2.906c.558 0 1.1.16 1.57.466a2.887 2.887 0 011.337 2.44c0 .992-.5 1.905-1.342 2.443a2.855 2.855 0 01-1.564.464 2.91 2.91 0 01-2.907-2.907zM6.781 55.22a1.94 1.94 0 01-1.937-1.938 1.94 1.94 0 011.937-1.937c.417 0 .803.127 1.146.383.495.352.792.932.792 1.554A1.94 1.94 0 016.78 55.22zm30.032 1.937a.969.969 0 01-.97-.968c0-.327.17-.637.466-.826a.969.969 0 11.504 1.794zm8.816-1.937h-6.088a2.902 2.902 0 00-2.728-1.938c-.23 0-.45.033-.665.083l-6.902-10.739 8.095-12.594h12.505l8.096 12.594-5.823 9.059a4.796 4.796 0 00-1.744-.34 4.853 4.853 0 00-4.746 3.875zm4.746 3.875a2.91 2.91 0 01-2.906-2.907 2.91 2.91 0 012.906-2.906c.557 0 1.099.16 1.57.466a2.887 2.887 0 011.336 2.44 2.91 2.91 0 01-2.906 2.907z" fill="#FF912C"/><path d="M14.531 24.219h7.75v1.937h-7.75V24.22zm9.688 0h3.875v1.937h-3.875V24.22zm-9.688 3.875h13.563v1.937H14.53v-1.937zm11.625 3.875h1.938v1.937h-1.938V31.97zm-3.875 0h1.938v1.937H22.28V31.97zm-7.75 0h5.813v1.937H14.53V31.97zm22.282 5.812h7.75v1.938h-7.75V37.78zm9.687 0h3.875v1.938H46.5V37.78zm-9.687 3.875h13.562v1.938H36.812v-1.938zm11.625 3.875h1.937v1.938h-1.938V45.53zm-3.875 0H46.5v1.938h-1.938V45.53zm-7.75 0h5.812v1.938h-5.813V45.53z" fill="#FF912C"/></svg>