<svg width="36" height="35" fill="none" xmlns="http://www.w3.org/2000/svg"><path d="M30.72 29.274a2.335 2.335 0 00-1.175-1.733l-6.154-3.462a2.429 2.429 0 00-2.898.398l-2.16 2.161a1.273 1.273 0 01-1.65.128 39.404 39.404 0 01-4.337-3.758 39.4 39.4 0 01-3.759-4.338 1.272 1.272 0 01.129-1.649l2.16-2.16a2.428 2.428 0 00.399-2.899L7.813 5.808A2.335 2.335 0 006.08 4.634a2.48 2.48 0 00-2.104.719l-2.28 2.28C.087 9.242.003 12.124 1.46 15.75c1.393 3.467 4.044 7.26 7.464 10.68 3.421 3.421 7.214 6.072 10.681 7.465 1.717.69 3.267 1.034 4.595 1.034 1.475 0 2.675-.425 3.523-1.272L30 31.377a2.48 2.48 0 00.719-2.103zm-1.534 1.289l-.398.398-5.247-2.862a.576.576 0 10-.552 1.012l4.95 2.7-1.032 1.031c-1.245 1.245-3.75 1.239-6.873-.016-3.326-1.337-6.982-3.897-10.296-7.21-3.313-3.314-5.874-6.97-7.21-10.296-1.255-3.123-1.26-5.628-.016-6.873l1.031-1.031.552 1.011a.576.576 0 101.012-.552l-.714-1.309.398-.398a1.347 1.347 0 011.132-.392c.379.052.701.27.886.598l3.461 6.154a1.272 1.272 0 01-.208 1.518l-1.029 1.028-2.698-4.947a.576.576 0 10-1.012.551l2.86 5.245-.282.283a2.432 2.432 0 00-.239 3.152 40.554 40.554 0 003.87 4.464 40.544 40.544 0 004.464 3.87 2.432 2.432 0 003.151-.239l.284-.283 1.308.714a.576.576 0 10.552-1.012l-1.011-.552 1.028-1.028c.4-.4 1.025-.486 1.518-.209l6.154 3.462c.328.184.546.507.598.885a1.34 1.34 0 01-.392 1.133zm-1.138-15.227h-.653V10.38a.576.576 0 00-1.153 0v4.956h-3.008l1.073-4.831a.576.576 0 00-1.125-.25l-1.23 5.532a.576.576 0 00.563.701h3.727v1.883a.576.576 0 001.152 0v-1.883h.654a.576.576 0 000-1.152z" fill="#1A2955"/><path d="M20.672 17.794H16.43c.251-.66.96-1.08 1.984-1.638 1.263-.69 2.834-1.547 2.834-3.493 0-1.577-1.361-2.86-3.035-2.86-1.674 0-3.035 1.283-3.035 2.86a.576.576 0 101.152 0c0-.941.845-1.707 1.883-1.707s1.882.766 1.882 1.707c0 1.177-.843 1.723-2.233 2.481-1.258.687-2.684 1.465-2.684 3.226 0 .319.258.577.576.577h4.918a.576.576 0 000-1.153z" fill="#1A2955"/><path d="M32.852 24.567l-1.122.224A14.051 14.051 0 0036 14.682C36 6.908 29.675.583 21.9.583a14.13 14.13 0 00-11.535 5.99.576.576 0 00.942.664 12.974 12.974 0 0110.594-5.501c7.138 0 12.946 5.807 12.946 12.946 0 3.576-1.46 6.948-4.033 9.389l.257-1.285a.576.576 0 10-1.13-.226l-.614 3.074a.576.576 0 00.677.678l3.074-.615a.576.576 0 10-.226-1.13z" fill="#1A2955"/><path d="M21.901 3.042a.576.576 0 00-.576.576v1.23a.576.576 0 001.152 0v-1.23a.576.576 0 00-.576-.576zm11.064 11.064h-1.23a.576.576 0 000 1.153h1.23a.576.576 0 000-1.153zm-19.294-4.84l-1.064-.615a.576.576 0 10-.576.998l1.064.615a.574.574 0 00.787-.21.576.576 0 00-.21-.788zm18.099 10.45l-1.064-.615a.576.576 0 10-.576.998l1.064.615a.573.573 0 00.788-.211.576.576 0 00-.211-.787zM27.721 4.601a.576.576 0 00-.787.211l-.614 1.065a.576.576 0 00.998.576l.614-1.065a.576.576 0 00-.21-.787zM17.272 22.7a.576.576 0 00-.788.212l-.614 1.064a.576.576 0 10.998.576l.615-1.064a.576.576 0 00-.211-.787zm14.71-13.838a.576.576 0 00-.787-.21l-1.065.614a.576.576 0 00.576.998l1.065-.614a.577.577 0 00.211-.788zm-18.099 10.45a.576.576 0 00-.788-.211l-1.064.615a.576.576 0 10.576.998l1.065-.615a.576.576 0 00.21-.787zm3.6-13.435l-.615-1.065a.576.576 0 10-.998.577l.615 1.064a.576.576 0 10.998-.576zm10.449 18.099l-.614-1.064a.576.576 0 00-.999.576l.615 1.065a.576.576 0 10.998-.577z" fill="#1A2955"/></svg>