<svg width="36" height="36" fill="none" xmlns="http://www.w3.org/2000/svg"><path d="M32.084 6.795A17.88 17.88 0 0020.036.118 17.874 17.874 0 007.352 3.489L5.77 1.5a.704.704 0 00-1.198.164L.253 11.857a.703.703 0 00.769.967l10.903-1.92a.703.703 0 00.429-1.13L10.79 7.811a12.474 12.474 0 0112.16-1.27.703.703 0 00.557-1.291A13.878 13.878 0 009.353 7.133a.703.703 0 00-.112.988l1.276 1.604-8.465 1.49L5.405 3.3l1.277 1.604a.703.703 0 00.987.113C14.83-.68 25.29.51 30.984 7.67a16.464 16.464 0 013.546 11.753l-2.774.489a13.84 13.84 0 00-2.888-10.558.703.703 0 10-1.1.875A12.447 12.447 0 0130.2 20.631a.703.703 0 00.688.85c.04 0 4.409-.766 4.409-.766a.703.703 0 00.576-.61 17.87 17.87 0 00-3.79-13.31z" fill="#1A2955"/><path d="M34.978 23.177l-10.904 1.917a.703.703 0 00-.428 1.13l1.563 1.965a12.41 12.41 0 01-6.506 2.267v-9.242c.724.18 1.441.27 2.138.27 1.311 0 2.552-.318 3.641-.947 1.916-1.105 3.23-3.1 3.7-5.616a.703.703 0 00-.458-.792c-2.414-.853-4.8-.713-6.715.393-1.31.756-2.34 1.93-3.01 3.4-.669-1.47-1.698-2.644-3.008-3.4-1.916-1.106-4.301-1.246-6.716-.393a.703.703 0 00-.457.792c.47 2.516 1.784 4.51 3.7 5.617 1.088.628 2.33.945 3.64.945a8.88 8.88 0 002.139-.27v9.241a12.454 12.454 0 01-9.065-4.683A12.445 12.445 0 015.8 15.37a.703.703 0 00-.81-.84l-4.286.753a.703.703 0 00-.577.61 17.873 17.873 0 003.79 13.313 17.883 17.883 0 0012.048 6.676c.693.079 1.384.118 2.071.118a17.84 17.84 0 0010.612-3.489l1.584 1.99a.703.703 0 001.197-.164l4.32-10.193a.703.703 0 00-.77-.967zM21.712 15.74c1.402-.81 3.142-.971 4.952-.472-.473 1.817-1.483 3.242-2.885 4.052-1.402.81-3.142.972-4.953.473.473-1.818 1.484-3.244 2.886-4.053zm-9.491 3.58c-1.402-.81-2.412-2.235-2.886-4.052 1.811-.5 3.55-.337 4.953.472 1.402.81 2.412 2.235 2.886 4.053-1.811.499-3.551.337-4.953-.473zM30.595 32.7l-1.277-1.604a.703.703 0 00-.988-.112 16.511 16.511 0 01-10.313 3.6c-4.886 0-9.73-2.143-13.001-6.254a16.468 16.468 0 01-3.547-11.754l2.775-.488a13.838 13.838 0 002.888 10.559c2.738 3.44 6.792 5.234 10.882 5.234 3.03 0 6.082-.985 8.633-3.014a.703.703 0 00.112-.987l-1.277-1.606 8.466-1.489-3.353 7.915z" fill="#1A2955"/></svg>