<svg width="34" height="34" fill="none" xmlns="http://www.w3.org/2000/svg"><path d="M17 0C7.611 0 0 7.611 0 17s7.611 17 17 17c9.384-.01 16.99-7.616 17-17 0-9.389-7.611-17-17-17zm0 32.867C8.237 32.867 1.133 25.763 1.133 17 1.133 8.237 8.237 1.133 17 1.133c8.759.01 15.857 7.108 15.867 15.867 0 8.763-7.104 15.867-15.867 15.867z" fill="#EE7200"/><path d="M26.216 12.083L17 21.299l-9.216-9.216a.567.567 0 00-.802.8l9.617 9.618a.566.566 0 00.802 0l9.616-9.617a.567.567 0 10-.801-.801z" fill="#EE7200"/></svg>