<svg width="63" height="59" fill="none" xmlns="http://www.w3.org/2000/svg"><path d="M58.28 52.276h-.035v-3.475c0-.44-.391-.76-.83-.76H22.761a.759.759 0 00-.785.76v3.475h-.08a4.441 4.441 0 00-4.42 4.478v1.206a.76.76 0 00.746.802h43.732a.8.8 0 00.792-.802v-1.206a4.479 4.479 0 00-4.466-4.478zM23.565 49.63h33.092v2.647H23.565V49.63zm37.592 7.545H19.064v-.42a2.85 2.85 0 012.833-2.89H58.28a2.89 2.89 0 012.877 2.89v.42zM21.611 32.054a.794.794 0 001.123 0l2.631-2.63a.794.794 0 000-1.124l-.97-.97 2.4-2.399 3.58 3.581-.236.236a.794.794 0 000 1.123l1.437 1.436-.438.438a.794.794 0 000 1.123l1.749 1.748a2.49 2.49 0 003.52 0l10.537-10.535a2.493 2.493 0 000-3.521l-1.749-1.749a.794.794 0 00-1.123 0l-.437.438-1.437-1.437a.794.794 0 00-1.123 0l-.236.236L29.623 6.833l.236-.236a.794.794 0 000-1.123l-1.437-1.437.438-.437a.794.794 0 000-1.123L27.112.728a2.493 2.493 0 00-3.521 0L13.055 11.265a2.493 2.493 0 000 3.52l1.749 1.749a.795.795 0 001.123 0l.437-.437 1.437 1.437a.795.795 0 001.123 0l.236-.236 3.58 3.58-2.398 2.4-.97-.97a.797.797 0 00-1.124 0l-2.63 2.63a.794.794 0 000 1.123l.34.341-14.321 12.74a4.882 4.882 0 003.24 8.53c.048 0 .098 0 .147-.003a4.838 4.838 0 003.505-1.635l12.741-14.32.341.34zm23.022-11.558l1.187 1.187a.903.903 0 010 1.275L35.284 33.493a.901.901 0 01-1.274 0l-1.187-1.187 11.81-11.81zm-2.997-1l.875.876-9.813 9.812-.875-.875 9.813-9.812zM15.365 14.85l-1.187-1.187a.901.901 0 010-1.275L24.714 1.851a.902.902 0 011.274 0l1.187 1.187-11.81 11.81zm2.997.999l-.875-.875 9.812-9.813.875.875-9.812 9.813zm1.92.326L28.5 7.956 39.715 19.17l-8.218 8.218-11.215-11.215zM23.863 22l1.807 1.807-2.398 2.399-1.808-1.808L23.863 22zm-5.054 1.99l4.871 4.87-1.507 1.509-4.871-4.872 1.507-1.507zM7.342 44.978a3.296 3.296 0 01-4.79.14 3.293 3.293 0 01.14-4.789l14.39-12.803 3.063 3.062-12.803 14.39z" fill="#FF912C"/><path d="M28.713 10.701a.794.794 0 00-1.123 1.123l.749.749a.795.795 0 001.123-1.123l-.748-.749zm7.207 9.125a.794.794 0 00.561-1.356l-5.334-5.335a.794.794 0 10-1.123 1.123l5.334 5.334a.793.793 0 00.562.234z" fill="#FF912C"/></svg>