<svg width="63" height="63" fill="none" xmlns="http://www.w3.org/2000/svg"><path d="M26.308 47.895a4.641 4.641 0 00-4.637 4.637 1.021 1.021 0 102.043 0 2.596 2.596 0 012.594-2.594 1.022 1.022 0 000-2.043zM38.38 43.59a3.535 3.535 0 00-2.598-.798 1.021 1.021 0 00.194 2.033 1.51 1.51 0 011.644 1.359 1.021 1.021 0 001.015.925c.032 0 .065 0 .098-.005a1.023 1.023 0 00.92-1.114 3.529 3.529 0 00-1.272-2.4z" fill="#FF912C"/><path d="M62.197 60.856a8.252 8.252 0 00-8.19-7.34c-.253 0-.507.013-.762.038a8.366 8.366 0 00-8.115-8.256 11.515 11.515 0 00-1.794-3.094 6.84 6.84 0 00-.39-1.41l-6.175-15.09a2.655 2.655 0 00-4.053-1.117l-4.53 3.406-.43-.573a1.01 1.01 0 00-1.331-.264L13.034 9.348l-1.18-7.143A2.173 2.173 0 008.81.578 2.235 2.235 0 005.972.445l-4.29 3.226a2.233 2.233 0 00-.66 2.764 2.173 2.173 0 00.718 3.372l6.534 3.117 13.392 17.812a1.019 1.019 0 00-.117 1.351l.43.573-4.529 3.406a2.657 2.657 0 00-.052 4.203l4.505 3.57a8.428 8.428 0 00-5.542 6.256h-.046a6.42 6.42 0 00-5.707 3.444 8.25 8.25 0 00-7.62 7.198H1.023a1.021 1.021 0 100 2.043H61.73a1.019 1.019 0 00.467-1.926v.002zM11.865 11.193l12.92 17.183-1.493 1.123-12.92-17.182 1.493-1.124zm12.363 21.056l-.43-.572 2.94-2.21 3.78 5.024-2.941 2.212-3.35-4.454zM10.958 9.318l-2.137 1.606L3.84 8.547c.428-.027.84-.178 1.183-.435l4.289-3.225c.34-.258.6-.609.746-1.01l.901 5.44zM2.912 5.304L7.2 2.079a.188.188 0 01.265.037l.656.876a.189.189 0 01-.037.264L3.795 6.479a.189.189 0 01-.264-.037l-.328-.436-.328-.437a.19.19 0 01.037-.265zM18.434 38.18a.602.602 0 01.244-.482l4.53-3.406 3.348 4.452a1.022 1.022 0 001.43.203l4.574-3.44a1.021 1.021 0 00.203-1.43l-3.348-4.452 4.53-3.407a.613.613 0 01.934.258l5.338 13.049a11.547 11.547 0 00-15.6 3.855l-5.953-4.713a.603.603 0 01-.23-.487zm-7.29 17.38l.108.005a1.015 1.015 0 00.965-.643 4.371 4.371 0 014.849-2.716 1.021 1.021 0 001.19-.934 6.332 6.332 0 016.288-5.837c.184 0 .365.013.545.028a1.025 1.025 0 00.984-.525 9.485 9.485 0 0115.594-1.547 9.5 9.5 0 011.77 3.252 1.02 1.02 0 001.042.714l.104-.007c.102-.007.205-.015.308-.015a6.266 6.266 0 016.227 7.301 1.022 1.022 0 001.272 1.145 6.166 6.166 0 017.723 4.955H5.053a6.198 6.198 0 016.091-5.177z" fill="#FF912C"/></svg>