<svg width="62" height="69" fill="none" xmlns="http://www.w3.org/2000/svg"><path d="M30.743 42.773c11.792 0 21.386-9.594 21.386-21.387C52.13 9.594 42.535 0 30.743 0 18.95 0 9.356 9.594 9.356 21.386c0 11.793 9.594 21.387 21.387 21.387zM12.152 23.517c1.17 1 2.287.86 4.465-.466.406.095 1.273.595 1.709.846.475.274.924.533 1.32.69 1.148.453 2.236.828 3.348.828.775 0 1.561-.182 2.387-.647 1.247-.701 1.633-1.669 1.738-2.357.277-1.816-1.105-3.512-1.712-4.156-1.026-1.09-2.425-1.01-3.35-.958-.165.009-.387.022-.55.02-.288-.639-.215-.877-.204-.904.106-.279.951-.598 1.51-.81 1.162-.44 2.607-.986 2.897-2.518.258-1.357.06-2.422-.587-3.166-.978-1.126-2.54-1.05-3.575-1-.253.012-.54.026-.676.011-.582-.062-.582-.062-.961-.79-.198-.381-.442-.85-.826-1.38a18.62 18.62 0 0110.321-4.04v37.33c-8.989-.637-16.243-7.652-17.254-16.534zm19.927-7.305c2.299.6 4.01 2.706 4.01 5.174 0 2.469-1.711 4.574-4.01 5.175V16.212zm17.377 5.174c0 9.87-7.68 17.978-17.377 18.665v-2.683a16.093 16.093 0 0013.363-9.557 1.337 1.337 0 10-2.449-1.071 13.413 13.413 0 01-10.913 7.944v-5.389a7.967 7.967 0 004.383-2.287 7.974 7.974 0 002.3-5.622 7.974 7.974 0 00-2.3-5.62 7.968 7.968 0 00-4.383-2.288v-5.39a13.413 13.413 0 0110.913 7.945 1.337 1.337 0 102.45-1.072A16.093 16.093 0 0032.08 5.404V2.722c9.696.687 17.376 8.795 17.376 18.664zM17.1 8.593c.174.271.308.528.44.78.487.938 1.04 2 3.047 2.216.343.036.705.019 1.09 0 .366-.018 1.217-.059 1.428.085.017.04.094.265-.011.859-.18.174-.83.42-1.227.57-1.126.426-2.527.956-3.061 2.355-.367.959-.218 2.053.453 3.347.67 1.29 2.096 1.21 2.948 1.16.481-.026 1.081-.06 1.253.122.74.786 1.071 1.56 1.016 1.92-.009.061-.033.221-.406.431-.847.477-1.555.407-3.442-.338-.213-.084-.597-.305-.968-.519-1.396-.805-2.979-1.718-4.28-.909-.907.564-1.337.741-1.521.797a9.377 9.377 0 01-.17-.175c-.337-.354-.805-.844-1.61-1.276A18.65 18.65 0 0117.1 8.593zm44.204 40.423c-.553-1.74-2.476-3.28-5.388-2.549l-.023.006-11.664 3.144a3.913 3.913 0 00-4.255-2.852c-.685.085-2.998.413-5.447.761-2.325.33-4.729.672-5.388.754-1.445.18-3.38.027-5.427-.135-4.03-.319-9.044-.715-13.463 1.177C5.033 51.555 1.709 56.405.087 64.15c-.239 1.14.02 2.28.709 3.129.597.736 1.454 1.158 2.351 1.158h12.03c1.875 0 3.132-.9 3.644-2.607l.685-1.334 7.357.082c5.516.06 7.263-.27 12.47-2.357 4.024-1.614 9.046-3.799 13.082-5.554 2.887-1.257 5.381-2.341 6.318-2.694l.013-.005c2.415-.936 3.115-3.2 2.558-4.952zm-3.519 2.457c-1.005.38-3.402 1.422-6.436 2.742-4.02 1.749-9.022 3.925-13.01 5.524-4.887 1.96-6.278 2.223-11.446 2.165l-8.183-.09a1.328 1.328 0 00-1.204.725l-1.123 2.186a1.332 1.332 0 00-.102.265c-.147.55-.288.773-1.103.773H3.148c-.087 0-.19-.063-.277-.17-.177-.217-.24-.552-.167-.895C4.134 57.87 6.946 53.644 11.3 51.78c2.24-.96 4.702-1.233 7.15-1.233 1.718 0 3.429.135 5.05.263 2.188.173 4.253.336 5.967.123.683-.085 2.991-.413 5.435-.76 2.33-.33 4.74-.673 5.4-.755a1.233 1.233 0 011.378 1.063c.026.209.096.762-1.463 1.477-3.393 1.555-7.008 2.887-9.919 3.652a1.337 1.337 0 10.68 2.586c3.053-.804 6.827-2.191 10.353-3.808 1.224-.561 1.983-1.216 2.436-1.878l12.809-3.453c1.322-.328 1.993.182 2.18.77.178.561-.053 1.288-.971 1.646z" fill="#FF912C"/><path d="M45.447 20.05a1.336 1.336 0 10-.002 2.672 1.336 1.336 0 00.002-2.672z" fill="#FF912C"/></svg>