<svg width="62" height="62" fill="none" xmlns="http://www.w3.org/2000/svg"><path d="M47.722 61.92H.938A.938.938 0 010 60.982V.938A.938.938 0 01.938 0H35.37a.937.937 0 01.664.275l12.352 12.362a.943.943 0 01.274.663v16.822a.939.939 0 01-1.876 0V13.689L34.98 1.876H1.871v58.168H46.78V47.922a.938.938 0 111.876 0v13.06a.939.939 0 01-.933.938z" fill="#FF912C"/><path d="M47.732 14.238H35.367a.938.938 0 01-.938-.938V.938a.938.938 0 011.876 0v11.424h11.427a.938.938 0 110 1.876zm-7.346 6.182H7.63a.938.938 0 110-1.877h32.756a.938.938 0 110 1.877zm-3.056 8.829H7.626a.938.938 0 110-1.877H37.33a.938.938 0 110 1.877zM28.02 11.59H7.63a.938.938 0 010-1.877h20.39a.938.938 0 010 1.877z" fill="#FF912C"/><path d="M41.08 48.456a10.905 10.905 0 117.71-3.193 10.837 10.837 0 01-7.71 3.194zm0-19.929a9.024 9.024 0 10.004 18.048 9.024 9.024 0 00-.006-18.048h.001z" fill="#FF912C"/><path d="M58.034 58.077a3.558 3.558 0 01-2.524-1.043L45.345 46.869a.938.938 0 011.327-1.326l10.165 10.165a1.694 1.694 0 002.396-2.395l-10.17-10.165a.938.938 0 111.327-1.328l10.165 10.165a3.567 3.567 0 01-2.526 6.092h.005z" fill="#FF912C"/></svg>