<svg width="53" height="53" fill="none" xmlns="http://www.w3.org/2000/svg"><path d="M36.575 19.158a7.846 7.846 0 007.838-7.837V7.838a7.838 7.838 0 00-15.675 0v3.483a7.847 7.847 0 007.837 7.837zM30.48 7.838a6.096 6.096 0 0112.192 0v3.483a6.096 6.096 0 01-12.192 0V7.838zM44.412 20.9h-11.32v1.742h.28l1.446 3.612-1.726 18.95a.87.87 0 00.251.697l2.613 2.612a.87.87 0 001.231 0l2.613-2.612a.87.87 0 00.251-.697l-1.719-18.95 1.445-3.612h4.635a6.103 6.103 0 016.096 6.096v21.77h-4.354v-21.77h-1.742v21.77H28.737v-3.483h-1.741v3.483H21.77v1.742h29.608a.871.871 0 00.87-.87V28.736a7.846 7.846 0 00-7.837-7.837zm-6.51 1.742l-1.046 2.612h-.562l-1.045-2.612H37.9zm-1.327 24.022l-1.709-1.708 1.633-17.96h.152l1.632 17.96-1.708 1.708z" fill="#fff"/><path d="M10.733 49.483l4.5 2.647a.87.87 0 00.883 0l4.501-2.648A21.857 21.857 0 0031.35 30.718V20.9a.87.87 0 00-.87-.87 22.789 22.789 0 01-13.586-4.53l-.696-.522a.87.87 0 00-1.046 0l-.696.523A22.784 22.784 0 01.87 20.029.87.87 0 000 20.9v9.817a21.858 21.858 0 0010.733 18.766zM1.742 21.754a24.542 24.542 0 0013.759-4.86l.174-.13.174.13a24.542 24.542 0 0013.76 4.86v8.963a20.11 20.11 0 01-9.874 17.266l-4.06 2.386-4.06-2.386a20.11 20.11 0 01-9.873-17.266v-8.963z" fill="#fff"/><path d="M12.499 46.48l2.734 1.61a.877.877 0 00.883 0l2.735-1.61a18.36 18.36 0 009.015-15.763v-6.564a.87.87 0 00-.757-.863 26.433 26.433 0 01-10.958-4.059.871.871 0 00-.953 0 26.442 26.442 0 01-10.957 4.06.87.87 0 00-.758.862v6.564A18.358 18.358 0 0012.5 46.48zM5.225 24.906a28.202 28.202 0 0010.45-3.914 28.202 28.202 0 0010.45 3.914v5.81a16.608 16.608 0 01-8.157 14.262l-2.293 1.35-2.294-1.35a16.607 16.607 0 01-8.156-14.261v-5.811z" fill="#fff"/><path d="M16.546 23.512h-1.742v1.742h1.742v-1.742zm-7.838 2.613H6.967v1.742h1.741v-1.742zm0 6.095H6.967v1.742h1.741v-1.741zm15.676-6.095h-1.742v1.742h1.742v-1.742zm0 6.095h-1.742v1.742h1.742v-1.741zm-13.063 5.226H9.579v1.742h1.742v-1.742zm10.45 0h-1.742v1.742h1.742v-1.742zM16.546 41.8h-1.742v1.742h1.742V41.8z" fill="#fff"/></svg>