<svg width="70" height="53" fill="none" xmlns="http://www.w3.org/2000/svg"><path d="M5.314 11.714H16.13a1.025 1.025 0 100-2.05H5.314a1.025 1.025 0 100 2.05zm10.444 4.936h-4.272a1.025 1.025 0 100 2.052h4.272a1.025 1.025 0 100-2.051zM1.025 23.762h10.461a1.025 1.025 0 100-2.051H1.026a1.025 1.025 0 100 2.05zM17.154 41.94c0-.567-.46-1.026-1.025-1.026H5.314a1.025 1.025 0 100 2.051H16.13c.566 0 1.025-.459 1.025-1.025zm-1.396-8.013h-4.272a1.025 1.025 0 100 2.051h4.272a1.025 1.025 0 100-2.05zm-3.247-4.034c0-.567-.459-1.026-1.025-1.026H1.026a1.025 1.025 0 100 2.051h10.46c.566 0 1.025-.459 1.025-1.025zm31.174-15.907c.567 0 1.026-.459 1.026-1.025v-1.565a1.025 1.025 0 10-2.05 0v1.565c0 .566.458 1.025 1.024 1.025zm11.274 1.054c-.4-.4-1.05-.4-1.45 0l-1.107 1.107a1.025 1.025 0 001.45 1.45l1.107-1.107c.4-.4.4-1.05 0-1.45zm2.08 10.249a1.025 1.025 0 100 2.05h1.565a1.025 1.025 0 100-2.05h-1.565zm-3.187 9.742a1.026 1.026 0 00-1.45 1.45l1.107 1.107a1.026 1.026 0 001.45-1.45l-1.107-1.107zM42.66 39.668v1.565a1.025 1.025 0 102.05 0v-1.565a1.025 1.025 0 10-2.05 0zm-9.142-4.637l-1.106 1.107a1.025 1.025 0 001.45 1.45l1.106-1.107a1.025 1.025 0 00-1.45-1.45zm-4.751-9.742a1.025 1.025 0 100 2.05h1.565a1.025 1.025 0 100-2.05h-1.565zm6.201-9.142l-1.106-1.107a1.025 1.025 0 00-1.45 1.45l1.106 1.107a1.025 1.025 0 101.45-1.45zM49.2 26.314c0-.566-.46-1.025-1.026-1.025h-3.463v-7.613a1.025 1.025 0 10-2.05 0v8.638c0 .567.458 1.026 1.024 1.026h4.489c.566 0 1.025-.46 1.025-1.026z" fill="#fff"/><path d="M63.129 26.145c.565-.034.995-.52.961-1.085-.652-10.76-9.615-19.19-20.405-19.19-11.272 0-20.443 9.172-20.443 20.444 0 11.273 9.17 20.444 20.443 20.444 10.1 0 18.717-7.4 20.216-17.384a1.025 1.025 0 10-2.028-.305c-1.346 8.97-9.092 15.639-18.188 15.639-10.141 0-18.393-8.252-18.393-18.393 0-10.142 8.252-18.393 18.393-18.393 9.708 0 17.771 7.582 18.358 17.262.034.565.52.994 1.086.961z" fill="#fff"/><path d="M43.686 0c-3.607 0-7.141.748-10.394 2.148H15.201a1.025 1.025 0 100 2.05h14.234a26.287 26.287 0 00-5.259 4.458 1.025 1.025 0 101.52 1.377 24.316 24.316 0 0117.99-7.982c13.379 0 24.263 10.884 24.263 24.263 0 13.38-10.884 24.264-24.263 24.264-13.38 0-24.264-10.885-24.264-24.264 0-4.685 1.338-9.232 3.87-13.15a1.025 1.025 0 10-1.722-1.113 26.219 26.219 0 00-4.199 14.263c0 9.265 4.814 17.426 12.07 22.116h-14.24a1.025 1.025 0 100 2.051h18.077a26.164 26.164 0 0010.408 2.148C58.196 52.629 70 40.824 70 26.314 70 11.804 58.195 0 43.686 0z" fill="#fff"/></svg>