<svg width="57" height="70" fill="none" xmlns="http://www.w3.org/2000/svg"><path d="M41.492 24.72h-3.106c-.19-.601-.43-1.184-.722-1.743l2.196-2.196c.274-.274.425-.64.425-1.027 0-.389-.15-.754-.425-1.028l-2.584-2.584a1.455 1.455 0 00-2.055 0l-2.196 2.196a10.792 10.792 0 00-1.744-.722V14.51c0-.8-.652-1.453-1.453-1.453h-3.654c-.802 0-1.454.652-1.454 1.453v3.106c-.601.19-1.184.43-1.743.722l-2.196-2.196a1.455 1.455 0 00-2.055 0l-2.584 2.584c-.275.274-.426.64-.426 1.028s.151.753.426 1.027l2.196 2.196a10.791 10.791 0 00-.722 1.743H14.51c-.801 0-1.453.652-1.453 1.454v3.654c0 .801.652 1.453 1.453 1.453h3.106c.19.602.43 1.185.722 1.744l-2.196 2.196a1.455 1.455 0 000 2.055l2.584 2.584a1.455 1.455 0 002.055 0l2.196-2.196c.559.291 1.142.532 1.743.722v3.105c0 .802.652 1.453 1.454 1.453h3.654c.801 0 1.453-.651 1.453-1.453v-3.105a10.75 10.75 0 001.744-.722l2.196 2.196a1.455 1.455 0 002.055 0l2.584-2.584c.274-.275.425-.64.425-1.028s-.15-.753-.425-1.027l-2.196-2.196c.291-.56.532-1.142.722-1.744h3.105c.802 0 1.454-.652 1.454-1.453v-3.654c0-.802-.652-1.453-1.453-1.453zm-.598 4.51h-3.29c-.475 0-.89.328-.998.792a8.767 8.767 0 01-1.09 2.635c-.252.404-.191.929.145 1.266l2.326 2.325-1.739 1.74-2.325-2.327a1.025 1.025 0 00-1.267-.146c-.813.506-1.7.873-2.634 1.091a1.025 1.025 0 00-.791.999v3.29h-2.46v-3.29c0-.476-.327-.89-.791-.999a8.76 8.76 0 01-2.634-1.09 1.026 1.026 0 00-1.267.145l-2.325 2.326-1.739-1.739 2.326-2.325c.336-.337.397-.862.146-1.267a8.772 8.772 0 01-1.091-2.634 1.025 1.025 0 00-.998-.791h-3.29v-2.46h3.29c.476 0 .89-.327.998-.791a8.773 8.773 0 011.09-2.634c.252-.405.191-.93-.145-1.267l-2.326-2.325 1.739-1.74 2.325 2.327c.337.336.862.397 1.267.146a8.766 8.766 0 012.634-1.091c.464-.108.792-.522.792-.998v-3.29h2.459v3.29c0 .476.327.89.791.998.935.218 1.82.585 2.635 1.09.404.252.929.191 1.266-.145l2.325-2.326 1.74 1.739-2.327 2.325a1.025 1.025 0 00-.145 1.267c.505.813.872 1.7 1.09 2.634.109.464.522.792.999.792h3.29v2.459z" fill="#fff"/><path d="M28.001 22.508A5.5 5.5 0 0022.508 28 5.5 5.5 0 0028 33.494a5.5 5.5 0 005.494-5.493A5.5 5.5 0 0028 22.508zm0 8.936A3.447 3.447 0 0124.56 28 3.447 3.447 0 0128 24.558a3.446 3.446 0 013.443 3.443A3.446 3.446 0 0128 31.443zM4.427 26.976H1.025a1.025 1.025 0 000 2.05h3.402a1.025 1.025 0 000-2.05zm50.55 0h-3.402a1.025 1.025 0 100 2.05h3.402a1.025 1.025 0 100-2.05zM12.056 43.945c-.4-.4-1.05-.4-1.45 0l-2.405 2.406a1.025 1.025 0 001.45 1.45l2.405-2.406c.4-.4.4-1.05 0-1.45zM47.8 8.201c-.4-.4-1.05-.4-1.45 0l-2.405 2.406a1.025 1.025 0 101.45 1.45l2.406-2.405c.4-.4.4-1.05 0-1.45zM28.001 0c-.567 0-1.025.46-1.025 1.025v3.402a1.025 1.025 0 102.05 0V1.025C29.026.46 28.567 0 28.001 0zM47.8 46.35l-2.405-2.405a1.025 1.025 0 00-1.45 1.45l2.405 2.406a1.026 1.026 0 001.45-1.45zM12.056 10.607L9.651 8.2a1.025 1.025 0 00-1.45 1.45l2.405 2.406a1.025 1.025 0 001.45-1.45z" fill="#fff"/><path d="M47.547 28.918a1.025 1.025 0 00-1.146.888c-.7 5.522-3.816 10.394-8.551 13.367a6.899 6.899 0 00-3.26 5.868v4.22H21.413v-4.314c0-2.316-1.211-4.505-3.16-5.711-5.51-3.411-8.8-9.312-8.8-15.784 0-9.345 7-17.259 16.282-18.409a1.025 1.025 0 00-.253-2.035c-10.256 1.27-18.08 10.09-18.08 20.444a20.6 20.6 0 002.687 10.18 20.737 20.737 0 007.085 7.348c1.349.835 2.187 2.355 2.187 3.967v4.463a2.669 2.669 0 00-1.794 2.517v1.462c0 .619.214 1.188.569 1.64a2.65 2.65 0 00-.57 1.641v1.462a2.67 2.67 0 002.667 2.666h3.224v2.318a2.428 2.428 0 002.425 2.425h4.238a2.428 2.428 0 002.425-2.425v-2.318h3.223a2.67 2.67 0 002.667-2.666V60.67a2.65 2.65 0 00-.57-1.64 2.65 2.65 0 00.57-1.641v-1.462a2.668 2.668 0 00-1.795-2.517v-4.37c0-1.682.86-3.226 2.3-4.13 5.257-3.3 8.718-8.712 9.494-14.846a1.024 1.024 0 00-.887-1.146zM30.494 67.116a.38.38 0 01-.374.374h-4.238a.38.38 0 01-.374-.374v-2.318h4.986v2.318zm5.89-4.984a.624.624 0 01-.615.615H20.233a.624.624 0 01-.615-.615V60.67c0-.333.282-.615.615-.615H35.77c.333 0 .615.282.615.615v1.462zm0-4.743a.624.624 0 01-.615.615H20.233a.624.624 0 01-.615-.615v-1.462c0-.334.282-.615.615-.615H35.77c.333 0 .615.281.615.615v1.462z" fill="#fff"/></svg>