<svg width="70" height="70" fill="none" xmlns="http://www.w3.org/2000/svg"><path d="M41.376 55.475c-.347.545-.726 1.08-1.125 1.59l1.613 1.266c.441-.562.86-1.153 1.243-1.757l-1.731-1.1zm1.504-2.873a19.35 19.35 0 01-.845 1.754l1.8.982c.343-.629.658-1.281.935-1.94l-1.89-.796zm-3.465 5.458c-.432.48-.894.946-1.372 1.382l1.383 1.515a21.849 21.849 0 001.514-1.528l-1.525-1.37zm-2.36 2.226c-.507.404-1.038.787-1.581 1.138l1.114 1.722c.6-.388 1.187-.811 1.746-1.257l-1.28-1.603zm-17.253 3.559l-.541 1.978c.69.189 1.396.344 2.102.463l.34-2.023a19.394 19.394 0 01-1.901-.418zm3.187.59l-.204 2.04c.71.071 1.432.107 2.148.107v-2.05a19.67 19.67 0 01-1.944-.097zM5.469 45.066H3.418c0 9.154 5.816 17.325 14.472 20.332l.673-1.937C10.73 60.74 5.469 53.348 5.469 45.066zM30.947 8.7a21.626 21.626 0 00-6.037 8.697l1.921.719a19.57 19.57 0 015.463-7.87l-1.347-1.547zM52.11 4.602l-.672 1.937C59.269 9.26 64.53 16.652 64.53 24.934h2.051c0-9.154-5.816-17.325-14.472-20.332zm-3.473-.888l-.34 2.023a19.45 19.45 0 011.901.418l.541-1.978a21.395 21.395 0 00-2.102-.463zm-3.571-.296v2.05c.65 0 1.304.033 1.945.097l.203-2.04a21.74 21.74 0 00-2.148-.107z" fill="#fff"/><path d="M45.066 0a24.937 24.937 0 00-24.543 20.523A24.937 24.937 0 000 45.066C0 58.816 11.185 70 24.933 70a24.936 24.936 0 0024.543-20.523A24.938 24.938 0 0070 24.934C70 11.184 58.815 0 45.066 0zm2.503 48.434C45.93 59.56 36.197 67.95 24.933 67.95c-12.617 0-22.882-10.265-22.882-22.883 0-11.264 8.39-20.995 19.515-22.635a23.148 23.148 0 013.367-.247c12.618 0 22.883 10.265 22.883 22.883a23.14 23.14 0 01-.247 3.367zm2.195-1.102c.069-.754.103-1.512.103-2.266 0-13.748-11.185-24.933-24.933-24.933-.754 0-1.512.034-2.266.102C24.858 9.78 34.256 2.051 45.066 2.051c12.618 0 22.883 10.265 22.883 22.883 0 10.81-7.727 20.208-18.185 22.398z" fill="#fff"/><path d="M45.751 47.806c-.228.007-.459.01-.684.01-12.618 0-22.883-10.265-22.883-22.882 0-.228.003-.458.01-.687l-2.05-.06c-.007.248-.011.5-.011.747 0 13.748 11.185 24.933 24.933 24.933.246 0 .497-.003.746-.01l-.061-2.05zM32.46 24.91l-.719 1.92c.605.227 1.206.487 1.787.774l.909-1.839a21.475 21.475 0 00-1.977-.856zm3.242 1.534l-1.03 1.774a19.479 19.479 0 019.388 13.224l2.015-.381c-1.16-6.137-4.941-11.464-10.373-14.617zm-6.695-2.506l-.388 2.014a19.54 19.54 0 011.892.463l.588-1.964a21.433 21.433 0 00-2.092-.513z" fill="#fff"/></svg>